<svg id="Assets" xmlns="http://www.w3.org/2000/svg" viewBox="0 0 800 800"><defs><style>.cls-1{fill:#3c3c3c;}.cls-2{fill:#5c5f5e;}.cls-3{fill:#ffa100;}.cls-4{fill:#ef8f00;}.cls-5{fill:#fff;}.cls-6{fill:#dcdcdc;}.cls-7{fill:#ffd48c;}.cls-8{fill:#6b6c6b;}.cls-9{fill:#b3b3b3;}.cls-10{fill:#c1bba8;}.cls-11{fill:#c1c1c3;}.cls-12{fill:#91886c;}.cls-13{fill:#727272;}.cls-14{fill:#888684;}.cls-15{fill:#253d89;}.cls-16{fill:#5a71b7;}.cls-17{fill:#253e87;}.cls-18{fill:#dedacc;}.cls-19{fill:#a79e82;}.cls-20{fill:#aab2b3;}.cls-21{fill:#6b6b6f;}.cls-22{fill:#dde0de;}.cls-23{fill:#b6b2ae;}.cls-24{fill:#e9e9e9;}.cls-25{fill:#b7b095;}</style></defs><g id="Forma_2134_copia" data-name="Forma 2134 copia"><path class="cls-1" d="M720.92,334.83s-51.39-48.42-72.57-34.52-11.62,29.59-11.62,29.59S659.82,377,638.49,450,504.33,675.89,596.22,725.15c74.7,40.05,103.21-97.36,108.14-110.26C741.25,488.93,720.92,334.83,720.92,334.83ZM170.67,329.9s9.55-15.7-11.63-29.59-72.56,34.52-72.56,34.52S66.15,488.93,103,614.89c4.94,12.9,33.44,150.31,108.15,110.26,91.88-49.26-20.94-202-42.27-275.13S170.67,329.9,170.67,329.9Z"/></g><g id="Forma_2134_copia_3" data-name="Forma 2134 copia 3"><path class="cls-2" d="M170.67,329.9s9.55-15.7-11.63-29.59c-6.28-4.13-15.21-2.76-24.68,1.19,18.9,13.59,9.89,28.4,9.89,28.4S121.16,377,142.49,450s134.15,225.87,42.27,275.13a66,66,0,0,1-12.67,5.27c11.34,3.63,24.31,2.65,39.09-5.27,91.88-49.26-20.94-202-42.27-275.13S170.67,329.9,170.67,329.9Zm492.48,0s-9-14.81,9.89-28.4c-9.47-3.95-18.41-5.32-24.69-1.19-21.17,13.89-11.62,29.59-11.62,29.59S659.82,377,638.49,450,504.33,675.89,596.22,725.15c14.78,7.92,27.75,8.9,39.08,5.27a66.19,66.19,0,0,1-12.66-5.27c-91.88-49.26,20.94-202,42.27-275.13S663.15,329.9,663.15,329.9Z"/></g><g id="Forma_2142" data-name="Forma 2142"><path class="cls-3" d="M720.57,170.32C655.28,71.18,590.76,2.64,408.81,2.64S129.12,76.25,68.51,202C-21,387.75,71,621.91,96,668.08s50,57.77,50,57.77c-45.14-137.45-53.9-264.91-53.9-264.91l-.7-95.11,27.12-42.27,73.63-29.95,309.29-12.33,169.1,30,41.56,50,.71,148.66L666,714.93s17.46,7.65,50-50.72S821.38,323.4,720.57,170.32Z"/></g><g id="Forma_2144" data-name="Forma 2144"><path class="cls-4" d="M667.73,192.51C573.47,34.57,297.15,41.78,184.41,136.85S83.66,373.58,83.66,373.58l35.58-36.64C241.48,248.71,605.35,307,648.35,309.82s74.6,64.56,71.51,76.79C719.86,386.61,747.19,325.64,667.73,192.51Z"/></g><g id="Elipse_2347_copia" data-name="Elipse 2347 copia"><ellipse class="cls-5" cx="400.88" cy="107.61" rx="77.32" ry="65.17"/></g><g id="Elipse_2347" data-name="Elipse 2347"><path class="cls-6" d="M466.64,73.32a437.92,437.92,0,0,0-132.5,1.36,57.39,57.39,0,0,0-10.58,32.93c0,36,34.62,65.17,77.32,65.17s77.32-29.17,77.32-65.17A57.54,57.54,0,0,0,466.64,73.32Z"/></g><g id="Forma_2142_copia_2" data-name="Forma 2142 copia 2"><path class="cls-7" d="M408.81,2.64c-182,0-279.69,73.61-340.3,199.38C-21,387.75,71,621.91,96,668.08a204.24,204.24,0,0,0,21.12,32c-2.79-4.36-5.61-9.13-8.44-14.35-25-46.16-117-280.33-27.48-466.05C141.81,93.87,239.54,20.25,421.49,20.25c157.13,0,226.69,51.12,284.79,128.92C645.27,61.57,577.52,2.64,408.81,2.64Z"/></g><g id="Forma_2137" data-name="Forma 2137"><path class="cls-8" d="M693.8,324.26c-45.83-32-483.66-75.66-577.73,9.16s4.6,315.27,32.05,388.21c0,0,5.33,16,18,4.22,0,0-79.25-281.76-49.32-359.67C128.59,335.43,176,329.9,176,329.9s205.16-48.72,465.71,3.52c0,0,49.54,2.32,52.14,54.95S684.38,604,654,702.6c-11,35.57,6.17,28.29,10.92,20.08C679.23,692.27,711.8,558.73,716,502.86S739.62,356.29,693.8,324.26Z"/></g><g id="Forma_2138" data-name="Forma 2138"><path class="cls-9" d="M727.26,386.26c-7.12-78.18-44.49-85.62-132.81-105.33s-269.64-16.52-365.3-3.17S80.77,303.79,77,398.94c-4,99.16,44.22,265.89,58.13,306.83s13.53,28.59,18,27.13-3.53-23.25-3.53-23.25C93.22,547.29,94.58,404.58,94.58,404.58c5.74-82.33,48.52-91.63,129.64-102.51,85.84-11.52,235.92-19.39,366.36,3.87,86,15.33,104.67,12.21,118,87.72s-38.9,286.37-44,305.77-7.71,33.11-1.06,32.41,11.63-20.08,11.63-20.08C710,608.57,734.39,464.45,727.26,386.26Z"/></g><g id="Forma_2138_copia_2" data-name="Forma 2138 copia 2"><path class="cls-5" d="M594.45,280.93c-88.31-19.7-269.64-16.52-365.3-3.17S80.77,303.79,77,398.94c-4,99.16,44.22,265.89,58.13,306.83,10.1,29.74,12.67,31.36,15,29.46-2.06-4.53-4.82-11.77-8.67-23.12-13.91-40.94-62.09-207.67-58.12-306.83,3.8-95.15,56.52-107.82,152.18-121.18s277-16.53,365.31,3.17c50.15,11.19,83.87,18.43,105,36.91C685.36,300.86,650,293.32,594.45,280.93ZM714.93,400c-5.9-33.4-12.85-51.41-26.21-62.45,9.38,11.33,15,28.44,19.87,56.11,13.34,75.51-38.9,286.37-44,305.77s-7.71,33.11-1.06,32.41a4.78,4.78,0,0,0,2.38-1c.24-5.78,2.25-14.57,5-25C676,686.37,728.27,475.51,714.93,400Z"/></g><g id="Forma_2326_copia" data-name="Forma 2326 copia"><path class="cls-10" d="M572.61,317.22C563,302.09,528.06,238.7,519.77,220s-31-16.56-31-16.56l-86.66-.69h-1.05l-86.66.69s-22.71-2.15-31,16.56-43.25,82.1-52.84,97.23c-3.48,5.47-36.29,8.45-36.29,8.45s3.73,9,43.33,4.93c39.21-4,145.75-10.47,164-11.25,18.23.78,124.77,7.25,164,11.25,39.6,4,43.33-4.93,43.33-4.93S576.09,322.69,572.61,317.22Z"/></g><g id="Forma_2332_copia_2" data-name="Forma 2332 copia 2"><path class="cls-11" d="M552.89,681.82c-21.59-28.65-53.13,0-72.92,13s-55.66,17.26-55.66,17.26H378.86S343,707.88,323.2,694.85s-51.33-41.68-72.92-13-13.63,34.21-4.93,26.42a40.93,40.93,0,0,0,3.49-3.71c-1.25,13.21,2.42,31.89,24.34,50.56C311,787.3,362.46,796.2,397.89,797.25v.11c1.2,0,2.44,0,3.7,0s2.49,0,3.69,0v-.11c35.43-1,86.9-10,124.71-42.16,21.92-18.67,25.59-37.35,24.34-50.56a40.93,40.93,0,0,0,3.49,3.71C566.52,716,574.47,710.47,552.89,681.82Z"/></g><g id="Forma_2328_copia" data-name="Forma 2328 copia"><path class="cls-12" d="M545,268.61l-142.87-5.94v0l-.52,0-.53,0v0l-142.87,5.94c-4.65,8.53-9.36,17-13.62,24.59,11.72-.26,52.63-1.5,61.72-6.28,4.83-2.54,3.53-10.22,3.53-10.22,30.66-1.19,65.77-.27,91.77-.31s61.1-.88,91.76.31c0,0-1.3,7.68,3.53,10.22,9.09,4.78,50,6,61.72,6.28C554.34,285.63,549.63,277.14,545,268.61Z"/></g><g id="Forma_2333_copia_3" data-name="Forma 2333 copia 3"><path class="cls-13" d="M401.59,784.31c-36.94-.49-91.9-8.47-134.75-39.35,1.93,2,4,3.93,6.34,5.9C311,783.07,362.46,792,397.89,793v.11l3.7,0,3.69,0V793c35.43-1.06,86.9-10,124.71-42.17q3.46-3,6.34-5.9C493.48,775.84,438.52,783.82,401.59,784.31Z"/></g><g id="Forma_2332_copia_2-2" data-name="Forma 2332 copia 2"><path class="cls-14" d="M550.77,689.22c-21.58-28.66-53.12,0-72.92,13s-55.66,17.26-55.66,17.26H381s-35.87-4.23-55.66-17.26-51.34-41.69-72.92-13c-7.54,13.67-10,18.12-13.11,22.21,1.65-.08,3.83-1.19,6.06-3.19,8.7-7.79,24-38,55-12.33,29.64,24.54,57.39,34.64,79.26,35.58,11.17.48,18,.47,22,.34,4,.13,10.84.14,22-.34,21.87-.94,49.62-11,79.26-35.58,31-25.63,46.26,4.54,55,12.33,2.23,2,4.41,3.11,6.06,3.19C560.76,707.34,558.31,702.89,550.77,689.22Z"/></g><g id="Forma_2329" data-name="Forma 2329"><path class="cls-15" d="M740.65,532.81l-1.06,6s-18.62,1.41-25.71,1.41-8.46-6-8.46-6-3.46-21.31-3.17-22.55c-3.1-17.46-26.42-14.09-26.42-14.09L406,495.22v-.11l-6,.06-6-.06v.11l-269.84,2.36s-23.32-3.37-26.42,14.09c.29,1.24-3.17,22.55-3.17,22.55s-1.36,6-8.46,6-25.71-1.41-25.71-1.41l-1.06-6S46,536.17,46,544.08s4.42,14.8,15.15,14.8,36.64-.36,36.64-.36,14.87.23,17.61-11.27l3.53-26.07s1.18-6,6-6H675.13c4.8,0,6,6,6,6l3.53,26.07c2.74,11.5,17.61,11.27,17.61,11.27s25.91.36,36.64.36S754,552,754,544.08,740.65,532.81,740.65,532.81Z"/></g><g id="Forma_2329_copia_2" data-name="Forma 2329 copia 2"><path class="cls-16" d="M46,544.08a15.14,15.14,0,0,0,3.7,10.52A17.32,17.32,0,0,1,48.43,548c0-6.16,8.1-9.56,11.7-10.76l-.78-4.39S46,536.17,46,544.08Zm708.08,0c0-7.91-13.39-11.27-13.39-11.27l-.78,4.39c3.6,1.2,11.7,4.6,11.7,10.76a17.32,17.32,0,0,1-1.23,6.64A15.14,15.14,0,0,0,754,544.08Zm-48.62-9.86s-3.46-21.31-3.17-22.55c-3.1-17.46-26.42-14.09-26.42-14.09L406,495.22v-.11l-6,.06-6-.06v.11l-269.84,2.36s-23.32-3.37-26.42,14.09c.29,1.24-3.17,22.55-3.17,22.55s-1.36,6-8.46,6c-5.74,0-19.06-.93-23.91-1.28l.66,3.74s18.63,1.41,25.72,1.41,8.45-6,8.45-6,3.47-21.3,3.17-22.54c3.1-17.46,26.43-14.1,26.43-14.1L400,499.06l273.36,2.39s23.33-3.36,26.43,14.1c-.3,1.24,3.17,22.54,3.17,22.54s1.36,6,8.45,6,25.72-1.41,25.72-1.41l.66-3.74c-4.85.35-18.17,1.28-23.91,1.28C706.78,540.21,705.42,534.22,705.42,534.22Z"/></g><g id="Forma_2328" data-name="Forma 2328"><path class="cls-17" d="M754,628.27c-9.37-7.2-16.56,1.06-16.56,1.06-3.39,8.16-17.26,6.34-17.26,6.34H79.78s-13.87,1.82-17.26-6.34c0,0-7.19-8.26-16.56-1.06s.36,15.15.36,15.15,4.61,10.92,34.87,10.92H718.81c30.26,0,34.87-10.92,34.87-10.92S763.4,635.48,754,628.27Z"/></g><g id="Forma_2328_copia_2" data-name="Forma 2328 copia 2"><path class="cls-16" d="M754,628.27c-9.37-7.2-16.56,1.06-16.56,1.06-3.39,8.16-17.26,6.34-17.26,6.34H79.78s-13.87,1.82-17.26-6.34c0,0-7.19-8.26-16.56-1.06-5.92,4.56-4.2,9.42-2.14,12.37-.54-2.57.14-5.59,3.91-8.49,9.36-7.2,16.55,1.06,16.55,1.06,3.39,8.15,17.26,6.34,17.26,6.34H718.46s13.87,1.81,17.26-6.34c0,0,7.19-8.26,16.55-1.06,3.77,2.9,4.45,5.92,3.91,8.49C758.24,637.69,760,632.83,754,628.27Z"/></g><g id="Forma_2326" data-name="Forma 2326"><path class="cls-17" d="M748.4,296.08c-67.69-44.14-222.8-50.39-343.11-50.71v0H394.72v0c-120.31.32-275.42,6.57-343.11,50.71C.49,329.41,26.45,408.5,44.2,464.82S63.93,583.53,63.93,583.53s24.5-4.09,28.53,1.06c0,0-6.4-65.86-22.89-113.08-22.48-64.33-27-104.93-20.43-131.75S103,300.66,103,300.66c75.34-27.35,239.53-29.12,289.58-29v.11s2.62,0,7.4-.08,7.4.08,7.4.08v-.11c50.05-.13,214.24,1.64,289.58,29,0,0,47.34,12.28,53.9,39.1s2,67.42-20.44,131.75c-16.49,47.22-22.89,113.08-22.89,113.08,4-5.15,28.53-1.06,28.53-1.06s2-62.39,19.73-118.71S799.51,329.41,748.4,296.08Z"/></g><g id="Forma_2326_copia_2" data-name="Forma 2326 copia 2"><path class="cls-16" d="M748.4,296.08c-67.69-44.14-222.8-50.39-343.11-50.71v0H394.72v0c-120.31.32-275.42,6.57-343.11,50.71C.49,329.41,26.45,408.5,44.2,464.82S63.93,583.53,63.93,583.53s1.59-.26,4-.57c-.82-15.22-4.58-66.89-19.52-114.27C30.67,412.38,4.72,333.28,55.83,300c67.89-44.27,223.71-50.42,344.17-50.71,120.46.29,276.28,6.44,344.17,50.71,51.11,33.33,25.16,112.43,7.4,168.74-14.94,47.38-18.7,99.05-19.52,114.27,2.43.31,4,.57,4,.57s2-62.39,19.73-118.71S799.51,329.41,748.4,296.08Z"/></g><g id="Forma_2327" data-name="Forma 2327"><path class="cls-17" d="M770.59,327.43c-14.06-6-16.55,3.17-16.55,3.17-41.92,89.6-54.63,115.34-87,209.25-28,81.14-17.94,132.26-39.8,161.34C607.3,727.69,454.58,728,407,727.5v-.24s-2.53.07-7.05.14-7.05-.14-7.05-.14v.24c-47.54.54-200.26.19-220.18-26.31C150.92,672.11,161,621,133,539.85,100.59,445.94,87.88,420.2,46,330.6c0,0-2.49-9.2-16.55-3.17-10.16,4.36-3.18,15.69.35,20.79s62.65,129.86,89.48,218c24,78.94,8.35,118.89,37.69,149.37,24.51,25.46,78.31,31.07,236.73,31.34h12.68c158.42-.27,212.22-5.88,236.73-31.34,29.34-30.48,13.68-70.43,37.69-149.37,26.83-88.19,86-212.95,89.48-218S780.75,331.79,770.59,327.43Z"/></g><g id="Forma_2327_copia_2" data-name="Forma 2327 copia 2"><path class="cls-16" d="M124.17,569.09C97.35,480.9,38.22,356.13,34.69,351s-10.51-16.42-.35-20.78c4.6-2,8-2.31,10.4-1.88-1.81-2.27-6.05-4.92-15.33-.94-10.16,4.36-3.18,15.69.35,20.79s62.65,129.86,89.48,218c24,78.94,8.35,118.89,37.69,149.37a58.74,58.74,0,0,0,15.58,11.42,56.4,56.4,0,0,1-10.65-8.6C132.53,688,148.18,648,124.17,569.09ZM770.59,327.43c-9.28-4-13.52-1.33-15.33.94,2.44-.43,5.8-.1,10.4,1.88,10.16,4.36,3.17,15.68-.35,20.78S702.65,480.9,675.83,569.09c-24,78.94-8.36,118.88-37.69,149.37a56.4,56.4,0,0,1-10.65,8.6,58.58,58.58,0,0,0,15.58-11.42c29.34-30.48,13.68-70.43,37.69-149.37,26.83-88.19,86-212.95,89.48-218S780.75,331.79,770.59,327.43ZM407,727.5v-.24s-2.53.07-7.05.14-7.05-.14-7.05-.14v.24c-42.78.49-170.75.25-210.44-19.11,33.11,22.52,175.12,22.44,217.48,21.9,42.36.54,184.37.62,217.48-21.9C577.79,727.75,449.82,728,407,727.5Z"/></g><g id="Forma_2335" data-name="Forma 2335"><path class="cls-18" d="M117.48,608.19c-5.82,0-14.87,1.66-15.15-12.33s8.45-11.27,8.45-11.27,8.15,1.66,7.4-10.21-4.94-17.92-11.62-15.86S56.91,557.9,53,555.71c0,0-18.43-6-20.78,6s6.87,24,4.58,41.22,19.08,21.18,25.36,21.14c0,0,5.1,6.75,12,6.69s19.67,1.3,25-1.76c0,0,17.33,7.22,19.73-.35S123.29,608.24,117.48,608.19Z"/></g><g id="Forma_2341" data-name="Forma 2341"><path class="cls-18" d="M275.29,198.85s-25.05-2.75-28.53,39.46l-.7,12s-7.43,5.08-3.53,27.13c0,0-3.85,6.75,2.47,7s40.1,2,47.91-2.81,8.1-8.46,8.1-8.46-3.73-11.41,3.52-26.07C304.53,247.11,322.1,198.73,275.29,198.85Z"/></g><g id="Forma_2341_copia_2" data-name="Forma 2341 copia 2"><path class="cls-19" d="M275.29,198.85a14.51,14.51,0,0,0-2.75.07c43.17,1.84,26.36,48.19,26.36,48.19-7.25,14.66-3.53,26.07-3.53,26.07s-.29,3.62-8.1,8.46c-4,2.48-14.86,3.23-25.33,3.34,11.93.11,26.23-.41,31-3.34,7.81-4.84,8.1-8.46,8.1-8.46s-3.73-11.41,3.52-26.07C304.53,247.11,322.1,198.73,275.29,198.85Z"/></g><g id="Elipse_2145" data-name="Elipse 2145"><path class="cls-19" d="M271.93,209.78c-10.34,4.12-15.17,17.66-14.1,28.39s7.81,19.29,16.27,19.83c9.28.59,20-8.9,20.56-25.17C295.16,216,283.45,205.18,271.93,209.78Z"/></g><g id="Elipse_2145_copia" data-name="Elipse 2145 copia"><path class="cls-20" d="M264.73,207.24c-10.87,2.84-15.58,16-13.73,26.9,1.81,10.57,9.45,18.61,18,18.91,8.95.31,18.37-8.17,18.39-22.39C287.44,215.65,276.41,204.18,264.73,207.24Z"/></g><g id="Elipse_2145_copia_2" data-name="Elipse 2145 copia 2"><path class="cls-21" d="M261.71,211.14c-8.71,1.32-13.77,10.76-12.49,20,1.23,8.94,8,15.83,15.66,15.92,7.83.08,15.1-7.15,14.78-17.89C279.32,218.32,270.87,209.74,261.71,211.14Z"/></g><g id="Elipse_2145_copia_3" data-name="Elipse 2145 copia 3"><path class="cls-22" d="M256.12,211.07c-9.07,1.52-14.32,11.75-13,21.25,1.18,8.7,7.54,15.05,14.74,15s14.68-6.86,15.23-17.32C273.64,218.78,265.68,209.47,256.12,211.07Z"/></g><g id="Elipse_2145_copia_4" data-name="Elipse 2145 copia 4"><path class="cls-23" d="M253.11,216.6c-5.55,1.91-8.51,9.26-7.61,15.72.84,6.06,4.91,10.49,9.6,10.33,5-.18,10-5.66,10-13.72C265.11,220.44,259.29,214.48,253.11,216.6Z"/></g><g id="Forma_2151" data-name="Forma 2151"><path class="cls-21" d="M254.2,216.45a14,14,0,0,0,.81,18,17.21,17.21,0,0,1,3.47-17.57A8.39,8.39,0,0,0,254.2,216.45Zm8.81,5.39s-7.33,6.93-.47,15.37C262.54,237.21,267.51,232.06,263,221.84Z"/></g><g id="Forma_2150" data-name="Forma 2150"><path class="cls-5" d="M261.51,215.79s8.19,8.4,5.78,18.78C267.29,234.57,276.34,221.11,261.51,215.79ZM283,217.9c-4.28-9.37-12.56-8.36-12.56-8.36s6.92.54,10.39,10.81,1.52,17.83,1.52,17.83S287.21,227.24,283,217.9Z"/></g><g id="Forma_2338" data-name="Forma 2338"><path class="cls-24" d="M35,576.14c5.71,18.24,3.88,32.05,3.88,32.05s3.7-5.25-.71-33.46c-2.25-14.44,3.53-17.62,3.53-17.62S29.34,557.9,35,576.14Zm37.7,18.32c-1.84-23.34-9.32-33.49-9.51-32.41s7.32,52.13,7.75,62C71,624.05,74.57,617.79,72.74,594.46Z"/></g><g id="Forma_2336" data-name="Forma 2336"><path class="cls-25" d="M61.46,611.36c-.13.8-.73,7.88-1.1,12.61.69.06,1.3.08,1.81.08a19.88,19.88,0,0,0,2.54,2.64C63.65,621.1,61.6,610.55,61.46,611.36ZM53,555.71a33,33,0,0,0-4-1c2.79,13,11.08,53.09,11.08,53.09s-1.18-34.68-4-51.31A12.43,12.43,0,0,1,53,555.71Zm-6,23.6s1.91,17,3.17,20.43,3.13,7.54,3.88,1.41-.69-15.39-2.47-21.84S47,579.31,47,579.31Zm50.73,27.83c.83,3.53.39,16.54.14,22.43a10.63,10.63,0,0,0,1.27-.59s1.24.51,3.09,1.12C101.65,622.8,97.75,607.14,97.75,607.14ZM96.6,559.26c-1.46,0-3,0-4.64,0,1.63,7.68,3.76,18.09,4.38,22.55C96.24,580.73,97.39,570.38,96.6,559.26Z"/></g><g id="Forma_2335-2" data-name="Forma 2335"><path class="cls-18" d="M767.77,561.69c-2.35-11.93-20.78-6-20.78-6-3.9,2.19-46.86,4.87-53.55,2.81s-10.87,4-11.62,15.86,7.4,10.21,7.4,10.21,8.74-2.71,8.45,11.27-9.33,12.29-15.15,12.33-3.8,12.86-1.41,20.44,19.73.35,19.73.35c5.34,3.06,18.14,1.7,25,1.76s12-6.69,12-6.69c6.28,0,27.66-3.91,25.36-21.14S770.13,573.63,767.77,561.69Z"/></g><g id="Forma_2341-2" data-name="Forma 2341"><path class="cls-18" d="M557.47,277.41c3.9-22.05-3.53-27.13-3.53-27.13l-.7-12c-3.48-42.21-28.54-39.46-28.54-39.46-46.8-.12-29.23,48.26-29.23,48.26,7.25,14.66,3.52,26.07,3.52,26.07s.29,3.62,8.1,8.46,41.59,3.1,47.91,2.81S557.47,277.41,557.47,277.41Z"/></g><g id="Forma_2341_copia_2-2" data-name="Forma 2341 copia 2"><path class="cls-19" d="M512.73,281.64c-7.81-4.84-8.1-8.46-8.1-8.46s3.72-11.41-3.53-26.07c0,0-16.81-46.35,26.36-48.19a14.63,14.63,0,0,0-2.76-.07c-46.8-.12-29.23,48.26-29.23,48.26,7.25,14.66,3.52,26.07,3.52,26.07s.29,3.62,8.1,8.46c4.74,2.93,19,3.45,31,3.34C527.59,284.87,516.74,284.12,512.73,281.64Z"/></g><g id="Elipse_2145-2" data-name="Elipse 2145"><path class="cls-19" d="M528.07,209.78c-11.52-4.6-23.23,6.21-22.73,23.05.51,16.27,11.28,25.76,20.56,25.17,8.46-.54,15.2-9.06,16.27-19.83S538.41,213.9,528.07,209.78Z"/></g><g id="Elipse_2145_copia-2" data-name="Elipse 2145 copia"><path class="cls-20" d="M535.27,207.24c-11.68-3.06-22.71,8.41-22.7,23.42,0,14.22,9.44,22.7,18.39,22.39,8.59-.3,16.23-8.34,18-18.91C550.85,223.28,546.14,210.08,535.27,207.24Z"/></g><g id="Elipse_2145_copia_2-2" data-name="Elipse 2145 copia 2"><path class="cls-21" d="M538.29,211.14c-9.16-1.4-17.61,7.18-17.95,18.07-.32,10.74,6.95,18,14.78,17.89,7.65-.09,14.43-7,15.66-15.92C552.06,221.9,547,212.46,538.29,211.14Z"/></g><g id="Elipse_2145_copia_3-2" data-name="Elipse 2145 copia 3"><path class="cls-22" d="M543.88,211.07c-9.56-1.6-17.52,7.71-16.93,19,.55,10.46,7.9,17.28,15.23,17.32s13.56-6.32,14.74-15C558.2,222.82,553,212.59,543.88,211.07Z"/></g><g id="Elipse_2145_copia_4-2" data-name="Elipse 2145 copia 4"><path class="cls-23" d="M546.89,216.6c-6.18-2.12-12,3.84-12,12.33,0,8.06,5,13.54,10,13.72,4.69.16,8.76-4.27,9.6-10.33C555.4,225.86,552.44,218.51,546.89,216.6Z"/></g><g id="Forma_2151-2" data-name="Forma 2151"><path class="cls-21" d="M537,221.84c-4.5,10.22.47,15.37.47,15.37C544.32,228.77,537,221.84,537,221.84Zm8.81-5.39a8.39,8.39,0,0,0-4.28.46A17.21,17.21,0,0,1,545,234.48,14,14,0,0,0,545.8,216.45Z"/></g><g id="Forma_2150-2" data-name="Forma 2150"><path class="cls-5" d="M517.05,217.9c-4.26,9.34.65,20.28.65,20.28s-1.91-7.67,1.52-17.83,10.39-10.81,10.39-10.81S521.33,208.53,517.05,217.9Zm21.44-2.11c-14.83,5.32-5.78,18.78-5.78,18.78C530.3,224.19,538.49,215.79,538.49,215.79Z"/></g><g id="Forma_2338-2" data-name="Forma 2338"><path class="cls-24" d="M727.26,594.46c-1.83,23.33,1.76,29.59,1.76,29.59.43-9.87,8-60.93,7.75-62S729.1,571.12,727.26,594.46Zm31-37.35s5.78,3.18,3.53,17.62c-4.41,28.21-.71,33.46-.71,33.46s-1.83-13.81,3.88-32.05S758.26,557.11,758.26,557.11Z"/></g><g id="Forma_2336-2" data-name="Forma 2336"><path class="cls-25" d="M735.29,626.69a19.88,19.88,0,0,0,2.54-2.64c.51,0,1.12,0,1.81-.08-.37-4.73-1-11.81-1.1-12.61S736.35,621.1,735.29,626.69Zm-31.63-44.92c.62-4.46,2.75-14.87,4.38-22.55-1.63,0-3.18,0-4.64,0C702.61,570.38,703.76,580.73,703.66,581.77Zm-5.91,48.33c1.85-.61,3.09-1.12,3.09-1.12a10.63,10.63,0,0,0,1.27.59c-.25-5.89-.69-18.9.14-22.43C702.25,607.14,698.35,622.8,697.75,630.1ZM747,555.71a12.43,12.43,0,0,1-3.09.82c-2.78,16.63-4,51.31-4,51.31s8.29-40.13,11.08-53.09A33,33,0,0,0,747,555.71Zm1.41,23.6c-1.78,6.45-3.22,15.71-2.47,21.84s2.61,2,3.88-1.41S753,579.31,753,579.31,750.17,572.86,748.4,579.31Z"/></g></svg>