<svg id="Assets" xmlns="http://www.w3.org/2000/svg" viewBox="0 0 800 800"><defs><style>.cls-1{opacity:0.79;}.cls-2{fill:#4e4644;}.cls-3{opacity:0.34;}.cls-4{fill:#fff;}.cls-5{fill:#373737;}.cls-6{fill:#6d6d6d;}.cls-7{fill:#fbe200;}.cls-8{fill:#fffa80;}.cls-9{fill:#f5ae00;}</style></defs><g id="Forma_561_copia_2" data-name="Forma 561 copia 2" class="cls-1"><path class="cls-2" d="M262.85,389.91c-42.52-1.49-82.38.25-93.5,23.69S168.06,538,240.57,542.07c61.6,3.48,82-20.08,82-20.08s25-21.32,26.26-87.92C349.54,395.84,305.37,391.41,262.85,389.91Z"/></g><g id="Forma_561_copia" data-name="Forma 561 copia" class="cls-1"><path class="cls-2" d="M607,408.16c-10.29-25.15-47.19-27-86.55-25.42s-80.24,6.36-79.55,47.4c1.21,71.48,24.31,94.36,24.31,94.36S484,549.78,541,546.05C608.15,541.64,617.24,433.32,607,408.16Z"/></g><g id="Forma_6421" data-name="Forma 6421" class="cls-3"><path class="cls-4" d="M215.93,458.36c10.84-36.42,59.23-52.83,59.23-52.83C212.57,415.37,215.58,438.94,215.93,458.36Zm300.15-44c-15.83,6.57-19.59,11.66-25.61,11.2s-19.21-11.2-19.21-11.2-14.84,5.32-14.41,32c.56,34.33,23.21,61.64,23.21,61.64,14.6-11.62,27.22-15.21,27.22-15.21-8.42-54.15,39.32-75.18,40-76.84C540.42,408.9,531.91,407.76,516.08,414.34Z"/></g><g id="Forma_6421-2" data-name="Forma 6421"><path class="cls-4" d="M461.66,430.35c-6.66,11.55-5.61,23-1.61,26.41,3.77,3.16,20.19,1.94,26.42-16.81C494,417.27,471.91,412.53,461.66,430.35Z"/></g><g id="Forma_6421_copia" data-name="Forma 6421 copia"><path class="cls-4" d="M252.71,422.85c-6.34-4-17.4-3.31-24.87,10.71-6.28,17.81-1.13,26.79,3.71,29.36,5.06,2.55,19.25,2.23,26.84-17.19C261.32,435.9,259.38,427,252.71,422.85Z"/></g><g id="Forma_6422" data-name="Forma 6422"><path class="cls-5" d="M720.19,468.77s-1.67-60.6-8.81-84.85c-4.15-19-8.19-19.59-18.41-23.21s-32.63-7.11-44.82-7.2-11.34,2.21-15.21,12.8-11.21,39.95-15.2,42.43c0,0-7.1-29.48-29.62-44.83-21.3-14.52-51.61-27.56-117.66,7.21,0,0-13.39,11-51.23,12.8s-65.07-3.48-96.85-13.6-81.22-14.34-129.66,12c-7.59,4.13-20.78-6.18-31.22-9.6s-33.74-8.54-45.62-6.41c-25.18,4.54-49.25,20.5-55.23,28-4.14,5.2-1.37,9,1.6,16S74.31,433.43,79.86,440s9.91,7.95,15.21,4,9-1.18,4.8,4S74,476.41,65.45,490.38s-7.6,17.43-7.2,28.81,6.22,26.21,8.8,29.62,9.75,4.74,24.81,6.4,76.22-.33,88.85-2.4S198,541.21,197.52,532c0,0,28.51,27.26,88,23.21s80.7-50.16,86.45-90.45c5.37-37.57,20.69-33.67,28-33.61,17.24.12,20.46-4.67,25.62,35.21s22.42,94.91,86.44,96.85,84-5.6,84-5.6,7.27-.54,11.2-15.21c2.38-8.87,9.25-7,14.41-7.2s18.61.8,28-.8c0,0-3.37,21.72,20,22.41s32.7.87,39.22-4.8,9.73-14.38,8-27.21c0,0,17.83,2.91,19.21-17.61S737.44,469.77,720.19,468.77ZM348,476c-4.65,30.88-37.07,57.44-86.45,56s-67.9-58.78-68.83-80,26.87-45.45,33.61-51.23,62.7-11.47,82.45-5.6C341.67,404.9,352.65,445.09,348,476Zm206.5,13.61C543.26,498.82,483.27,532,483.27,532c-24.12-10.22-35.55-51-38.42-89.65s29.61-46.42,29.61-46.42c-12.92.19,56.64-17.23,64.84-16s26.08,12.62,29.61,16.81,13.61,40,13.61,40S565.75,480.33,554.5,489.58Z"/></g><g id="Forma_6422-2" data-name="Forma 6422"><path class="cls-6" d="M115.88,366.31c-25.18,4.54-49.25,20.5-55.23,28-4.14,5.2-1.37,9,1.6,16S74.31,433.43,79.86,440c4.55,5.35,8.3,7.26,12.42,5.61-2.3-1.71-6.65-7.65-18-25.62-15.33-24.21-2.52-30.1,7.2-36,11-6.72,33.31-14.36,57.24-16.58C130.26,366,121.7,365.27,115.88,366.31ZM101.5,445.06a8.7,8.7,0,0,1-1.63,2.9c-4.15,5.18-25.89,28.45-34.42,42.42s-7.6,17.43-7.2,28.81,6.22,26.21,8.8,29.62c1,1.31,2.67,2.31,5.21,3.14-3.11-6.19-6.13-17.89-6.81-40.76C65,494.82,84,477.8,90.26,470.37,95.77,463.81,111.75,446.21,101.5,445.06ZM420,436.75c-.29-.12-.57-.22-.85-.31,2.56,4.76,4.34,13.59,6.46,29.92,3.68,28.45,13.52,64.59,42.09,83.69-16-17.65-29.59-53.72-32.49-82.08C431.53,431.6,420,436.75,420,436.75Zm50.43-65.63s-13.39,11-51.23,12.8-65.07-3.48-96.85-13.6-81.22-14.34-129.66,12a9.57,9.57,0,0,1-6.08.8c4.62,4,11.1,6.51,19.68,3.2,20.27-7.8,65.66-28.23,131.27-4.8,16,5.7,27.5,25.35,31.22,28.82,5.57,5.21,8.69,7,14.41-6.41,4-9.48,4-10.22,17.6-9.6s36.63-2.06,49.63-6.41c31.25-10.43,66.09-45.15,131.27-28l-.08-.14C560.6,347.31,530.1,339.73,470.46,371.12ZM693,360.71c-10.16-3.6-32.63-7.11-44.82-7.2s-11.34,2.21-15.21,12.8-11.21,39.95-15.2,42.43c0,0,6.27,11.18,12-7.21,7.61-24.39,6-41.89,24-41.62,12.19.18,36,3.35,53.19,10.17C703.77,364.17,699.72,363.1,693,360.71Z"/></g><g id="Forma_6417" data-name="Forma 6417"><path class="cls-7" d="M163.9,494.38,130.28,496s24.88-31.73,31.22-44c5.56-10.78,22.06-60.79-16.81-71.24-41.48-11.16-65.09,12.39-69.63,17.61s-.8,9.6-.8,9.6,7,12.95,13.6,20c4.94,5.27,5.89,5,9.61,0s16.1-9.19,20.81-4,2.52,14.14-.8,21.61-38.46,52.62-40.82,56-2.32,6.32-2.4,9.61S76.64,532,77.46,536s3.77,5.4,8.8,5.6,83.53.3,85.65,0,3.18-1.55,3.2-6.4-3.39-33.31-4-37.62S163.9,494.38,163.9,494.38Zm426.62-29.62c9.86-23.51,10.33-66-20-89.64-39.26-30.57-91,3.64-100.05,11.2-6.95,5.83-11.26,12.12-4.8,18.41s16.63,12.73,19.21,14.41,6.93,6.59,15.21-1.6,36.64-26.18,58.43,1.6c19.37,24.71-4.73,48.27-16.81,57.63s-48,26.29-60,35.22-9.48,12.43-9.61,16.81-.17,17.5,11.21,19.21c11.17,1.68,68.43,4.24,90.44,2.4,17.1-1.43,16-10.57,16.81-14.41s1.06-20.4,0-24.81-4.91-6.87-9.6-6.41-30.13,1.54-28.82.81S580.67,488.28,590.52,464.76ZM276,378.32c-40.09-.54-77.53,16.33-92,47.22-8.53,18.15-7.49,63.29,20,92.05s106.57,39.59,136.07,4,29.52-90.37,15.21-107.25S316.05,378.86,276,378.32ZM312,512c-23.7,13.07-79.85,16.2-96.85-20.81-13.44-29.25-2.88-56.25,0-62.43,9.88-21.22,39.16-26.34,56.83-27.22s51.08,5.26,60,27.22C341.16,451.24,335.68,498.91,312,512Zm413-28.82c-.85-7.72-5-6.41-5.6-6.4s-13.61-.8-13.61-.8c.34-15.72-7.12-83.7-7.2-90.45s-7-9.7-8.81-10.4-25.46-6.1-34.41-7.21-10.94,5-11.21,8.81c-1,14.12-33.49,103.84-36.82,112.86s-2.82,15.29-1.6,24.81,9.76,7.13,15.21,7.2c6.64.09,40.82-1.6,40.82-1.6s.07,10.68,0,16,.71,10.65,8.8,11.21,29.62-.8,29.62-.8,5.23,1.4,5.6-6.41,0-24,0-24a115.26,115.26,0,0,0,12.81-.8c5.93-.79,7.2-4.8,7.2-4.8S725.84,490.88,725,483.17Zm-80.84-4.8c5-10.43,18.41-43.22,18.41-43.22l2.4,43.22C658.91,478.08,644.15,478.37,644.15,478.37Z"/></g><g id="Forma_6418" data-name="Forma 6418"><path class="cls-8" d="M312,512a65.66,65.66,0,0,1-14.14,5.54c20,.24,38.09-19.22,43.75-44,4.4-19.21-.72-30.83-7.78-39.33C340.23,458.24,333.89,499.9,312,512ZM285.63,378.83c-3.12-.28-6.34-.47-9.67-.51-40.09-.54-77.53,16.33-92,47.22-8.53,18.15-7.49,63.29,20,92.05.55.57,1.12,1.13,1.7,1.68-9.73-19.61-27.62-62.82-12.9-91.32C206.94,400.4,250.67,381.84,285.63,378.83ZM75.06,398.33c-4.54,5.22-.8,9.6-.8,9.6s7,12.95,13.6,20c4.18,4.46,5.51,4.95,8.07,2-3.61-5.92-9.37-15.12-12.07-18s-8.61-8.35,5.6-18.41c14-9.93,38.78-12.64,53.05-13.37C102.38,370.39,79.52,393.2,75.06,398.33Zm44,26.63c3.63,5.28,1.52,13.59-1.6,20.59-3.33,7.48-38.46,52.62-40.82,56s-2.32,6.32-2.4,9.61S76.64,532,77.46,536c.67,3.28,2.8,4.82,6.33,5.37-1-7.11-2.68-19-3.13-25.38-.67-9.57,3.07-18,22.41-38.42s30.43-32.63,24.81-47.22C126.18,425.93,122.87,424.63,119.08,425Zm549.08,12.59c-1.79-3.1-3.68-.36-5.27,3.63L665,478.37c-4.43-.22-13.52-.11-18.08-.05-.63,1.09-1.27,2.17-1.93,3.25,6,3.22,27.21-1.6,27.21-1.6C673,474.48,671.88,444,668.16,437.55Zm.8,85.64c-.32-1.7-3.17-2.05-7.19-1.67,0,3.15,0,10.39,0,14.48-.07,5.33.71,10.65,8.8,11.21.84,0,1.83.09,2.91.11C668.36,540.54,669.7,527.12,669,523.19Zm-2.31-153.31c-4.44-.89-8.56-1.63-11.29-2-9-1.1-10.94,5-11.21,8.81-1,14.12-33.49,103.84-36.82,112.86s-2.82,15.29-1.6,24.81c.8,6.22,4.72,7.36,8.87,7.42-1.46-8.67-2.94-22.23.73-28.23,5.62-9.17,12.37-33,20.82-58.43,6.87-20.69,15.68-58.76,16.8-60.83C653.43,373.44,659.78,371.45,666.65,369.88ZM549.82,410.57a45.13,45.13,0,0,1,8.69,8.57c19.37,24.71-4.73,48.27-16.81,57.63s-48,26.29-60,35.22-9.48,12.43-9.61,16.81c-.11,4-.16,15.16,8.35,18.46-1.24-6.87-2.75-17.23-1.15-20.06,2.46-4.35,12.86-10.77,21.62-15.21s63.24-37.07,68.83-59.23C574.15,435.17,566.29,413.29,549.82,410.57Zm-50.93,8.07c-6.85-5-27.88-17.39-27.63-21.11.33-4.89,8.08-13.73,22.41-20.81a235.31,235.31,0,0,1,36.21-14c-27.94,1.37-53.35,18.51-59.42,23.6-6.95,5.83-11.26,12.12-4.8,18.41s16.63,12.73,19.21,14.41S491.38,425.25,498.89,418.64Z"/></g><g id="Forma_6419" data-name="Forma 6419"><path class="cls-9" d="M712.18,483.17s-11.9.12-10.4,0c0,0-2.46-59.26-7.2-87.24-3.61-21.28-10.65-17.09-20-18.41,0,0-4.71-2.25-8,7.2s-22.31,68.07-35.22,90.45c0,0-4.2,2.29-4,12s.51,20,11.21,20,34.55.59,39.22-1.6c0,0,1.09,12.59.8,21.61s-2.2,15.16,6.4,15.2c6.28,0,15,0,20.75-1.6,0-.25,0-.52.06-.8.37-7.81,0-24,0-24s2,0,4.82-.13a59.28,59.28,0,0,0,0-7.07c3.15.1,8.61.71,8.81-8S721.53,483.21,712.18,483.17Zm-68-4.8c5-10.43,18.41-43.22,18.41-43.22l2.4,43.22C658.91,478.08,644.15,478.37,644.15,478.37ZM168.33,430.58c3.55-18.73,2.07-42.95-23.64-49.86a81,81,0,0,0-24.55-2.9c6,4.59,13.44,11.34,19,19.71,10.68,16.24-9,62.32-36,100.05-7.29,10.2-6.84,13.22-6.4,19.21s2.5,13.87,8,15.21c7.55,1.84,52,.79,59.23-.8s4.09-19.47,1.6-24.81a8.28,8.28,0,0,0-8-4.81s-35.29,4.68-31.22,0c.53-.61,2-2.59,4.11-5.6h-.11l.9-1.15C139.91,482.22,157.76,454.61,168.33,430.58Zm166.86-23.45c-21-13.3-56-15.35-68.84-14.4-15.06,1.1-69.42,17.27-66.43,68s32,83.53,96.85,75.24S378,434.3,335.19,407.13ZM312,512c-23.7,13.07-79.85,16.2-96.85-20.81-13.44-29.25-2.88-56.25,0-62.43,9.88-21.22,39.16-26.34,56.83-27.22s51.08,5.26,60,27.22C341.16,451.24,335.68,498.91,312,512ZM570.51,375.12a57.93,57.93,0,0,0-21.07-10.49c-8.75-.15-20.34,1.33-35,6.49-5.43,1.91,2.4,11.2,2.4,11.2l5.61,8.81s1.8,6.5,10.4,4,45.67,5.77,37.62,49.62c-6,32.84-72,69.64-72,69.64s-4.11,3-3.2,13.61l1.6,6.4s1.21,7.3,15.21,7.2,62.43-.8,62.43-.8,8.67.35,9.61-8,1.6-12,1.6-12,.94-6.34-6.4-7.2-37.55,1.6-36-.8c.52-.82,5-3.22,11.19-7-1.71,0-2.67-.09-2.39-.24,1.32-.74,28.57-17.31,38.42-40.83S600.85,398.74,570.51,375.12Z"/></g><g id="Forma_6419-2" data-name="Forma 6419"><path class="cls-4" d="M310.38,516.79s27.18-5.09,31.21-47.22C341.59,469.57,333.66,502.49,310.38,516.79ZM79.86,406.33c-2.46-9.95,39-22.09,43.22-24-11.55.45-28.2,4.29-38.42,11.21S79.86,406.33,79.86,406.33Zm108.05,52.83c2.6-19,1.63-31.32,20-48.82s58.43-28,58.43-28c-21.56,2.23-46.56,11.34-64,26.42S185.52,446.54,187.91,459.16Zm-72,2.4C106.64,470.8,84.66,496,84.66,496s-5.29,5.21-5.6,12,1.41,19.91,3.2,25.61c.19-2.34,0-24,0-24s.55-4.11,4.8-9.61S125.12,452.33,115.88,461.56Zm493.85,44.83c.21,6,0-8.08,4-15.21s37.68-74.79,38.42-113.66C643.76,405,635.8,435.74,612.93,484,606.27,498,609.52,500.39,609.73,506.39Zm60-57.63c-4.24-17.23.94,27.09.8,30.41C670.56,479.17,675.5,472,669.76,448.76Zm-192.9-58.43c7-7.18,33.62-20,33.62-20-8.2,2.52-23.14,8.5-32,14.4s-11.19,10.27-8.8,15.21c1.11,2.3,11.21,8.81,11.21,8.81C472.19,399.63,469.87,397.51,476.86,390.33Zm29.62,116.86c-32.38,17.65-27.23,19.91-26.42,34.41.61-2.67.75-7.14,2.41-10.4s3.58-7.67,13.6-12.81,64.85-35.55,73.64-70.43C570.33,445.5,562.55,476.62,506.48,507.19Z"/></g></svg>