<svg id="Assets" xmlns="http://www.w3.org/2000/svg" viewBox="0 0 800 800"><defs><style>.cls-1{fill:#ff5129;}.cls-2{fill:#723728;}.cls-3{fill:#f9d9b5;}.cls-4{fill:#d4b589;}.cls-5{fill:#e84620;}.cls-6{fill:#ffaa85;}.cls-7{fill:#ffa94d;}.cls-8{fill:#c1320f;}.cls-9{fill:#923823;}.cls-10{fill:#732613;}.cls-11{fill:#331212;}.cls-12{fill:#1d0502;}.cls-13{fill:#b34e37;}.cls-14{opacity:0.86;}.cls-15{fill:#fff;}</style></defs><g id="Forma_6779" data-name="Forma 6779"><path class="cls-1" d="M213.55,153.45C170.31,119,71.16,46.15,62.54,166.07S110.17,378.5,167.17,408.36c0,0,11.87-136.17,123.19-194.43C290.36,213.93,256.79,187.93,213.55,153.45Z"/></g><g id="Forma_6782" data-name="Forma 6782"><path class="cls-2" d="M190.89,136.19C165.57,118,133.47,99,107.62,99.87c-3.59-3.19-8.56-8.49-9.83-14.32,0,0-6.63,6.17-2.77,16.6l-.55.2c-2.93-1.14-14-5.67-17.09-10.49,0,0-4.93,4.52,5.32,17.68-.51.47-1,.95-1.51,1.45-3.93.2-11.64,0-16.79-3.54,0,0-1,7.4,9.61,13.15-6,10.37-10,25.15-11.47,45.47a328.2,328.2,0,0,0,2.59,71.81c1.27,2.06,2.63,3.47,4.09,3.88,6.27,1.78,3.34-9.28,3.34-9.28s5.89,5.55,11.5,7.05c7.63,2.05,5.94-20.4,5.94-20.4s54-65.13,62-60.85,7.79-7.79,7.79-7.79c4.58,1.11,1.49-8.91,1.49-8.91s8.63,10,8.9,4.08-.85-11.55-.74-12.61C173.63,136.08,181.9,137.58,190.89,136.19Z"/></g><g id="Forma_6780" data-name="Forma 6780"><path class="cls-3" d="M190.55,195.75C161.73,165.94,83.15,70.19,72.19,169s53.4,198.75,90.9,218.54c0,0,11-92.64,65.68-129.86C228.77,257.72,219.37,225.56,190.55,195.75Z"/></g><g id="Forma_6781" data-name="Forma 6781"><path class="cls-4" d="M124.88,201.32s5.09,49.47,76.83,83.14a130.13,130.13,0,0,1,8.88-10.86C187.59,260.23,145.23,236.39,124.88,201.32Zm-4.46,71.24s14.85,31.09,67.16,35.06a175.18,175.18,0,0,1,10.18-17.52C179.36,293,142.77,295.28,120.42,272.56Zm70.13-76.81C167.62,172,113.23,106.62,86.41,130.58c8.15-.89,21,1.43,38.09,16.2,28.14,24.36,62.51,54.89,93.19,119.73a99.2,99.2,0,0,1,11.08-8.79S219.37,225.56,190.55,195.75Z"/></g><g id="Forma_6779-2" data-name="Forma 6779"><path class="cls-1" d="M586,154.84c-46.15,30.43-81.91,53.29-81.91,53.29,105.52,68.08,105,204.76,105,204.76C668.59,388.3,732.94,301.26,735.2,181.05S632.2,124.41,586,154.84Z"/></g><g id="Forma_6782-2" data-name="Forma 6782"><path class="cls-2" d="M738.66,122.5c-5.45,3.1-13.14,2.56-17,2-.44-.54-.9-1.07-1.37-1.57,11.4-12.19,6.89-17.13,6.89-17.13-3.53,4.51-14.93,8-17.95,8.9l-.53-.25c4.78-10-1.26-16.78-1.26-16.78-1.78,5.69-7.21,10.52-11.08,13.37-25.64-3.2-59.31,12.79-86.16,28.64,8.83,2.2,17.19,1.45,21.68-1.18,0,1.07-1.62,6.55-1.88,12.49s9.23-3.26,9.23-3.26-4,9.7.67,9c0,0-1.22,12,7,8.46s56.17,66.2,56.17,66.2-3.71,22.21,4.06,20.86c5.72-1,12.09-6,12.09-6s-3.92,10.75,2.48,9.54c1.49-.28,3-1.56,4.42-3.5a327.42,327.42,0,0,0,9.07-71.28c.39-20.36-2.32-35.45-7.3-46.32C739,130,738.66,122.5,738.66,122.5Z"/></g><g id="Forma_6780-2" data-name="Forma 6780"><path class="cls-3" d="M725.33,183.14c-2-99.43-88.83-11.18-120.22,15.9s-43.64,58.26-43.64,58.26c51.09,42,53.62,135.27,53.62,135.27C654.21,376.25,727.31,282.57,725.33,183.14Z"/></g><g id="Forma_6781-2" data-name="Forma 6781"><path class="cls-4" d="M578.13,274.76A130.75,130.75,0,0,1,586,286.38c74.44-27.05,84-75.86,84-75.86C646.54,243.61,602.23,263.52,578.13,274.76Zm11.27,17.59A174.24,174.24,0,0,1,598,310.72c52.42.78,70-28.85,70-28.85C643.67,302.48,607.46,296.94,589.4,292.35ZM605.11,199c-31.38,27.09-43.64,58.26-43.64,58.26a99.48,99.48,0,0,1,10.24,9.76c36.39-61.81,73.36-89.1,103.57-110.82,18.3-13.16,31.35-14.31,39.38-12.69C690.14,117.27,630.08,177.5,605.11,199Z"/></g><g id="Forma_6773_copia" data-name="Forma 6773 copia"><path class="cls-1" d="M746.73,576.81c-.63-46.29-45.59-73.9-66.78-103.52-47-65.63-10.5-135.18-75.69-212.24-83.34-98.48-330.11-92.66-408.52,0C130.55,338.11,167,407.66,120.05,473.29,98.86,502.91,53.9,530.52,53.27,576.81c0,0,14.18-16.34,27.08-22.64-5.64,14.64-16.88,21.66-18.92,62C62.22,615,70,601.34,80,595.73c0,0-10.32,22.08-.74,48.61,3.23-5.61,7.18-14.29,12.24-18.56,0,0,13.82,30.76,72.35,65.68,42.43,25.3,77.3,35,132.09,62.33,77.69,38.8,143.83,32.13,208.16,0,54.79-27.36,89.66-37,132.09-62.33,58.53-34.92,72.35-65.68,72.35-65.68,5.06,4.27,9,13,12.24,18.56,9.58-26.53-.74-48.61-.74-48.61,10,5.61,17.76,19.23,18.55,20.41-2-40.31-13.28-47.33-18.92-62C732.55,560.47,746.73,576.81,746.73,576.81Z"/></g><g id="Forma_6775" data-name="Forma 6775"><path class="cls-5" d="M621,685.15c-81.56,50.64-144.22,78.15-183.5,91.79,22.67-4.25,44.76-12.22,66.63-23.15,54.79-27.36,89.66-37,132.09-62.33,58.53-34.92,72.35-65.68,72.35-65.68a19.49,19.49,0,0,1,1.67,1.62c-.23-5.2-1.39-12-3.16-15.71C707,611.69,693.67,640,621,685.15Zm99.41-89.22c-5.17-8.58-11.66-18-15.92-19.49,0,0,17.56,46.64,16.21,67.7a2,2,0,0,1,.11.2c9.58-26.53-.74-48.61-.74-48.61Zm-12.58-49.55s23.11,46.09,30.68,67.75C736.19,576.32,725.61,568.84,720,555A59,59,0,0,0,707.78,546.38ZM680,473.29c-47-65.63-10.5-135.18-75.69-212.24-18.91-22.34-46.23-39.31-78.09-51.12,26.73,19.54,69.33,54.28,87.73,89,27.83,52.45,15.3,123.31,52,177,30.31,44.39,60.56,54,79.87,99.79.66.71,1,1.13,1,1.13C746.1,530.52,701.14,502.91,680,473.29Z"/></g><g id="Forma_6776_copia_2" data-name="Forma 6776 copia 2"><path class="cls-3" d="M473.28,547.87c-39.36-23.85-98.15-28.88-145.82,0C300.69,564.09,223.07,596,222.09,648.79c-1,52.12,111.65,114.46,177,116.1v0h2.6v0c65.33-1.64,177.94-64,177-116.1C577.67,596,500.05,564.09,473.28,547.87Z"/></g><g id="Forma_6777" data-name="Forma 6777"><path class="cls-6" d="M350.47,379.42c-9.42-33.21-78.1-112-147.68-7.43-54,81.21-24.62,142.79-11.13,159.55s88.76,43.17,156.21-40.07C368.46,466.06,359.88,412.62,350.47,379.42Z"/></g><g id="Forma_6777_copia" data-name="Forma 6777 copia"><path class="cls-6" d="M593.13,372c-69.58-104.59-138.26-25.78-147.68,7.43s-18,86.64,2.6,112.05c67.45,83.24,142.71,56.83,156.21,40.07S647.14,453.2,593.13,372Z"/></g><g id="Forma_6774" data-name="Forma 6774"><path class="cls-7" d="M61.43,616.14c.13-.19.44-.71.9-1.46,6.51-22.83,26.47-62.25,30.27-67.93a47.57,47.57,0,0,0-12.49,8C74.4,569,63.44,576.39,61.43,616.14Zm17.91-18.85a69.2,69.2,0,0,0-.1,47.05v0c.87-18.83,12.23-56.37,12.23-56.37A26.25,26.25,0,0,0,79.34,597.29Zm116.4-336.24C130.55,338.11,167,407.66,120.05,473.29,98.86,502.91,53.9,530.52,53.27,576.81l.25-.29c10.89-29.24,33.83-47.9,70.61-89.13,34.71-38.91,28.28-105.44,51.58-177,17.18-52.76,73.22-86.7,112.44-104.63C249.56,217.8,216.66,236.33,195.74,261.05Z"/></g><g id="Forma_6780-3" data-name="Forma 6780"><path class="cls-8" d="M321.15,192.41S308.64,202,303,214.3c0,0,32.45,3.66,48.61,8.17-.73,1.25-20,12.4-18.92,29.31,0,0,23.52-20.17,63.07-34.51C395.73,217.27,393,164.53,321.15,192.41Z"/></g><g id="Forma_6777-2" data-name="Forma 6777"><path class="cls-1" d="M403.15,187.59c-4.54-15.67-16.92-42.73-50.09-39,0,0,10.52,13.08,13.36,20.78,0,0-49.58-9.38-72.35,27.08,0,0,34.65,5.59,51.57,13.36,0,0-21.16,13.45-25.6,36,0,0,48.82-23.47,69.76-25.23S407.7,203.26,403.15,187.59Z"/></g><g id="Forma_6779-3" data-name="Forma 6779"><path class="cls-7" d="M343.1,211.66c-5.75,4.36-19.57,16.46-23.06,34.18l.46-.22c10.73-15,41.84-37.62,41.84-37.62C355.44,207,348.77,208.9,343.1,211.66Zm39.65-25.56c-8.39-19.11-22.18-31.68-29.66-37.47h0s10.52,13.08,13.36,20.78c0,0-49.58-9.38-72.35,27.08l.5.09C323.44,179.91,382.75,186.1,382.75,186.1Z"/></g><g id="Forma_4735" data-name="Forma 4735"><path class="cls-4" d="M463.29,536.07c-21.23,7.33-103.62,41.49-103.62,41.49S385,640,440.75,600.36C495.18,561.64,473.05,545.24,463.29,536.07Z"/></g><g id="Forma_4720_copia" data-name="Forma 4720 copia"><path class="cls-9" d="M465.21,536.62C443.86,497.1,402.71,498.72,399,499c-3.73-.24-44.88-1.86-66.23,37.66-14.3,26.46,28.37,73.08,66,73.08h.55C436.83,609.7,479.51,563.08,465.21,536.62Z"/></g><g id="Forma_4722_copia" data-name="Forma 4722 copia"><path class="cls-10" d="M430,547.88c-26.19,2.73-39.84,2.43-63.21,0-9.09-.94-25.45,14.28-20.61,35.15,13.58,15,33.67,26.67,52.49,26.67h.55c18.13,0,37.44-10.85,51-25.05C456.33,563,439.35,546.91,430,547.88Z"/></g><g id="Forma_4724" data-name="Forma 4724"><path class="cls-11" d="M357.2,569.59c-10.88,1.12-3.58,15.93-3.58,15.93-2.14-6.77,1.38-9.34,1.38-9.34-5.63,6,10.78,22.6,17.31,17.86,2,1.88,1.93,6.32,1.93,6.32C378.48,590.39,368.08,568.46,357.2,569.59Z"/></g><g id="Forma_4725" data-name="Forma 4725"><path class="cls-12" d="M361.12,570.14c-2.48.93-5.93,3.35-3.37,9.34,3.22,7.55,11.45,15.68,17.16,11.8C373.56,582.62,367.78,572.64,361.12,570.14Z"/></g><g id="Forma_4724_copia" data-name="Forma 4724 copia"><path class="cls-11" d="M437.45,569.59c-10.88-1.13-21.29,20.8-17,30.77,0,0-.08-4.44,1.92-6.32,6.54,4.74,22.95-11.82,17.32-17.86,0,0,3.52,2.57,1.37,9.34C441,585.52,448.33,570.71,437.45,569.59Z"/></g><g id="Forma_4725_copia" data-name="Forma 4725 copia"><path class="cls-12" d="M433.53,570.14c-6.66,2.5-12.44,12.48-13.79,21.14,5.71,3.88,13.93-4.25,17.16-11.8C439.46,573.49,436,571.07,433.53,570.14Z"/></g><g id="Forma_4728" data-name="Forma 4728"><path class="cls-9" d="M356.65,568.21c10.39-.82,19.51,19.51,19.51,19.51C366.77,562.21,356.65,568.21,356.65,568.21Zm43.15,35.72s4.4-17.3,0-44.51Zm-45.61-21.38c7,19.5,18.12,12,18.12,12C360.24,597.65,354.55,583.46,354.19,582.55Zm69.52,12.87c14.83,3.42,16.76-12.37,16.76-12.37C433.34,596.78,423.71,595.42,423.71,595.42Zm15.11-27.48s-14.24-3.56-20.06,21.16C418.76,589.1,425.37,569.81,438.82,567.94Z"/></g><g id="Forma_4723" data-name="Forma 4723"><path class="cls-13" d="M424.53,518.21c-39.42-8.94-64.62,4.17-70.63,9.07s-4.21,8.13,3.3,5.49c24.27-8.54,47.39-9.91,67.33-9.34C432.82,523.67,440.17,522.54,424.53,518.21Z"/></g><g id="Elipse_4754" data-name="Elipse 4754" class="cls-14"><path class="cls-15" d="M389.79,520.44c-.88-1.71-5.34-2.41-11-1.29-6.16.69-10.71,5-9.56,6.45s7.92-1.61,13.32-2.49C387.57,522.33,390.64,522,389.79,520.44Z"/></g></svg>