<svg id="Assets" xmlns="http://www.w3.org/2000/svg" viewBox="0 0 800 800"><defs><style>.cls-1{fill:#914da3;}.cls-2{fill:#edd1f4;}.cls-3{fill:#d1add9;}.cls-4{fill:#9e56b0;}.cls-5{fill:#b977c9;}.cls-6{fill:#864598;}.cls-7{fill:#d3abdc;}.cls-8{fill:#ffa878;}.cls-9{fill:#e08b5d;}.cls-10{fill:#ffdbc1;}.cls-11{fill:#701f62;}.cls-12{fill:#7e296e;}.cls-13{fill:#9e54ad;}.cls-14{fill:#7c296d;}.cls-15{fill:#8d4090;}.cls-16{fill:#9b5b8e;}.cls-17{fill:#5c0000;}.cls-18{fill:#fff;}</style></defs><g id="Forma_1631" data-name="Forma 1631"><path class="cls-1" d="M134.92,324c-46.46-47.09-86-80.29-92.07-105.47,0,0-3,17.46,3.18,34.57,0,0-21-5-27.51-15.17,0,0,7.11,24.82,19.4,29.28,0,0-16.76,10.66-27.87,9.17,0,0,13.6,12.66,21.16,13.05,0,0-18.45,101.47,14.82,166.49s105.55,29.66,110.76,28.57,31.39-90.65,31.39-90.65S181.37,371.08,134.92,324Z"/></g><g id="Forma_1632" data-name="Forma 1632"><path class="cls-2" d="M67.19,300.36c-21.25-49.23-27.86,39.51-27.86,39.51S32.41,436,77.78,470.73c69,52.83,78.14-64.42,78.3-69.84C156.08,400.89,109.28,397.86,67.19,300.36Z"/></g><g id="Forma_1633" data-name="Forma 1633"><path class="cls-3" d="M67.19,300.36a67.87,67.87,0,0,0-3.74-7.54C62.62,322.37,70,391.44,148.93,441a195.83,195.83,0,0,0,7.15-40.11S109.28,397.86,67.19,300.36Z"/></g><g id="Forma_1634" data-name="Forma 1634"><path class="cls-1" d="M115.32,402.52s2.16,13,5.8,17l-11.94,7.53s10.49,8.28,17.17,7.81l-16.73,9.84s14.43,4.64,22.2,2.5c5.45-1.5,33.91-9.12,35.18-45.46C167,401.75,141.05,386.49,115.32,402.52Z"/></g><g id="Forma_1631-2" data-name="Forma 1631"><path class="cls-1" d="M790,276.38c-11.11,1.49-27.87-9.17-27.87-9.17,12.29-4.46,19.4-29.28,19.4-29.28C775,248.12,754,253.1,754,253.1c6.17-17.11,3.18-34.57,3.18-34.57-6.07,25.18-45.61,58.38-92.07,105.47s-53.26,69.84-53.26,69.84,26.18,89.57,31.39,90.65,77.5,36.45,110.76-28.57,14.82-166.49,14.82-166.49C776.35,289,790,276.38,790,276.38Z"/></g><g id="Forma_1632-2" data-name="Forma 1632"><path class="cls-2" d="M760.67,339.87s-6.61-88.74-27.86-39.51c-42.09,97.5-88.89,100.53-88.89,100.53.16,5.42,9.3,122.67,78.3,69.84C767.59,436,760.67,339.87,760.67,339.87Z"/></g><g id="Forma_1633-2" data-name="Forma 1633"><path class="cls-3" d="M736.55,292.82a67.87,67.87,0,0,0-3.74,7.54c-42.09,97.5-88.89,100.53-88.89,100.53A195.07,195.07,0,0,0,651.07,441C730,391.44,737.38,322.37,736.55,292.82Z"/></g><g id="Forma_1634-2" data-name="Forma 1634"><path class="cls-1" d="M690.82,427.06l-11.94-7.53c3.64-4,5.8-17,5.8-17-25.73-16-51.68-.77-51.68-.77,1.27,36.34,29.73,44,35.18,45.46,7.77,2.14,22.2-2.5,22.2-2.5l-16.73-9.84C680.33,435.34,690.82,427.06,690.82,427.06Z"/></g><g id="Forma_21" data-name="Forma 21"><path class="cls-4" d="M680.47,450.66C652.14,408.1,654.67,366.73,648,336c-11.54-53.22-46.55-181.35-244.55-181.35,0,0-124.73-1.37-187.87,62.75-46.7,47.44-57.91,110.61-60.91,130.06-2,12.7,6.93,54.52-30.43,108.85C2.84,632.87,204.87,765.51,402,765.51,554.08,765.51,817.67,656.7,680.47,450.66Z"/></g><g id="Forma_21_copia_17" data-name="Forma 21 copia 17"><path class="cls-5" d="M403.46,154.65s-124.73-1.37-187.87,62.75c-46.7,47.44-57.91,110.61-60.91,130.06-2,12.7,6.93,54.52-30.43,108.85-47.52,69.1-45.49,131.48-13.6,181.81-20.23-46.24-16.18-100.93,24.89-160.65C172.9,423.15,164,381.32,166,368.63c3-19.46,14.22-82.63,60.92-130.06,63.14-64.13,187.87-62.76,187.87-62.76,123.12,0,183.22,49.55,213.84,99.82C602.37,219.15,543.94,154.65,403.46,154.65Zm277,296c-.55-.83-1.08-1.65-1.61-2.48a152,152,0,0,0,12.9,23.64c3.11,4.67,6,9.28,8.71,13.85A279.52,279.52,0,0,0,680.47,450.66Z"/></g><g id="Forma_21_copia_15" data-name="Forma 21 copia 15"><path class="cls-6" d="M648,336c-1.59-7.33-3.63-16.1-6.48-25.75-1.71-.35-3-.6-3.72-.68-10.68-1.06-22.59,4.33-31.9,17-9.63,13.08-6.87,27,2.27,29,12.55,2.69,28.48.17,42.55-3.55C650,346.38,649.11,341.05,648,336Z"/></g><g id="Forma_21_copia_10" data-name="Forma 21 copia 10"><path class="cls-6" d="M602.21,233c-34.07-42-93.29-78.37-198.75-78.37a388.44,388.44,0,0,0-90.34,11.87c3,3,5.95,5.84,8.71,8.59a128.94,128.94,0,0,0-17.36-6.23c-31.69,9.11-64.77,24-88.88,48.52A191.15,191.15,0,0,0,198,238.1c11.71,11.57,41.15,16.29,91.72,11.08,0,0-28.16,38.35,3.51,49.06s87.71-23.7,107.52-46.53c0,0,11.29,43.06,50.92,56.66s52.23-34.95,49-46.22c0,0,70.28,35.55,41.71-39.56C542.32,222.59,575.68,238.76,602.21,233Z"/></g><g id="Forma_21_copia" data-name="Forma 21 copia"><path class="cls-6" d="M680.47,450.66C652.14,408.1,654.67,366.73,648,336c-8.9-41.06-37.2-158.15-192.36-178.19,144,24.33,169.34,137.31,177.16,175.61,6.26,30.6,3.19,71.77,30.91,114.13C797.88,652.53,533.66,760.7,382,760.7a452.8,452.8,0,0,1-96.34-10.5A455.24,455.24,0,0,0,402,765.51C554.08,765.51,817.67,656.7,680.47,450.66Z"/></g><g id="Forma_21_copia_8" data-name="Forma 21 copia 8"><path class="cls-2" d="M709.09,592.81c-3.9-17.47-15.15-31.4-32.38-39.62-17.23-8.39-40.45-11.16-68.27-10.33-55.53,1.49-129.91,17.48-208.78,18-79,2-151.7-14.48-206.55-17.55-27.46-1.37-50.51,1-67.78,9.43C108.07,561,96.59,575.13,92.56,592.6c-.26,1.1-.48,2.22-.67,3.35,13.27,55.57,55.89,96.88,112.43,125.22,56.59,28.18,127.39,44,197.47,44.45,51.75-.19,119.43-13,179-37.91,59.62-25.22,111-63,129.75-121.68A66.33,66.33,0,0,0,709.09,592.81Z"/></g><g id="Forma_21_copia_14" data-name="Forma 21 copia 14"><path class="cls-7" d="M709.07,592.75a58.71,58.71,0,0,0-9.17-20.89C684.51,626.22,643.55,668.69,587.78,703,542.57,730.58,488,752.3,437.57,763.71c45-4.42,96.58-16.54,143.15-36.31C640.23,701.85,691.58,663.81,710.58,606A66.71,66.71,0,0,0,709.07,592.75Z"/></g><g id="Forma_1617_copia_3" data-name="Forma 1617 copia 3"><path class="cls-1" d="M208.36,276.92s-38.69,34.7-44.54,63.85c-1.84,9.17,9.83,17.24,25.65,13.61,15.29-3.5,25-12.28,28.25-22.5,1.54-4.8,5-33.37,21.24-64.52C255.81,235,208.36,276.92,208.36,276.92Z"/></g><g id="Forma_1617" data-name="Forma 1617"><path class="cls-8" d="M205.47,295.07c-6.05-6-46.07-33.53-75.49-76.54s-13.76,41.27-13.76,41.27,11.63,60.71,44.45,89.95c10.35,9.22,33.74,8.79,46.56-7.41S218.76,308.33,205.47,295.07Z"/></g><g id="Forma_1617_copia_2" data-name="Forma 1617 copia 2"><path class="cls-9" d="M117.63,218.53a207.09,207.09,0,0,0,51.76,135.91,36.27,36.27,0,0,0,30.55-5.23C136.55,303.49,117.63,218.53,117.63,218.53Z"/></g><g id="Forma_1617_copia" data-name="Forma 1617 copia"><path class="cls-10" d="M157.12,251.84c-2.07-2.19-4.16-4.45-6.24-6.78-7,16.34-25.16,19.42-33.51,19.95.51,2.15,1.2,4.89,2.08,8.09C140.27,274.09,152.74,258.53,157.12,251.84ZM140,232.08c-1.73-2.19-3.44-4.44-5.13-6.73-6,7.42-14.7,10.73-21.8,12.18.33,3.09.7,6.1,1.08,8.86C125.94,244.9,134.54,238.07,140,232.08Zm40.67,42.27c-3-2.65-6.21-5.52-9.51-8.62-8.62,22.39-33.23,29.65-43.58,31.75,1.4,3.58,3,7.27,4.65,11C159.24,306.28,174,286.61,180.63,274.35Zm24.84,20.72c-1.44-1.43-4.79-4.07-9.46-7.85-7.61,33.29-45.63,40.37-52.9,41.43a118.38,118.38,0,0,0,8.15,11.24c34.74-2.41,50.94-31.44,56-42.89C206.69,296.35,206.1,295.7,205.47,295.07Z"/></g><g id="Forma_1617-2" data-name="Forma 1617"><path class="cls-8" d="M661.55,218.53c-29.42,43-69.44,70.51-75.48,76.54-13.29,13.26-14.59,31.07-1.77,47.27s36.21,16.63,46.57,7.41c32.81-29.24,44.44-89.95,44.44-89.95S691,175.52,661.55,218.53Z"/></g><g id="Forma_1617_copia_2-2" data-name="Forma 1617 copia 2"><path class="cls-9" d="M591.59,349.21a36.28,36.28,0,0,0,30.56,5.23A207.1,207.1,0,0,0,673.9,218.53S655,303.49,591.59,349.21Z"/></g><g id="Forma_1617_copia-2" data-name="Forma 1617 copia"><path class="cls-10" d="M620.41,265.73c-3.29,3.1-6.48,6-9.51,8.62,6.64,12.26,21.4,31.93,48.44,34.11,1.7-3.71,3.25-7.4,4.65-11C653.65,295.38,629,288.12,620.41,265.73Zm-24.88,21.49c-4.67,3.78-8,6.42-9.46,7.85-.63.63-1.23,1.28-1.81,1.93,5.07,11.45,21.28,40.48,56,42.89a116.64,116.64,0,0,0,8.15-11.24C641.16,327.59,603.13,320.51,595.53,287.22Zm61.17-61.87c-1.68,2.29-3.39,4.54-5.12,6.73,5.41,6,14,12.82,25.84,14.31.38-2.76.76-5.77,1.08-8.86C671.41,236.08,662.67,232.77,656.7,225.35Zm-16,19.71q-3.13,3.49-6.25,6.78c4.38,6.69,16.86,22.25,37.67,21.26.88-3.2,1.57-5.94,2.08-8.09C665.82,264.48,647.71,261.4,640.66,245.06Z"/></g><g id="Forma_1616_copia" data-name="Forma 1616 copia"><path class="cls-11" d="M536.8,159.23c1.47-2.45,18-13.1,45.3-20s7.79-44.52-40.74-33.84C502.94,113.88,472.64,145,472.64,145S448.68,81.39,424,89.4s-13.22,32.79-17.32,56.29a217.87,217.87,0,0,0-40.95-39.55C325.87,76.68,278,54.82,262.6,100.6c-5.57,16.52,23.63,46.17,43.33,68.25,0,0-69.58-36.74-109.65,12.82s-23.16,82.23,77.53,70.54c0,0-28.15,43.18,3.51,55.23S365,280.76,384.81,255.06c0,0,11.29,48.47,50.9,63.78s52.23-39.33,49-52c0,0,70.26,40,41.7-44.53,0,0,48.47,26.45,75,4.27S632.38,158.46,536.8,159.23Z"/></g><g id="Forma_1622" data-name="Forma 1622"><path class="cls-12" d="M312.32,186.35s-47.92-25.47-75.11-13.89-58,39.41-50.43,52.8C186.78,225.26,271.83,173.9,312.32,186.35Zm1.41,39.31c-20.46,18.21-44.29,48.87-36.32,61.54,0,0,33.49-51.79,69.11-77.82C346.52,209.38,334.19,207.45,313.73,225.66ZM330,171.27c-31.08-24-50.78-79.41-50.78-79.41-14.15,3.14-4.23,23.43-4.23,23.43C305.88,169.2,329.28,171.86,330,171.27Zm72.29,88.53c23.87,49.29,40.65,54.15,49.37,54.39,0,0-31.2-32.37-62.77-115.53C388.84,198.66,378.37,210.52,402.24,259.8ZM428,97.42s-8.4-5.23-10.22,10.33-7.65,23.38.35,51.61C418.14,158,419.33,112.16,428,97.42Zm156.93,20.65S551.76,86.34,470.3,159.36C470.3,159.36,542.75,115.27,584.91,118.07ZM537.3,165.71c1.41.27,67.55,17.49,72.65,25C610,190.72,593.08,162.8,537.3,165.71Z"/></g><g id="Forma_1621" data-name="Forma 1621"><path class="cls-13" d="M276.35,275.29s29.77-41.21,56.07-62.73C332.42,212.56,280.45,235.1,276.35,275.29Zm-89.22-61.54s39-38.12,96.27-38.91C283.4,174.84,209.49,149.65,187.13,213.75Zm199.24-3.57S389,280.34,436.8,309C436.8,309,397.19,254.77,386.37,210.18Zm-75.46-47.65c-.33-.3-.63-.6-1-.9A6.12,6.12,0,0,0,310.91,162.53Zm-1-.9c-6.12-6.62-34.46-45.42-37.84-63.81C272.12,97.82,258.44,112.54,310,161.63Zm111-63s-10.05,1.52-6.7,44.07C414.23,142.68,417.05,107.26,420.93,98.61Z"/></g><g id="Forma_1604_copia" data-name="Forma 1604 copia"><path class="cls-14" d="M500.71,377.61c-46.8,10.81-97.58,14.91-108.82,15.72-11.24-.81-62-4.91-108.82-15.72-50.5-11.66-120.21-6.45-116.76,78.31,2.48,61,48.5,90.59,118.18,87.83,75.29-3,76.1-81.23,112.3-85.29,49.29-5.52,39.92,82.31,115.2,85.29,69.69,2.76,103-26.84,105.47-87.83C620.91,371.16,551.21,366,500.71,377.61Z"/></g><g id="Forma_1612" data-name="Forma 1612"><path class="cls-15" d="M399.19,452.25c-28.16,0-67.11,53.91-67.6,101.77-.53,53,132,64.07,135,3.24C469.25,502.81,426.69,452.25,399.19,452.25Z"/></g><g id="Forma_1615" data-name="Forma 1615"><path class="cls-13" d="M345.92,546.57c-3.25,53.75,15.17-3.17,15.17-3.17s10.58-57.18,25.75-78C386.84,465.44,349.18,492.83,345.92,546.57Z"/></g><g id="Forma_1606" data-name="Forma 1606"><path class="cls-14" d="M401.3,532.46s-69.36-3.27-71.25,31.75,61.08,36.68,69.84,36.68,67.33.46,67.73-39.85C467.93,529.23,401.3,532.46,401.3,532.46Z"/></g><g id="Elipse_1607" data-name="Elipse 1607"><path class="cls-16" d="M392.93,536.41c-25.74,1.62-48.43,9.57-47.6,17.72s24.4,12.12,49.45,9.7c24.87-2.4,42.76-10,42.5-17.05S418.43,534.8,392.93,536.41Z"/></g><g id="Forma_1611" data-name="Forma 1611"><path class="cls-16" d="M379,537.74c-18.37,1.61-38.45,7.39-44,20.13-5.09,11.62.35,18.32.35,18.33s-.8-19.81,12.76-23.47c13-3.82,61.32-13.87,65.85-14.84C411.55,538,396,536.1,379,537.74Zm35,.15c.21,0,.33,0,.35-.07Z"/></g><g id="Elipse_1608" data-name="Elipse 1608"><path class="cls-17" d="M369.77,572.5c-8.75-1.88-16.82,1.06-18,6.58s5,11.53,13.7,13.41,16.83-1.06,18-6.58S378.53,574.39,369.77,572.5Z"/></g><g id="Elipse_1608_copia" data-name="Elipse 1608 copia"><path class="cls-17" d="M448.73,579.08c-1.19-5.52-9.25-8.46-18-6.58s-14.9,7.89-13.71,13.41,9.25,8.46,18,6.58S449.91,584.6,448.73,579.08Z"/></g><g id="Elipse_1606" data-name="Elipse 1606"><path class="cls-18" d="M377,546.06c-1.56-5.08-9.74-3.61-15.11-1.61-5.13,1.24-8.54,5.18-8.4,8.14.81,2.38,3.42,2.6,10,2.12a35.7,35.7,0,0,0,10.63-3.26C376.93,549.93,377.92,548.23,377,546.06Z"/></g></svg>