<svg id="Assets" xmlns="http://www.w3.org/2000/svg" viewBox="0 0 800 800"><defs><style>.cls-1{fill:#897c95;}.cls-2{fill:#c7b6c5;}.cls-3{fill:#a486a1;}.cls-4{opacity:0.65;}.cls-5{fill:#a79ab3;}.cls-6{opacity:0.71;}.cls-7{fill:#b3a8bf;}.cls-8{opacity:0.62;}.cls-9{fill:#736380;}.cls-10{opacity:0.58;}.cls-11{fill:#a69dae;}.cls-12{fill:#59627e;}.cls-13{fill:#7d85a2;}.cls-14{opacity:0.23;}.cls-15{opacity:0.3;}.cls-16{fill:#414b66;}.cls-17{fill:#303850;}.cls-18{fill:#131725;}.cls-19{opacity:0.78;}</style></defs><g id="Forma_5632" data-name="Forma 5632"><path class="cls-1" d="M75.58,237.48c-20.32,14.38,14.12-.22,19.6-.32,0,0-61,34.16-64,96C28.59,385.54,6.9,452.53,42.26,477.28c4.38,3.06,8.9-3.65,10.78-5.56S60.47,512,72,506c0,0,20.06,27.68,25.15,19.6,0,0,48.09,25.78,89.85-2.29S252.38,281,253,273.09,139.41,192.33,75.58,237.48Z"/></g><g id="Forma_5634" data-name="Forma 5634"><path class="cls-2" d="M89,290.41c-51.67,36.3-47.74,39.25-33.33,35.28,0,0-23.32,54.3-8.82,87.88,0,0,4.14,12.93,17-6.2,0,0-2.18,33.24,12.09,40.18,4.75-2.05,9.06,32.72,26.79,28.09,0,0,1.32,11.59,9.47,17s9.27-6.25,17-13.07c3.58,5.31-3.7,24.69,23.85,42.15S206.26,328,206.26,328,140.64,254.1,89,290.41Z"/></g><g id="Forma_5636" data-name="Forma 5636"><path class="cls-3" d="M89,290.41q-6,4.18-11,7.79c9.45-3.11,21.63-5.29,33.16-1.91,20.63,6,51.95,55.07,90.28,66.77,3.05-20.81,4.79-35.08,4.79-35.08S140.64,254.1,89,290.41Z"/></g><g id="Forma_5635" data-name="Forma 5635" class="cls-4"><path class="cls-5" d="M56,456.37a44.2,44.2,0,0,0-3,15.41l0-.06c1.69-1.71,6.34,32.12,15.62,34.71C62.33,487.37,61.59,442.28,56,456.37Zm17.35,51.45c4,5.23,15.87,20.08,21.69,19.25C85.89,515.55,71.66,490,71.66,490A34,34,0,0,0,73.33,507.82ZM89,241.08c-15.58,10.6-55.42,42.42-57.85,92.13C28.59,385.54,6.9,452.53,42.26,477.28a4,4,0,0,0,2.73.77C18.26,441.9,31.53,373.2,38.67,326c7.35-48.59,73.5-90.17,73.5-90.17C105.52,233.62,97.26,236.31,89,241.08Zm-13.42-3.6c-6.83,4.84-7.47,6.39-5.1,6.33,9.18-6.33,30.59-18.85,53.13-16.13,27.89,3.37,105.7,49.79,128.05,57.46.8-6.77,1.24-11.05,1.32-12.05C253.58,265.16,139.41,192.33,75.58,237.48Z"/></g><g id="Forma_5632-2" data-name="Forma 5632"><path class="cls-1" d="M760.66,333.21c-3-61.89-64-96-64-96,5.48.1,39.92,14.7,19.6.32-63.83-45.15-178,27.68-177.39,35.61s24.23,222.19,66,250.25,89.84,2.29,89.84,2.29c5.1,8.08,25.16-19.6,25.16-19.6,11.51,5.93,17.07-36.21,18.94-34.31s6.41,8.62,10.78,5.56C784.91,452.53,763.22,385.54,760.66,333.21Z"/></g><g id="Forma_5634-2" data-name="Forma 5634"><path class="cls-2" d="M736.16,325.69c14.41,4,18.34,1-33.32-35.28S585.55,328,585.55,328s25.7,211.19,53.25,193.73,20.28-36.84,23.85-42.15c7.73,6.82,8.84,18.48,17,13.07s9.48-17,9.48-17c17.72,4.63,22-30.14,26.78-28.09,14.28-6.94,12.09-40.18,12.09-40.18,12.85,19.13,17,6.2,17,6.2C759.48,380,736.16,325.69,736.16,325.69Z"/></g><g id="Forma_5636-2" data-name="Forma 5636"><path class="cls-3" d="M702.84,290.41C651.17,254.1,585.55,328,585.55,328s1.74,14.27,4.79,35.08c38.34-11.7,69.65-60.73,90.28-66.77,11.54-3.38,23.71-1.2,33.16,1.91Q708.79,294.59,702.84,290.41Z"/></g><g id="Forma_5635-2" data-name="Forma 5635" class="cls-4"><path class="cls-5" d="M716.23,237.48c-63.83-45.15-178,27.68-177.39,35.61.07,1,.51,5.28,1.31,12.05,22.35-7.67,100.17-54.09,128.06-57.46,22.53-2.72,43.94,9.8,53.13,16.13C723.7,243.87,723.06,242.32,716.23,237.48ZM696.79,527.07c5.82.83,17.71-14,21.7-19.25a34,34,0,0,0,1.66-17.8S705.92,515.55,696.79,527.07Zm26.37-20.64c9.27-2.59,13.93-36.42,15.61-34.71l.05.06a44.2,44.2,0,0,0-3-15.41C730.22,442.28,729.48,487.37,723.16,506.43Zm37.5-173.22c-2.43-49.71-42.26-81.53-57.85-92.13-8.26-4.77-16.51-7.46-23.17-5.23,0,0,66.16,41.58,73.51,90.17,7.14,47.18,20.41,115.88-6.33,152a4,4,0,0,0,2.73-.77C784.91,452.53,763.22,385.54,760.66,333.21Z"/></g><g id="Forma_5615_copia" data-name="Forma 5615 copia"><path class="cls-1" d="M693,564.51c-11.47-47-17.07-37.85-41.49-86.58s10.17-91.44-46.39-177.07c-67.66-102.41-338.1-102.41-405.76,0-56.57,85.63-22,128.34-46.39,177.07s-30,39.56-41.49,86.58c-4,16.24-14.41,15.88-12.74,23.19,2.5,11,19.35-2.41,23.85-5.55C114,595.26,110,606.33,109.56,626.58s8.85,7.88,11.76,4.57a43.34,43.34,0,0,1,6.53-5.88s2.46,20.74-1.63,30.06,4.18,12.45,6.21,9.14A86.44,86.44,0,0,1,139,656s1.26,19.64,11.76,35c8.28,12.08,11.39,5.26,12.74-2.29,0,0,55.79,79.39,238.49,79.39h.65c182.71,0,238.49-79.39,238.49-79.39,1.35,7.55,4.46,14.37,12.74,2.29,10.5-15.32,11.76-35,11.76-35a87.6,87.6,0,0,1,6.54,8.49c2,3.31,10.29.17,6.2-9.14s-1.63-30.06-1.63-30.06a43.68,43.68,0,0,1,6.54,5.88c2.91,3.31,12.21,15.68,11.76-4.57s-4.46-31.32-13.07-44.43c4.49,3.14,21.34,16.52,23.85,5.55C707.45,580.39,697,580.75,693,564.51Z"/></g><g id="Forma_5630" data-name="Forma 5630" class="cls-6"><path class="cls-7" d="M131.77,575.29a27.42,27.42,0,0,0-9.45,7.07l.31-.21C114,595.26,110,606.33,109.56,626.58c-.19,8.5,1.34,11.25,3.39,11.34C109.13,618,131.77,575.29,131.77,575.29Zm-3.87,50.39c.32,3,2.07,21.1-1.68,29.65-2.3,5.24-.69,8.52,1.52,9.8.73-6,7.08-14.52,7-25.48a47.67,47.67,0,0,1,5.56-22.87A22.17,22.17,0,0,0,127.9,625.68Zm71.5-324.82c-56.57,85.63-22,128.34-46.39,177.07s-30,39.56-41.49,86.58c-4,16.24-14.41,15.88-12.74,23.19a6.71,6.71,0,0,0,.79,2.06c4.68-6.62,17.21-2.66,25-30.15,10.11-35.62,22-41.73,37.24-71.88,29.2-57.94,2-102,39.53-162.69,37.84-61.14,114.34-86.29,161-99.06C292.29,232.79,227.88,257.75,199.4,300.86ZM139,656.53c.29,3.26,2.24,20.59,11.71,34.41,3.05,4.44,5.4,6.33,7.22,6.56-4.07-15-6.89-52.19-6.89-53.28A25.07,25.07,0,0,0,139,656.53Z"/></g><g id="Forma_5628" data-name="Forma 5628" class="cls-8"><path class="cls-9" d="M679.42,659.27s0-.07,0-.1,0-.37-.07-.56a.5.5,0,0,1,0-.12c0-.22-.08-.43-.14-.66l0-.13c0-.21-.11-.42-.17-.63l0-.09q-.11-.36-.24-.72l-.06-.17c-.1-.25-.2-.5-.32-.76-4.08-9.32-1.63-30.06-1.63-30.06l0,0,0,0h0c-3.68-3-7.27-6.27-7.27-6.27-2.88,18.54,2.63,28.92,5.23,37.57,1.59,5.3,1.48,7.78,1.15,8.91h0a5.5,5.5,0,0,0,.72-.3l0,0a4.14,4.14,0,0,0,.65-.41l.08-.06.3-.25.1-.1.16-.15.13-.15.18-.23.14-.18.11-.15.19-.31.07-.14.13-.27.06-.13a2.74,2.74,0,0,0,.15-.4s0-.09,0-.13.07-.25.11-.38a.29.29,0,0,1,0-.09,3.41,3.41,0,0,0,.09-.48.51.51,0,0,0,0-.13,4.35,4.35,0,0,0,.06-.52v0c0-.17,0-.35,0-.53v-.14A5.78,5.78,0,0,0,679.42,659.27Zm-167,80.67c47.8-143.84-27.44-189.48-27.44-189.48l-77.08,196H402.6c-135.06,0-199.5-27.76-223.12-41.49q1.91,1.62,4.05,3.33l.09.07c.94.75,1.91,1.51,2.92,2.27l.14.11c1,.77,2.06,1.55,3.14,2.34l.13.09,1.52,1.09.18.13c1.1.78,2.24,1.57,3.41,2.36l.29.2c1.16.79,2.37,1.58,3.61,2.38l.3.2,1.67,1.06.26.16,1.95,1.21.22.14,1.76,1.07.42.24c1.33.8,2.71,1.6,4.12,2.4l.47.27c.62.35,1.24.7,1.87,1l.3.17c.72.4,1.46.8,2.2,1.19l.44.24,1.87,1,.52.27c.76.4,1.53.8,2.31,1.19l.24.13,2.12,1,.62.31,2.2,1.07.23.11,2.47,1.17.64.29,2,.94.59.26,2.57,1.15.53.23,2.18.93.73.31c.9.38,1.8.76,2.72,1.13l.06,0,2.71,1.09.8.32,2.32.9.58.23,2.87,1.08.75.27,2.32.85.83.29c1,.35,2,.71,3,1l.48.17,2.65.89.92.31,2.73.89.47.15,3.19,1,.92.28,2.58.78.85.25c1.1.32,2.2.64,3.32.95l.76.22,2.75.75,1,.28,3.44.91.19,0c1.14.3,2.28.58,3.44.87l1.06.26,2.93.7.8.19,3.67.84,1,.21,3,.64,1.07.22,3.82.79.61.12,3.37.65,1.17.22,3.47.63.59.11,4.05.69,1.14.18,3.27.53,1.05.16,4.2.62.91.13c1.16.17,2.32.33,3.49.48l1.24.17c1.45.19,2.9.38,4.37.55l.11,0,4.39.51,1.28.14,3.71.39.94.1,4.59.44,1.15.1,3.73.31,1.27.11,4.76.35.66,0,4.25.28,1.39.08,4.34.24.66,0,5,.22,1.34.05,4.07.14,1.24,0q2.56.08,5.16.12l1,0,4.33.07h1.47q2.67,0,5.37,0h.65l4.64,0h0l4.56,0h0c38.6-.58,71.32-4.74,98.87-10.89h0q11.19-2.49,21.26-5.39h0c66.73-19.6,98.94-50.59,109.22-62.53-2.84-10.11-4-15.89-6.62-22.39C634.56,666.76,615.82,708.22,512.37,739.94Zm131.79-43.32.18.16,0,0,.14.11.06.05.13.09.07,0,.13.07.07.05.13.06.08,0,.14,0,.07,0,.15,0,.07,0,.22,0h0l.24,0h.48l.09,0,.16,0,.1,0,.15,0,.11,0,.16,0,.1,0,.19-.07.09,0,.26-.12h0l.28-.16.09,0a1.37,1.37,0,0,0,.2-.13l.12-.07.19-.13.12-.09.19-.14.12-.1.19-.16a.69.69,0,0,0,.13-.11l.2-.17.13-.12.22-.21.11-.1.33-.33,0,0c.11-.12.23-.24.34-.37l.12-.13.24-.27.14-.16.23-.26.15-.19.22-.27.16-.2.23-.29.16-.21.24-.32.15-.21.27-.37c0-.06.09-.12.13-.19l.41-.58c.29-.42.57-.84.84-1.27l.07-.11c.26-.4.51-.81.76-1.22l.11-.17c.23-.4.47-.8.69-1.2l.12-.2c.22-.4.44-.8.65-1.2,0-.07.07-.14.11-.2.21-.41.42-.81.62-1.22l.09-.18c.21-.41.41-.83.6-1.25l.06-.11c.19-.43.39-.85.57-1.27l0-.06c.19-.43.37-.85.54-1.28a1,1,0,0,0,.07-.15c.17-.41.33-.81.49-1.22l.08-.21.45-1.17c0-.08.05-.16.08-.23l.42-1.16.07-.22c.14-.39.27-.77.39-1.16l.06-.19c.13-.39.26-.78.38-1.17l0-.12c.12-.38.23-.76.34-1.13l0-.12c.11-.38.21-.75.31-1.12a1.8,1.8,0,0,0,.05-.19c.1-.36.19-.71.28-1.06l.06-.22c.09-.34.17-.67.25-1l.06-.22c.08-.33.15-.66.23-1a1.6,1.6,0,0,1,0-.21l.21-1,0-.18c.07-.32.14-.63.2-.93l0-.12c.06-.3.12-.58.17-.86l0-.14q.08-.43.15-.84l0-.18c0-.26.09-.52.14-.77l0-.18c0-.25.07-.48.11-.72l0-.17c0-.23.07-.45.1-.66a.77.77,0,0,1,0-.15q0-.33.09-.63v-.11c0-.2,0-.39.08-.57v-.07c0-.18,0-.36.07-.52v-.08c0-.16,0-.31.05-.46v-.08c0-.14,0-.27,0-.39v-.06c0-.12,0-.23,0-.32v0c0-.1,0-.19,0-.26h0c-1.82-4.43-6.18-9.46-6.18-9.46C656.35,679.94,647.29,694.16,644.16,696.62Zm50.78-71.91,0-.69c0-.38,0-.76,0-1.13s0-.58,0-.88,0-.59-.05-.88l-.06-1c0-.25,0-.5-.05-.74l-.09-1c0-.21,0-.42-.05-.63,0-.37-.07-.72-.1-1.08l-.06-.55-.12-1.1-.06-.49L694,613.4c0-.14,0-.29,0-.43-.06-.38-.11-.75-.17-1.13l-.06-.38c-.06-.38-.12-.76-.19-1.13l-.06-.35c-.06-.38-.14-.76-.21-1.13l-.06-.31c-.07-.38-.15-.76-.23-1.13l-.06-.28c-.08-.38-.17-.76-.26-1.13,0-.09,0-.17,0-.26l-.28-1.12-.06-.23c-.1-.38-.2-.75-.31-1.12,0-.07,0-.14-.05-.21-.11-.38-.22-.74-.33-1.11l-.06-.2c-.11-.37-.23-.74-.35-1.1l-.06-.19c-.12-.37-.25-.73-.38-1.1a1,1,0,0,0,0-.16c-.13-.37-.27-.74-.4-1.1l-.06-.16c-.14-.36-.28-.73-.43-1.09a.78.78,0,0,0,0-.14l-.45-1.09-.06-.14c-.15-.36-.31-.72-.47-1.08l-.06-.13c-.16-.36-.33-.73-.5-1.09l-.05-.11-.53-1.1,0-.1-.56-1.1,0-.09c-.19-.37-.39-.74-.59-1.11a.59.59,0,0,0,0-.08c-.2-.38-.41-.75-.62-1.12a.16.16,0,0,0,0-.07c-.21-.38-.43-.76-.65-1.14l0,0c-.22-.39-.45-.77-.68-1.15l0-.05c-.23-.39-.47-.78-.71-1.17l0,0-.76-1.19h0l-.79-1.22c-7.3-8.57-15.28-17.46-11.53-12.88,5.57,6.79,18.14,39.08,20.26,55.21,1.1,8.37-.08,11.52-1.19,12.69h0a5.11,5.11,0,0,0,1.36.55h0l.23,0h.05l.2,0h.31l.18,0H692l.18,0h.05l.2-.08h0a2.5,2.5,0,0,0,.65-.46l0,0a.8.8,0,0,0,.15-.17l.06-.07.13-.18.07-.09.11-.19.07-.11.1-.21a.54.54,0,0,0,.07-.13c0-.07.06-.15.1-.23l.06-.14.09-.26a.88.88,0,0,0,0-.15,2.81,2.81,0,0,0,.1-.31s0-.09,0-.14l.12-.44v0c0-.17.08-.35.11-.53l0-.15c0-.14,0-.28.07-.43a1.43,1.43,0,0,0,0-.22c0-.13,0-.26,0-.39a2,2,0,0,1,0-.26c0-.13,0-.27,0-.4l0-.29,0-.42,0-.31,0-.45c0-.11,0-.22,0-.33s0-.32,0-.48,0-.23,0-.34,0-.35,0-.53,0-.23,0-.35v-.92c0-.32,0-.64,0-1C695,626,695,625.32,694.94,624.71Zm-1.9-60.2c-11.47-47-17.07-37.85-41.49-86.58s10.17-91.44-46.39-177.07c-.59-.88-1.19-1.76-1.81-2.63l-.6-.83-1.3-1.77-.73-.95c-.42-.55-.85-1.09-1.29-1.63l-.75-.94-1.42-1.68-.69-.81c-.64-.73-1.28-1.45-1.94-2.16l-.24-.27q-1.12-1.21-2.28-2.4l-.65-.66-1.71-1.7-.84-.8-1.64-1.53c-.29-.27-.58-.54-.88-.8-.57-.52-1.15-1-1.74-1.55l-.81-.7q-1.11-1-2.25-1.89l-.36-.3c-.9-.74-1.81-1.46-2.74-2.18l-.54-.42c-.74-.57-1.49-1.13-2.24-1.69l-.86-.63-2-1.46-.92-.64c-.7-.49-1.41-1-2.13-1.45l-.83-.56c-.87-.58-1.74-1.14-2.63-1.71l-.37-.24c-1.05-.67-2.12-1.32-3.2-2l-.18-.1c-1-.6-2-1.18-3-1.76l-.76-.43c-.83-.47-1.66-.94-2.5-1.4l-.88-.48c-.84-.46-1.69-.91-2.54-1.36l-.79-.42c-1-.52-2-1-3-1.54l-.32-.16q-3.51-1.74-7.13-3.38l-.56-.25c-1-.46-2-.9-3-1.34l-.77-.33-3-1.25-.71-.29c-1.13-.46-2.26-.92-3.41-1.36l-.26-.11q-3.85-1.5-7.81-2.9l-.29-.1c-1.18-.42-2.37-.82-3.57-1.23l-.65-.22-3.35-1.09-.65-.21c-1.22-.39-2.45-.77-3.68-1.14l-.26-.08q-4.14-1.26-8.37-2.4c140,78.05,119.47,171.4,125.43,211,7.39,49.16,42,72.13,45.73,93.43,10.95,41,28.9,48.48,29.33,50.9h0l.35-.06h0l.33-.08h0l.31-.11h0l.3-.12,0,0,.28-.14,0,0,.26-.16,0,0,.24-.17a.12.12,0,0,1,0-.05l.21-.19.06-.07.19-.2a.27.27,0,0,1,.07-.08l.16-.21.07-.11.15-.22s0-.09.08-.14l.12-.21.08-.18.1-.21.09-.22a1.67,1.67,0,0,1,.08-.2l.09-.29a1.54,1.54,0,0,1,0-.17c.05-.16.09-.32.13-.49C707.45,580.39,697,580.75,693,564.51Z"/></g><g id="Forma_5653" data-name="Forma 5653" class="cls-10"><path class="cls-9" d="M381,234.87c-1.22-1.79-42.88-8-65,8.17,0,0-16.5,15.34-6.21,17s45.12-11,69.92-12.42C379.74,247.61,382.26,236.66,381,234.87Zm-11.76,36.59s-7.66,45.2,14.38,26.46,45.08-50,45.08-50S407,234.14,369.28,271.46Z"/></g><g id="Forma_5631" data-name="Forma 5631"><path class="cls-1" d="M477.09,185.87c-5.11,1-37.69,1.17-46.06,19.6,0,0,1.13-29-13.4-38.88s-18.42-19.88-21.56-6.21c-2.17,9.46-3.18,22.29-.11,29.33a13.34,13.34,0,0,1,1.09,2,11.59,11.59,0,0,1-1.09-2c-3.37-5.37-15.68-19.61-52.16-21.16-37.89-1.61-35.28,6.92-33,9.15S345,202,361.44,210.7c0,0-13.16-3.1-31.69,2.28-26.08,7.57-56,40.74-29.73,36.92,30.52-4.45,41.35-6.71,54.89-5.88,0,0-11,21.35-8.17,29.07s16.92,9,28.75,2.29c26.8-15.13,39-16,55.54-26.79,24.82-16.15,14.72-9.42,48.35-51.94C492.47,180.09,482.21,184.83,477.09,185.87Z"/></g><g id="Forma_5633" data-name="Forma 5633"><path class="cls-11" d="M354.91,244s-11,21.35-8.17,29.07c1,2.75,3.55,4.82,6.88,6-1.27-4.59.49-13.12,15-28.2,26-27,37.57-27.12,37.57-27.12S374.11,213.9,354.91,244Zm-33.65-67.3c-4.94-2-8.73-2.29-11.59-1.67a3.63,3.63,0,0,0,1.13,2.65c2.29,2.23,34.21,24.29,50.64,33,0,0-13.16-3.1-31.69,2.28-23.91,6.94-51,35.39-35.15,37.13.77-3.13,37.58-30,82.52-30.27C377.12,219.84,371.07,197.15,321.26,176.72Zm155.83,9.15c-5.08,1-37.21,1.17-45.87,19.2-.34,3.86-.63,6.25-.85,12.81,1.41-1.55,17.14-18.53,36.27-23.52,10-2.61,15.6-6,18.69-8.59C485.59,182.61,480.44,185.18,477.09,185.87Zm-77-32.16c-1.71,0-2.9,1.89-4,6.67-2.16,9.41-3.18,22.17-.17,29.23a13.16,13.16,0,0,1,1.15,2.14c3.38,3.7,5.39,6.24,11.11,16C408.16,207.75,399.71,169.06,400.07,153.71Z"/></g><g id="Forma_5624" data-name="Forma 5624"><path class="cls-7" d="M330.08,370.12c-25.91-31.57-113-25.25-139.5,77.43S268.89,579,325.18,519.1C338.76,503.09,379.84,430.76,330.08,370.12Z"/></g><g id="Forma_5624_copia" data-name="Forma 5624 copia"><path class="cls-7" d="M605.48,447.55C579,344.87,491.89,338.55,466,370.12c-49.76,60.64-8.67,133,4.9,149C527.17,579,632,550.22,605.48,447.55Z"/></g><g id="Forma_5625_copia" data-name="Forma 5625 copia"><path class="cls-2" d="M516,617.91c-8.59-101.81-108.32-93.49-114.74-92.85-6.43-.64-106.16-9-114.74,92.85-8.85,104.86,47.59,154.7,114.41,155h.65C468.44,772.61,524.88,722.77,516,617.91Z"/></g><g id="Forma_5617_copia" data-name="Forma 5617 copia"><path class="cls-12" d="M401.79,450.45c-18.47,0-81.73,25.53-74.33,108.5,5.76,64.51,70.67,59.48,74.33,59.15,3.65.33,68.56,5.36,74.32-59.15C483.52,476,418.65,450.45,401.79,450.45Z"/></g><g id="Forma_5622" data-name="Forma 5622"><path class="cls-13" d="M402,529.88c-43,0-58.48,23.84-58.48,23.84,72-39.59,121.86,4.25,121.86,4.25C460.31,545.57,445,529.88,402,529.88Z"/></g><g id="Elipse_5648" data-name="Elipse 5648" class="cls-14"><path class="cls-13" d="M396.38,473.34c-.78-7.91-1.69-15.75-5.47-15.34-3.68.15-8.62,6.76-12.29,14.14a72.11,72.11,0,0,0-7.14,25.34c-1,9.22.69,17.6,4.17,23.06s8.56,8.16,12,7.69c6.73-.82,9.85-13.9,10.05-30.34C397.57,489.9,397,481.58,396.38,473.34Z"/></g><g id="Elipse_5648_copia" data-name="Elipse 5648 copia" class="cls-15"><path class="cls-13" d="M390.18,477.26c-.42-7.52-.91-15-2.9-14.73-1.93,0-4.51,6.06-6.42,12.9a109.22,109.22,0,0,0-3.71,23.7c-.49,8.7.39,16.7,2.22,22s4.5,8.06,6.3,7.75c3.54-.52,5.15-12.78,5.23-28.33C390.83,493,390.54,485.09,390.18,477.26Z"/></g><g id="Elipse_5644" data-name="Elipse 5644"><path class="cls-7" d="M370.12,519.72c-2.72-1.05-5.95-.4-7.2,1.46s-.06,4.2,2.66,5.25,5.95.4,7.2-1.46S372.84,520.77,370.12,519.72Z"/></g><g id="Elipse_5645" data-name="Elipse 5645"><path class="cls-7" d="M389.48,512.13c-3.15.42-5.59,2.28-5.46,4.15s2.79,3,5.94,2.62,5.59-2.27,5.46-4.14S392.63,511.71,389.48,512.13Z"/></g><g id="Elipse_5646" data-name="Elipse 5646"><path class="cls-7" d="M382.94,509.59c-.2-2.94-3.19-4.94-6.67-4.48s-6.13,3.22-5.92,6.16,3.19,4.94,6.67,4.48S383.15,512.53,382.94,509.59Z"/></g><g id="Elipse_5647" data-name="Elipse 5647"><path class="cls-7" d="M382.56,521.35c-1.65.23-2.93,1.38-2.84,2.58s1.5,2,3.15,1.78,2.93-1.38,2.85-2.58S384.22,521.13,382.56,521.35Z"/></g><g id="Forma_5618_copia" data-name="Forma 5618 copia"><path class="cls-16" d="M329.66,572.13c12.82,50.6,68.73,46.28,72.13,46,3.39.31,59.31,4.63,72.12-46C460.08,520.81,343.49,520.81,329.66,572.13Z"/></g><g id="Forma_5619" data-name="Forma 5619"><path class="cls-17" d="M375.49,586.07c-10.3-7.49-20.41-9.43-22.87-1.64s9.08,17,11.76,18.3c0,0-11.1-14.84-4.57-15,1.76,6.43,13.76,20.29,22.54,12.74a19.34,19.34,0,0,1,4.9,9.15C388.69,605.54,385.78,593.55,375.49,586.07Z"/></g><g id="Forma_5620" data-name="Forma 5620"><path class="cls-18" d="M375.49,586.07a38.58,38.58,0,0,0-11.09-5.85c-.75,2.5-.72,7.12,6.19,12.38,5.68,4.33,10.82,5.42,14.41,4.81A30.79,30.79,0,0,0,375.49,586.07Z"/></g><g id="Forma_5619_copia" data-name="Forma 5619 copia"><path class="cls-17" d="M451.28,584.43c-2.45-7.79-12.57-5.85-22.87,1.64s-13.2,19.47-11.76,23.52a19.34,19.34,0,0,1,4.9-9.15c8.78,7.55,20.78-6.31,22.54-12.74,6.53.19-4.57,15-4.57,15C442.2,601.39,453.74,592.23,451.28,584.43Z"/></g><g id="Forma_5620_copia" data-name="Forma 5620 copia"><path class="cls-18" d="M439.5,580.22a38.58,38.58,0,0,0-11.09,5.85,30.79,30.79,0,0,0-9.51,11.34c3.59.61,8.73-.48,14.41-4.81C440.22,587.34,440.25,582.72,439.5,580.22Z"/></g><g id="Forma_5621_copia" data-name="Forma 5621 copia" class="cls-19"><path class="cls-13" d="M362.42,595.87c12.09,20.7,20.58,8.49,20.58,8.49C372.53,608.78,362.42,595.87,362.42,595.87Zm-10.45-19c-6.36,4.72-2,8.17-2,8.17s1.16-15.41,25.48-1.31C375.49,583.78,358.32,572.2,352,576.92Zm68.93,27.44s8.49,12.21,20.58-8.49C441.48,595.87,431.37,608.78,420.9,604.36Zm31-27.44c-6.36-4.72-23.53,6.86-23.53,6.86,24.32-14.1,25.49,1.31,25.49,1.31S458.29,581.64,451.94,576.92Z"/></g></svg>