<svg id="Assets" xmlns="http://www.w3.org/2000/svg" viewBox="0 0 800 800"><defs><style>.cls-1{fill:#e8e6e6;}.cls-2{fill:#574c61;}.cls-3{fill:#91849f;}.cls-4{opacity:0.36;}.cls-5{fill:#3e3247;}.cls-6{opacity:0.26;}.cls-7{fill:#ff665d;}.cls-8{opacity:0.27;}.cls-9{fill:#ffb95a;}.cls-10{fill:#ffe6c2;}.cls-11{fill:#eaa000;}</style></defs><g id="Forma_32_copia_3" data-name="Forma 32 copia 3"><path class="cls-1" d="M683.66,493.18C698,339.67,643.89,178.27,404,178.09h-.39C163.76,178.27,109.7,339.67,124,493.18c0,0-98.34,134.49,91.05,214.92,88.37,37.53,130.49,54,185.37,54,60.26,0,99.29-15.25,192.2-54C782.51,628.88,683.66,493.18,683.66,493.18Z"/></g><g id="Forma_3434_copia" data-name="Forma 3434 copia"><path class="cls-2" d="M683.66,493.18C698,339.67,643.89,178.27,404,178.09h-.39C163.76,178.27,109.7,339.67,124,493.18c0,0-85.56,117,56.66,198-78.54-99-15.29-143.58-7.68-189.9,4.71-28.69-23.45-214.8,139-162.59,124.65,40.06,25.67,213.21,25.67,213.21l62,18.78v1.19l2-.59,2,.59v-1.19l62-18.78s-99-173.15,25.68-213.21c162.49-52.21,134.34,133.9,139,162.59,7.73,47,72.81,92.22-11.39,194.48C772.85,615.63,683.66,493.18,683.66,493.18Z"/></g><g id="Forma_32_copia_6" data-name="Forma 32 copia 6"><path class="cls-3" d="M571.08,216.16c-41.47-23.87-96.15-38-167.06-38.07h-.39C163.76,178.27,109.7,339.67,124,493.18c0,0-93.86,131.57,70.37,206.34-133.74-76-48.62-195.29-48.62-195.29-14.29-153.51,39.77-314.91,279.64-315.08h.39C484.92,189.19,532.76,199,571.08,216.16Z"/></g><g id="BEAK1_copia_3" data-name="BEAK1 copia 3" class="cls-4"><path class="cls-5" d="M683.66,493.18C695.65,364.38,659.52,230,505.92,190c137.38,45.91,170,174.22,158.49,297.45,0,0,101.42,142.17-91,214.92-33.14,12.53-57.88,23.23-79.68,31.7,42.4-30.05,47.74-82,43.67-103-9.07-46.86-80.11-86-124.7-86.27h-.53c-44.6.25-115.64,39.41-124.7,86.27-5.58,28.82,6.47,115.41,107,124.69-2.7.07-5.44.1-8.26.1a3.47,3.47,0,0,1-1.61-.41,3.43,3.43,0,0,1-1.6.41c-25.61,0-45.74-2.67-65.16-7.66,25.93,8.62,50.32,13.37,84.41,13.37a3.36,3.36,0,0,0,1.61-.42,3.3,3.3,0,0,0,1.6.42c70.69,0,99.65-20.4,187.18-53.48C785.08,635.35,683.66,493.18,683.66,493.18Z"/></g><g id="Forma_2877_copia" data-name="Forma 2877 copia"><path class="cls-2" d="M455.49,179.79C425.22,146,420.9,115.54,431.8,98c0,0-31.42,26.29-28.16,51.65,0,0-14.28-29.4-53.71-35.31,0,0-24.88,28.46-12.88,62.82,0,0-41.33,9.82-65.34,0,0,0,14.92,27.41,49.12,31.91,0,0-37.29,25.35-35.15,45.1,0,0,52.13-25.85,73.8-5.63s65.3,49.86,106-1.81C465.45,246.79,486.49,214.43,455.49,179.79Z"/></g><g id="Forma_2877_copia_3" data-name="Forma 2877 copia 3"><path class="cls-3" d="M320.83,209.13s-37.29,25.35-35.15,45.1c0,0,5.38-22.36,58.36-51.2-33.82-3.93-54.8-9.72-72.33-25.81C271.71,177.22,286.63,204.63,320.83,209.13ZM431.8,98s-31.68,24.94-28,51c2.36,2.41,6.52,9.18,6.52,9.18C409,148.29,412.79,121.52,431.8,98ZM337.05,177.2s9.77-2.74,12-4.74c-10.07-20-1.34-52.61.87-58.08C349.93,114.38,325.05,142.84,337.05,177.2Z"/></g><g id="CHICKENCHEEKS2" class="cls-6"><path class="cls-7" d="M241.75,545.18c-27.71-8.5-54.8-.56-58.28,15.69-3.16,14.76,13.67,29.75,35.24,35.79,21.34,6,44.87,2.6,53.64-9.89C282.06,572.93,268.75,553.45,241.75,545.18Z"/></g><g id="CHICKENCHEEKS2_copia_2" data-name="CHICKENCHEEKS2 copia 2" class="cls-8"><path class="cls-7" d="M627.75,560.87c-3.48-16.25-30.58-24.19-58.29-15.69-27,8.27-40.31,27.75-30.6,41.59,8.78,12.49,32.31,15.86,53.65,9.89C614.08,590.62,630.9,575.63,627.75,560.87Z"/></g><g id="BEAK1_copia_4" data-name="BEAK1 copia 4"><path class="cls-9" d="M518.21,618.67c-5.06-53.83-73.3-102.06-117.58-102.38h-.53c-44.27.32-111.8,48.54-116,102.38-2.22,28,12.86,127.71,117.83,127.93h.4C507.3,746.38,520.84,646.65,518.21,618.67Z"/></g><g id="Elipse_3435" data-name="Elipse 3435"><path class="cls-10" d="M400.63,516.29h-.53c-44.27.32-111.8,48.54-116,102.38-1.16,14.67,2.42,49,21.14,78.36-12.52-26-15-52.95-14-65.52,2.5-31.71,26.94-61.46,55.66-80.63-2.05,3.31-2.15,6.35.21,8.18,4.3,3.35,15.13,1.42,24.19-4.31s12.91-13.09,8.61-16.43c-1.48-1.16-3.73-1.68-6.41-1.65,11.79-4.77,23.42-7.47,33.78-7.55h.53c33.13.24,79.66,27.3,103.12,63.45C491.19,550.17,437.57,516.56,400.63,516.29Z"/></g><g id="BEAK1_copia_6" data-name="BEAK1 copia 6"><path class="cls-11" d="M518.21,618.67c-1.39-14.8-7.54-29.19-16.71-42.32a83,83,0,0,1,7.95,27.51c2.8,28.31-10.13,130.09-116.2,130.31h-.41c-40.78-.09-68-14.84-86.41-35.33,17.58,26.64,46.83,47.66,95.46,47.76h.4C507.3,746.38,520.84,646.65,518.21,618.67Z"/></g></svg>