<svg id="Assets" xmlns="http://www.w3.org/2000/svg" viewBox="0 0 800 800"><defs><style>.cls-1{fill:#a4adb5;}.cls-2{fill:#c7ced1;}.cls-3{fill:#828893;}.cls-4{opacity:0.68;}.cls-5{opacity:0.48;}.cls-6{fill:#cfcccf;}.cls-7{fill:#d8dfe1;}.cls-8{opacity:0.17;}.cls-9{fill:#e6e5e5;}.cls-10{opacity:0.74;}.cls-11{fill:#fff;}.cls-12{fill:#1d1f21;}.cls-13{fill:#42464b;}.cls-14{opacity:0.27;}</style></defs><g id="Forma_6629" data-name="Forma 6629"><path class="cls-1" d="M299.92,182.23c-18.3-28.7-79.74-127.34-113-80.32S95.52,258.62,152.24,401.16L344.62,247S318.23,210.93,299.92,182.23Z"/></g><g id="Forma_6629_copia" data-name="Forma 6629 copia"><path class="cls-2" d="M272.55,193.7c-8.49-12.1-26.11-39-41.35-57.22-15.69-18.19-29.47-28.21-41.36-8.34a341.17,341.17,0,0,0-38.61,98.68c-9.47,45-11.47,100.87,12.8,162.68,25.44-23.61,50.69-47.42,75.24-71,24.71-23.55,48.63-47,75.22-69.92C314.61,248.62,289.27,218,272.55,193.7Z"/></g><g id="Forma_6631" data-name="Forma 6631"><path class="cls-3" d="M235.8,218.83s-4.73,20.62-2.59,30.76c0,0-18-14.7-24.29-33.68,0,0,.69,40,8.42,51.5,0,0-16.07-7-22-21.38,0,0,.81,24.58,10,36.92,0,0-10.78,3.43-18.14,1.95,0,0,6.68,15.55,30.77,15.22l45.34-35.95S243.75,251,235.8,218.83Z"/></g><g id="Forma_6629-2" data-name="Forma 6629"><path class="cls-1" d="M628,104.18c-31.24-48.41-96.86,47.5-116.38,75.38s-47.44,62.8-47.44,62.8L649.73,404.64C712.52,264.67,659.2,152.58,628,104.18Z"/></g><g id="Forma_6629_copia-2" data-name="Forma 6629 copia"><path class="cls-2" d="M656.81,230.9c-9-45-27.39-78.91-39-98.9-12.28-20-26.32-10.26-41.16,6.86-14.45,17.13-31.2,42.49-39.66,54-16.29,22.93-42.74,52.33-42.7,52.35,25.41,24.14,47.72,48.85,71.57,73.36,23.6,24.54,48.25,49.18,72.64,73.86C665,331.9,665.4,276,656.81,230.9Z"/></g><g id="Forma_6631-2" data-name="Forma 6631"><path class="cls-3" d="M601.42,287.5C611.17,275.57,613,251,613,251c-6.56,14.07-22.92,20.41-22.92,20.41,8.22-11.17,10.63-51.09,10.63-51.09C593.61,239.05,575,253,575,253c2.57-10.05-1.26-30.85-1.26-30.85-9.33,31.81-29.45,44.12-29.45,44.12l43.75,37.86c24.05,1.37,31.39-13.88,31.39-13.88C612,291.39,601.42,287.5,601.42,287.5Z"/></g><g id="Forma_6628" data-name="Forma 6628"><path class="cls-1" d="M741,538.16c-1.29-17.95-23.64-54.73-23.64-54.73,10-2.07,29.47,10,8.74-10.69S692,450.1,662.33,418.33c-21.18-22.72-7.15-50-69-118.54-41.16-45.63-113.34-61.08-157-66.31,4.12-6.36,10.52-17,12.55-24.37,1.13-4.09,3.53-18.85-1.94-11s-24.29,22-24.29,22c8-10.32,10.85-24,11.66-28.17s2.67-25.5-4.86-11-41.78,42.43-41.78,42.43c4.52-20.37-1.85-33.5-7.45-21.05-4.3,9.57-24,26.24-32.87,33.44-43.74,7-104.34,23.71-140.72,64-61.83,68.56-47.8,95.82-69,118.54-29.62,31.77-43.07,33.72-63.8,54.41s-1.23,8.62,8.74,10.69c0,0-22.35,36.78-23.64,54.73s2.85,5.53,6.8-.32,11.15-12.39,13.6-14.25C74.51,543.91,73,554,75.16,567s4.67,1.85,6.48-2.26,4.36-9.44,7.77-12.63c0,0-1.58,25.73,5.18,40.48s4.09,3.56,4.86-.65,2.07-10.6,5.18-15.22c0,0,16.3,70.65,66.72,95.86S228,689.77,257.5,703.33c23.17,10.65,36.68,67,142.18,67h.64c105.5,0,119-56.39,142.18-67,29.52-13.56,35.73-5.56,86.15-30.77s66.72-95.86,66.72-95.86c3.11,4.62,4.41,11,5.18,15.22s-1.91,15.4,4.86.65,5.18-40.48,5.18-40.48c3.41,3.19,6,8.51,7.77,12.63s4.34,15.22,6.48,2.26.65-23.07-4.21-43.39c2.45,1.86,9.66,8.4,13.6,14.25S742.32,556.11,741,538.16Z"/></g><g id="Forma_6640" data-name="Forma 6640" class="cls-4"><path class="cls-3" d="M741,538.16c-1.24-17.23-21.86-51.78-23.53-54.55a33.94,33.94,0,0,0-12.42-4.39s26.75,42.6,35.5,68.24C741.26,547.15,741.5,544.62,741,538.16Zm-6-53.45c1-1-1-4.11-8.93-12-20.73-20.69-34.18-22.64-63.8-54.41-21.18-22.72-7.15-50-69-118.54-32.69-36.25-85-53.45-127-61.61,26.72,11.61,100.8,45.44,122.74,72.95,34.55,43.33,38.73,63.08,60.24,106.23C669.37,457.46,714.1,463.18,735.06,484.71ZM651.9,656c32.34-31,43.47-79.25,43.47-79.25.26.39.5.79.74,1.2-1.66-7.12-4.67-15.65-9.49-22.58C686.62,555.32,675.14,618.74,651.9,656ZM698,538.48s5.19,43.61,3.26,61.45c.61-.22,1.82-2.2,4.19-7.36,6.38-13.93,5.33-37.64,5.19-40.24C708.11,546.83,704.17,541.36,698,538.48Zm14.9-22S721,552.62,722.73,573c.72-.27,1.44-2,2.11-6,2.13-12.91.66-23-4.17-43.22A25.39,25.39,0,0,0,712.86,516.46Z"/></g><g id="Forma_6639" data-name="Forma 6639" class="cls-5"><path class="cls-6" d="M81.62,485.08c-4.33,7.36-21.52,37.4-22.65,53.08-.59,8.17,0,10.05,1.08,9.12,3.19-18.06,34.54-68.39,34.54-68.39A55.2,55.2,0,0,0,81.62,485.08Zm7.79,67.11c-.1,1.72-1.34,26.15,5.18,40.38,2.23,4.85,3.43,6.9,4.07,7.31-3-14.16-3.42-57.51-3.42-57.51C92.75,544.79,90.85,548.37,89.41,552.19ZM79.34,523.61l0,0C74.51,543.91,73,554,75.16,567c.89,5.4,1.85,6.62,2.79,5.91-1.07-15.5,8.87-57.4,8.87-57.4A38,38,0,0,0,79.34,523.61Zm25.47,53.8c1.7,6.82,16.31,61.14,55.28,88.43-29.7-36.84-49.95-101.12-49.95-101.12C107,567,105.46,571.83,104.81,577.41ZM447,198.1c-4.47,6.4-17.82,17-22.58,20.71-4.42,5.09-9,10.86-8.19,12.32,0,0,25.84-12.85,33.46-35.24C449.11,195.65,448.26,196.24,447,198.1Zm-17.49-17.17c-6.8,13.08-35.37,37.12-40.86,41.67l-2.21,8.86s41.69-25.49,47.91-55C433.51,175.23,432,176,429.47,180.93Zm-49.23,21.38c-4.3,9.57-24,26.24-32.87,33.44-43.74,7-104.34,23.71-140.72,64-61.83,68.56-47.8,95.82-69,118.54-29.62,31.77-43.07,33.72-63.8,54.41-8.12,8.1-10.07,11.18-8.83,12.05,9.77-7.34,28.09-20.79,40.56-27.92,17.73-10.13,31.94-16.17,58.62-57.33,22.67-35,51-125.18,159-148,37.29-6.31,45.95-24.55,62.16-53.95C383.84,197,382,198.39,380.24,202.31Z"/></g><g id="Forma_6625_copia" data-name="Forma 6625 copia"><path class="cls-6" d="M619.26,600.34c-35-24.87-54.21-14.63-106.23-40.81-31.78-16-103.56-14.25-112.71-13.95-9.14-.3-80.92-2-112.7,13.95-52,26.18-71.26,15.94-106.23,40.81-21.83,15.53-27,42-19.68,66.61a89.14,89.14,0,0,0,9.64,5.61c50.42,25.21,56.63,17.21,86.15,30.77,23.17,10.65,36.68,67,142.18,67h.64c105.5,0,119-56.39,142.18-67,29.52-13.56,35.73-5.56,86.15-30.77a86,86,0,0,0,10.44-6.16C646.16,642,640.92,615.75,619.26,600.34Z"/></g><g id="Forma_6619" data-name="Forma 6619"><path class="cls-7" d="M317.09,322.14C270,296.05,173.4,384.13,185,507.72A32.56,32.56,0,0,0,201.15,521c14,5.38,87.53,34.66,153.83,9.72,10.38-3.58,11.61-9,12.63-25.26C370.8,454.83,364.17,348.23,317.09,322.14Z"/></g><g id="Forma_6619_copia" data-name="Forma 6619 copia"><path class="cls-7" d="M475.14,322.14c-47.08,26.09-53.71,132.69-50.53,183.31,1,16.27,2.26,21.68,12.63,25.26,66.31,24.94,139.85-4.34,153.84-9.72a32.5,32.5,0,0,0,16.19-13.27C618.83,384.13,522.21,296.05,475.14,322.14Z"/></g><g id="Forma_6621_copia_2" data-name="Forma 6621 copia 2"><path class="cls-3" d="M481,551c-4.34-6.74-31.61-22.54-46.32-49.68-19.95-36.82-49.45-36-69,0-14.71,27.14-42,42.94-46.31,49.68s14.57,13,14.57,13H466.39S485.3,557.77,481,551Z"/></g><g id="Forma_6641" data-name="Forma 6641" class="cls-8"><path class="cls-6" d="M378.3,495.1c-11.56,23.2-23.73,35-30.86,41.62-7.52,6.6-10.38,8.34-10.59,8.28.15,0,10.52,5.44,12.79,3.38a263.28,263.28,0,0,0,17.12-21.27c7.95-11,14.85-23.53,16.76-28.64,4.06-10.29,12.2-17.51,12.36-17.46C395.88,481,385.5,480.13,378.3,495.1Z"/></g><g id="Forma_6626" data-name="Forma 6626"><path class="cls-9" d="M528.58,572.81c-35.57-46.2-221.59-46.2-257.16,0-18.21,23.66-15.38,31.17-11.33,46S278.3,661.6,284.7,668c0,0,7.27,75.15,42.11,93.6a94.28,94.28,0,0,0,15,6.21C348,774.35,358.1,783,369.88,785c0,0,.09-6.8,2.7-10.63l1.35.16c3,3.14,13.2,13.17,22.51,14.35,0,0,4.95-10.15,10.36-13,0,0,6.88,5.79,9.39,9.39,0,0,10.18-6.68,12-11,0,0,2.2,7.68,1.94,12,5.4-2.55,20.09-9.48,22.65-16.78h0c0,.77-.23,11.08-1.62,14.2,2.91-2.62,18.58-11.95,22.33-22.19C508.07,742.73,515.3,668,515.3,668c6.4-6.43,20.54-34.32,24.61-49.23S546.79,596.47,528.58,572.81Z"/></g><g id="Forma_6642" data-name="Forma 6642" class="cls-10"><path class="cls-11" d="M271.42,572.81c-18.21,23.66-15.38,31.17-11.33,46,3.38,12.38,13.7,33.7,20.77,44.27-8.87-26.69-10.08-60.78-10.08-60.78,7.08-22.11,54.41-40.16,54.41-40.16l74.16-9.4.78-14.57C344.69,538.14,289.22,549.69,271.42,572.81Z"/></g><g id="Forma_6622" data-name="Forma 6622"><path class="cls-12" d="M467,549.82c-13-7.67-41.71-13.05-77.08-12.31,0,0-61.29,2-69.31,21,0,0-7.72,30.27,18.14,38.87s34.33,5.83,34.33,5.83,16.64,18,26.23,19.11,33.71-21.12,36.28-22.35c0,0,21.45-.72,32.71-11.34S480,557.48,467,549.82Z"/></g><g id="Forma_6623" data-name="Forma 6623"><path class="cls-13" d="M467,549.82c-13-7.67-41.71-13.05-77.08-12.31,0,0-61.29,2-69.31,21,0,0-7.72,30.27,18.14,38.87,2.43.81,4.71,1.51,6.84,2.13-4-11.31-9-33.38,9-42.29,24.79-12.23,95.91-8.61,106.23,1,7,6.49,12.11,13.68,13.4,22C479.1,569.4,477.09,555.75,467,549.82Z"/></g><g id="Forma_6624" data-name="Forma 6624" class="cls-14"><path class="cls-11" d="M355.78,546c-3.36.37-13.44,4.07-13.28,4.61a32.29,32.29,0,0,0-5.08,3.72c-1.77,1.65-2.8,3.51-1.49,5.07s4,2.55,7-.65,8-5.37,11.72-6.76c1.66-.75,7.06-.9,7.11-3.28C361.82,545.45,359.05,545.34,355.78,546Z"/></g></svg>