<svg id="Assets" xmlns="http://www.w3.org/2000/svg" viewBox="0 0 800 800"><defs><style>.cls-1{fill:#ff6410;}.cls-2{fill:#76311f;}.cls-3{fill:#4b190d;}.cls-4{fill:#ccc;}.cls-5{fill:#ebebeb;}.cls-6{opacity:0.49;}.cls-7{fill:#fff;}.cls-8{fill:#561801;}.cls-9{opacity:0.45;}.cls-10{fill:#784941;}.cls-11{fill:#58281f;}</style></defs><g id="Forma_4467" data-name="Forma 4467"><path class="cls-1" d="M136.82,309.92C98,292,49.09,325.37,74.72,408s96.12,35.68,96.12,35.68L193,311.9S175.62,327.83,136.82,309.92Z"/></g><g id="Forma_4468" data-name="Forma 4468"><path class="cls-2" d="M133.52,357.15c-25.65-14.84-40.3-19.49-40.3-19.49s-21.3,13,1.32,78.95,82.58-58.8,82.58-58.8S159.17,372,133.52,357.15Z"/></g><g id="Forma_4470" data-name="Forma 4470"><path class="cls-3" d="M148.61,363.07a50.55,50.55,0,0,1-15.09-5.92c-25.65-14.84-40.3-19.49-40.3-19.49s-5.71,3.5-8.08,16c3.87-2.11,10.49-3.9,19,.83,13.89,7.74,38.6,41.26,52.52,37.33C157,390.69,152.27,375,148.61,363.07Z"/></g><g id="Forma_4467-2" data-name="Forma 4467"><path class="cls-1" d="M670.62,309.92c-38.81,17.91-56.16,2-56.16,2l22.13,131.8s70.49,47,96.13-35.68S709.42,292,670.62,309.92Z"/></g><g id="Forma_4468-2" data-name="Forma 4468"><path class="cls-2" d="M714.22,337.66s-14.65,4.65-40.3,19.49-43.6.66-43.6.66,60,124.73,82.58,58.8S714.22,337.66,714.22,337.66Z"/></g><g id="Forma_4470-2" data-name="Forma 4470"><path class="cls-3" d="M714.22,337.66s-14.65,4.65-40.3,19.49a50.66,50.66,0,0,1-15.09,5.92c-3.66,11.93-8.34,27.62-8,28.77,13.92,3.93,38.63-29.59,52.52-37.33,8.49-4.73,15.11-2.94,19-.83C719.93,341.16,714.22,337.66,714.22,337.66Z"/></g><g id="Forma_4458_copia" data-name="Forma 4458 copia"><path class="cls-1" d="M729.08,497.21C714.92,341.66,519,212.31,399.4,211.16h-1.6c-119.55,1.15-315.52,130.5-329.69,286,0,0,12-16.52,24.87-21.8,0,0-14.88,37.91-11.63,73.33,0,0,14.41-10,24.87-9.91,0,0-16.6,53.51,14.2,109.33.13-1.65,19.56-28.86,37.78-35.67,0,0-11.36,58.66,18.73,105.7,11.71-10.86,35.38-62.84,61.67-51.86s17.23,10.79,14.86,40.3,13.43,55.91,40.68,69.37c0,0-2.5-4-2.58-12.56,0,0,21.08,21.58,58.77,28.74a83.43,83.43,0,0,1-5.82-13.87s21.66,12,54.09,8.93c32.43,3.1,54.08-8.93,54.08-8.93a83,83,0,0,1-5.81,13.87c37.69-7.16,58.77-28.74,58.77-28.74-.08,8.53-2.58,12.56-2.58,12.56,27.25-13.46,43.06-39.86,40.68-69.37s-11.44-29.32,14.85-40.3,50,41,61.68,51.86c30.09-47,18.73-105.7,18.73-105.7,18.22,6.81,37.65,34,37.77,35.67C707.58,592.34,691,538.83,691,538.83c10.46-.1,24.87,9.91,24.87,9.91,3.24-35.42-11.63-73.33-11.63-73.33C717.05,480.69,729.08,497.21,729.08,497.21Z"/></g><g id="Forma_4464" data-name="Forma 4464"><path class="cls-4" d="M337,403.73c-22.91-23.5-97.92-91-151.28,27.41-17.59,39,17.59,152.54,171.76,90.18l14.87-59.79S359.91,427.22,337,403.73Z"/></g><g id="Forma_4464_copia" data-name="Forma 4464 copia"><path class="cls-4" d="M617.11,431.14c-53.36-118.44-128.37-50.91-151.29-27.41s-35.34,57.8-35.34,57.8l14.86,59.79C599.52,583.68,634.69,470.17,617.11,431.14Z"/></g><g id="Forma_4460_copia_2" data-name="Forma 4460 copia 2"><path class="cls-5" d="M136.23,350.77c.64-.74,1.27-1.48,1.92-2.22C138.15,348.55,137.44,349.3,136.23,350.77ZM729.08,497.21c-5-54.51-32.25-105.8-70.75-149.48,0,0,63.54,99.17.36,217.85-46.12,86.65-113.36,66.51-117.86,40.3S485.17,465.78,398.44,465.5h-.33c-86.72.28-137.91,114.21-142.39,140.38s-70.86,45.85-117.86-40.3C70.06,441.3,125,364.46,136.23,350.77,99.13,393.78,73,444,68.11,497.21c0,0,12-16.52,24.87-21.8,0,0-14.88,37.91-11.63,73.33,0,0,14.41-10,24.87-9.91,0,0-16.6,53.51,14.2,109.33.13-1.65,19.56-28.86,37.78-35.67,0,0-11.36,58.66,18.73,105.7,11.71-10.86,35.38-62.84,61.67-51.86s17.23,10.79,14.86,40.3,13.43,55.91,40.68,69.37c0,0-2.5-4-2.58-12.56,0,0,21.08,21.58,58.77,28.74a83.43,83.43,0,0,1-5.82-13.87s21.66,12,54.09,8.93c32.43,3.1,54.08-8.93,54.08-8.93a83,83,0,0,1-5.81,13.87c37.69-7.16,58.77-28.74,58.77-28.74-.08,8.53-2.58,12.56-2.58,12.56,27.25-13.46,43.06-39.86,40.68-69.37s-11.44-29.32,14.85-40.3,50,41,61.68,51.86c30.09-47,18.73-105.7,18.73-105.7,18.22,6.81,37.65,34,37.77,35.67C707.58,592.34,691,538.83,691,538.83c10.46-.1,24.87,9.91,24.87,9.91,3.24-35.42-11.63-73.33-11.63-73.33C717.05,480.69,729.08,497.21,729.08,497.21Z"/></g><g id="Forma_4498" data-name="Forma 4498" class="cls-6"><path class="cls-7" d="M157.68,615.75c-1.85,12.94-6.63,62,19.25,102.44.15-.13.3-.28.45-.43-6.49-43.12,4.36-140,4.36-140A116.87,116.87,0,0,0,157.68,615.75Zm-65-139.57c-2.07,5.53-14.32,40.09-11.34,72.56l.55-.37c7.2-29.58,25.85-86.18,25.85-86.18A72.27,72.27,0,0,0,92.69,476.18Zm13.5,62.65h0s-16.6,53.51,14.2,109.33A4.68,4.68,0,0,1,121,647c-5.69-45.37,7.55-142.83,7.55-142.83C119.89,512.26,112.31,525.44,106.19,538.83ZM584.75,673.4c15.19,13.21,27.89,37.72,35.52,44.79.14-.23.28-.46.43-.69C616.72,692.57,598.88,679.75,584.75,673.4ZM68.11,497.21s.94-1.29,2.57-3.25l.08-.39C140.81,290.07,336.66,223,336.66,223a21.14,21.14,0,0,0,1.43-2.6C222.21,252.77,80.1,365.61,68.11,497.21ZM268,718.19c-3.79-26.31-8.27-36.54-11.61-40.39,1.87,5.07-1.56,12.28-2.89,28.83-2.38,29.51,13.43,55.91,40.68,69.37a11.55,11.55,0,0,1-.7-1.5C284.82,767.13,273.25,755,268,718.19Z"/></g><g id="Forma_4465" data-name="Forma 4465"><path class="cls-8" d="M195.29,528.92s-39.34-21.24-43.6-67.06,11.84-81.4,11.89-82.91c0,0-41.23,24.23-25.77,89.52S195.29,528.92,195.29,528.92ZM121.53,429c.26-.77.43-1.17.43-1.17C121.75,427.78,121.6,428.19,121.53,429ZM161.6,540.48C129.18,500.6,120.68,438.28,121.53,429c-2.9,8.31-18.15,59.87,25.2,120.06,47.36,65.77,92.84,45.58,102.4,20.15C249.13,569.22,196.88,583.89,161.6,540.48Zm22.13-80.93c-3.95-39.59,23.12-94.8,23.12-94.8s-50.69,43.69-39,100.09,78.31,84.23,87.87,75.31C255.82,537.65,187.67,499.14,183.73,459.55Z"/></g><g id="Forma_4465_copia" data-name="Forma 4465 copia"><path class="cls-8" d="M628,464.84c11.71-56.4-39-100.09-39-100.09s27.07,55.21,23.12,94.8-72.09,78.1-72,80.6C549.7,549.07,616.29,521.23,628,464.84Zm16.18-3c-4.27,45.82-43.6,67.06-43.6,67.06s42,4.84,57.48-60.45S632.3,379,632.3,379C632.35,380.46,648.46,416,644.19,461.86Zm29.73-34s.16.4.43,1.17C674.28,428.19,674.13,427.78,673.92,427.84Zm.43,1.17c.85,9.27-7.65,71.59-40.07,111.47-35.28,43.41-87.53,28.74-87.53,28.74,9.56,25.43,55,45.62,102.4-20.15C692.49,488.88,677.25,437.32,674.35,429Z"/></g><g id="Forma_4492_copia" data-name="Forma 4492 copia"><path class="cls-8" d="M492,283c-20.71-10.83-67.57,7.35-85.65,8.37-18.08-1-64.94-19.2-85.65-8.37-21.3,11.15-1.18,2.62,17.16,2,18-.56,40.16,18.84,67.65,19.61v0h1.65v0c27.5-.77,49.67-20.17,67.65-19.61C493.2,285.58,513.32,294.11,492,283Z"/></g><g id="Forma_4494" data-name="Forma 4494"><path class="cls-1" d="M494.32,211.45a92.73,92.73,0,0,0-13.49-1.18c37.44-11.25,51.66-51.6,51.66-51.6-24.11,5.6-29.52,6.46-55.81,8.54s-34.53,10.66-34.53,10.66c15.6-23.63-.93-48.83-.93-48.83-5.87,20.09-27.42,28.88-38.09,36.11s-16.35,19.53-16.35,19.53c3.46-21.79-14.11-40.39-14.11-40.39,3,14.4-28.91,38.41-35.21,47.76C326.41,208.44,324.69,244,367,253c122.3,25.87,171.67-39.16,174.19-39.51C512,219,502.14,212.67,494.32,211.45Z"/></g><g id="Forma_4494-2" data-name="Forma 4494" class="cls-9"><path class="cls-7" d="M476.68,167.21c-18.78,1.48-28.34,6.28-32.28,8.91-8.54,8.55-16.51,21.58-18.22,41,0,0,17.72-28.47,38.32-30.72,16-1.75,50-14.64,67.77-27.66C508.36,164.28,502.89,165.14,476.68,167.21Zm-104-22.92c3,14.4-28.91,38.41-35.21,47.76-7.06,10.48-10.31,28.78-.68,43,1.16-13.52,5.38-39,20.69-50.29s18.11-26,16.27-39.22C373.07,144.72,372.67,144.29,372.67,144.29ZM441.22,129c-5.87,20.09-27.42,28.88-38.09,36.11-7.19,4.88-12.11,12-14.56,16.21a22.66,22.66,0,0,0-1,4.36c-2.74,22-1.71,27.57,2,38.64,0,0,10.33-34.12,27.41-45.91,14.1-9.73,24.65-30.93,24.81-48.55C441.41,129.34,441.22,129,441.22,129Z"/></g><g id="Forma_31" data-name="Forma 31"><path class="cls-10" d="M98.66,584.45s99.16-39,216.51,11.74C315.17,596.19,193.09,532,98.66,584.45Z"/></g><g id="Forma_31_copia" data-name="Forma 31 copia"><path class="cls-10" d="M108.93,658.89s83.32-62.33,208-51.18C316.92,607.71,185.71,585.87,108.93,658.89Z"/></g><g id="Forma_31_copia_2" data-name="Forma 31 copia 2"><path class="cls-10" d="M152.15,710.26s54.29-69.77,160.11-96.42C312.26,613.84,199.94,633.62,152.15,710.26Z"/></g><g id="Forma_31-2" data-name="Forma 31"><path class="cls-10" d="M487.19,595.35c134.85-50.53,216.45-7.26,216.45-7.26C624.77,531.69,487.19,595.35,487.19,595.35Z"/></g><g id="Forma_31_copia-2" data-name="Forma 31 copia"><path class="cls-10" d="M483.77,609c140.73-11.17,208,49.65,208,49.65C628,586.11,483.77,609,483.77,609Z"/></g><g id="Forma_31_copia_2-2" data-name="Forma 31 copia 2"><path class="cls-10" d="M489.05,616.33C607.23,644.51,652,712.88,652,712.88,611.46,635.32,489.05,616.33,489.05,616.33Z"/></g><g id="Forma_4461_copia" data-name="Forma 4461 copia"><path class="cls-1" d="M470.77,552.37c-36.56-150.18-104.8-150.18-141.37,0-7,57,66.71,73.33,70.69,73.33S477.75,609.38,470.77,552.37Z"/></g><g id="Forma_4462_copia" data-name="Forma 4462 copia"><path class="cls-10" d="M463.18,565.25c-14.68-2-28.81,28.68-63.59,30.34-34.78-1.66-48.91-32.37-63.59-30.34a31.28,31.28,0,0,0-6.62,1.63c5.82,45.32,67.09,58.82,70.71,58.82s64.54-13.42,70.66-58.44A29.91,29.91,0,0,0,463.18,565.25Z"/></g><g id="Forma_4463_copia" data-name="Forma 4463 copia"><path class="cls-11" d="M341,580.78c-5.21,1.55.77,12,4.82,18.05,7.65,7.6,16.92,13.3,25.62,17.44C374.29,594.79,348.15,578.63,341,580.78Zm117.92,0c-7.21-2.15-33.45,14.08-30.42,35.64,8.91-4.21,18.44-10,26.24-17.9C458.81,591.78,463.63,582.2,458.88,580.78Zm-59.79,14.78v30a8.27,8.27,0,0,0,1,.11,5.76,5.76,0,0,0,.66-.06V595.52l-1.16.07C399.42,595.59,399.26,595.57,399.09,595.56Z"/></g></svg>