<svg id="Assets" xmlns="http://www.w3.org/2000/svg" viewBox="0 0 800 800"><defs><style>.cls-1{fill:#301c28;}.cls-2{fill:#472e3d;}.cls-3{fill:#f5f1e9;}.cls-4{opacity:0.72;}.cls-5{fill:#fffffd;}.cls-6{opacity:0.08;}.cls-7{fill:#36557c;}.cls-8{opacity:0.12;}.cls-9{opacity:0.13;}.cls-10{fill:#d3d4d4;}.cls-11{fill:#e7e6e1;}.cls-12{opacity:0.4;}.cls-13{fill:#bfc4c8;}.cls-14{fill:#f8f8f5;}.cls-15{fill:#594150;}.cls-16{fill:#402b38;}.cls-17{fill:#79596c;}</style></defs><g id="Forma_5705" data-name="Forma 5705"><path class="cls-1" d="M214.25,214.38c-12.51-1.86-16.9-16.49-24.52-12.26s-5.45,12.94-5.45,12.94-7.58-5.23-20.43-.34,0,12.6,0,12.6-15.93-1.47-20.43,5.78,7.83,8.18,7.83,8.18-14.94,66,49.38,87.5c71.89,24.1,80.35-61.29,80.35-61.29S259.33,221.08,214.25,214.38Z"/></g><g id="Forma_5721" data-name="Forma 5721"><path class="cls-2" d="M158.66,239.39c-7.21,1.26-14.54-2.22-16.2-3.76-.52,5,8.79,5.65,8.79,5.65s-7.19,31.76,9.9,58.41C148.79,257.42,157.58,239.82,158.66,239.39Zm36.47-21.45c-6.63-2-3.68-13.24-2.64-16.58a5.52,5.52,0,0,0-2.76.76c-7.62,4.22-5.45,12.94-5.45,12.94a6.88,6.88,0,0,0-.84-.48C188.59,218.24,193.26,217.79,195.13,217.94Zm0,0a5.19,5.19,0,0,0,.73.18A1.6,1.6,0,0,0,195.13,217.94Zm-34.49-1.62c-6.08,4.12.61,9.25,2.66,10.63,10.28,2.78,18.6-5.08,18.6-5.08C170,224,163,218.56,160.64,216.32ZM203,243c-33.9-4.72-27.92,14.3-27.92,14.3s7-13.33,28.26-4.43,38.13,28.94,38.13,28.94l12.6-9.53S236.9,247.69,203,243Z"/></g><g id="Forma_5705-2" data-name="Forma 5705"><path class="cls-1" d="M666.42,233.1c-4.5-7.25-20.43-5.78-20.43-5.78s12.85-7.71,0-12.6-20.43.34-20.43.34,2.18-8.72-5.45-12.94-12,10.4-24.51,12.26c-45.09,6.7-66.74,53.11-66.74,53.11s8.46,85.39,80.36,61.29c64.31-21.55,49.37-87.5,49.37-87.5S670.92,240.36,666.42,233.1Z"/></g><g id="Forma_5721-2" data-name="Forma 5721"><path class="cls-2" d="M606.83,243c-33.89,4.71-51.07,29.28-51.07,29.28l12.6,9.53s16.9-20,38.13-28.94,28.27,4.43,28.27,4.43S640.73,238.26,606.83,243Zm18.73-27.92s2.18-8.72-5.45-12.94a5.51,5.51,0,0,0-2.75-.76c1,3.34,4,14.59-2.64,16.58,1.87-.15,6.54.3,11.68-3.36A8.1,8.1,0,0,0,625.56,215.06ZM614,218.12a5.71,5.71,0,0,0,.74-.18A1.61,1.61,0,0,0,614,218.12Zm35.22-1.8c-2.33,2.24-9.36,7.65-21.26,5.55,0,0,8.33,7.86,18.61,5.08C648.6,225.57,655.29,220.44,649.2,216.32Zm18.18,19.31c-1.66,1.54-9,5-16.2,3.76,1.09.43,9.88,18-2.49,60.3,17.1-26.65,9.9-58.41,9.9-58.41S667.91,240.58,667.38,235.63Z"/></g><g id="Forma_5835" data-name="Forma 5835"><path class="cls-3" d="M736.56,528c-5.2-26.12-30.64-66.39-30.64-66.39,26.27,3.57,18.62-10.6,8.17-23.16a135.53,135.53,0,0,0-23.83-21.79s27.43,2.57,10.89-19.75c-44.17-59.6-59.07-64.95-60.49-65.34l-.12,0a.39.39,0,0,1,.12,0c8.28,2,15.55,4.39,15.55,4.39s27.71,6.82,8.51-13.28c-35.59-37.25-69.81-43.3-88.87-48.69,4.77.45,39.84,2.64,35.75-8.17-5.92-15.65-88.19-14-88.19-14,15.29-28.67-15.82-14.77-35.75-15-11-.12-31-5-55.06,4.91-11.29-6.31-27.65-16.21-38.89-26.31-10.19-9.16-24-5.64-28.51-.07-3.11,3.84-6.07,12.72,1.31,25.87-10.77-.81-21.21-1.36-27-1-15.23,1-71.15-17.28-57.55,11.58,0,0-82.27-1.69-88.18,14-4.09,10.81,31,8.62,35.75,8.17-19.06,5.39-53.28,11.44-88.87,48.69-19.2,20.1,8.51,13.28,8.51,13.28s7.27-2.36,15.55-4.39a.31.31,0,0,1,.11,0l-.11,0c-1.43.39-16.32,5.74-60.49,65.34-16.55,22.32,10.89,19.75,10.89,19.75a135.14,135.14,0,0,0-23.83,21.79C80.87,451,73.23,465.15,99.5,461.58c0,0-25.44,40.27-30.65,66.39S93,537.16,93,537.16s-20.53,21-17,68.78c1.84,25.14,26.89,2.73,26.89,2.73s-10.73,55.59,42.91,99.08c12.51,10.15,16.62-4.73,15.32-14,98,121.5,385.63,120.94,483.16,0-1.3,9.23,2.81,24.11,15.32,14,53.64-43.49,42.9-99.08,42.9-99.08s25,22.41,26.9-2.73c3.51-47.74-17-68.78-17-68.78S741.76,554.09,736.56,528Z"/></g><g id="Forma_5714" data-name="Forma 5714" class="cls-4"><path class="cls-5" d="M91.33,438.42C84,447.2,78.09,456.76,84.14,460.5c11-12.32,37.54-40.59,57.92-49.32,0,0-13.42.29-30.28,7.94A133.1,133.1,0,0,0,91.33,438.42Zm12.94-41.54c-7.52,10.15-6,15.15-2,17.59,11.16-14.54,58.25-74.62,86.11-89.43,0,0-12.12,1-30.2,10.44C150,341.64,133.61,357.29,104.27,396.88ZM68.85,528a25.16,25.16,0,0,0-.53,7.25c6.51-14,33.27-68.48,63.19-87.61,0,0-16,1.65-32.8,15.23C94.4,469.84,73.51,504.58,68.85,528ZM222.53,275.86c-19.79,5.26-50.27,13.76-81.83,46.79-9.46,9.9-7.53,13.27-3.15,14.14,15.91-10.51,84.66-55.21,112.79-61.81C248.37,274.91,240,273,222.53,275.86ZM364.6,241.11c-10.08-.73-19.64-1.2-25.05-.86-15.23,1-71.15-17.28-57.55,11.58,0,0-82.27-1.69-88.18,14-1.58,4.18,2.68,6.41,8.78,7.56,16.38-4.3,62.38-15.52,93.7-14.71C296.3,258.64,284.26,245.64,364.6,241.11Z"/></g><g id="Forma_5708" data-name="Forma 5708" class="cls-6"><path class="cls-7" d="M401.86,681.87,291.2,660.76s-18.43,20.34-36.1,17.37S219,637.61,219,637.61,209.5,656,189.73,650.89,173.05,594,173.05,594s-8.87,16.69-22.48,10.55c-22.77-10.27-2.38-49.71-2.38-49.71s-18.61,6.34-31.67-1-4.42-49.37-4.42-49.37c-26.6,34.15-38.3,36.45-43.42,32.72,3.34,12.07,24.35,0,24.35,0s-20.53,21-17,68.78c1.84,25.14,26.89,2.73,26.89,2.73s-10.73,55.59,42.91,99.08c12.51,10.15,16.62-4.73,15.32-14,28.6,35.47,61.86,90.91,241.41,90.91,0-17.4,0-36.13,0-55.81Z"/></g><g id="Forma_5709" data-name="Forma 5709" class="cls-8"><path class="cls-7" d="M358.61,758.49s-41.35-12.81-56.86-19.07c-25.16-10.16-28.6-39.16-28.6-39.16s-1.31,10.29-20.09,9.88c-20.81-.47-18.73-28.95-18.73-28.95s-6,4.92-22.81,7.15-21.79-25.19-21.79-25.19-10.84,10.62-20.43,6.47C144.63,658.94,153.64,623,153.64,623s-12.45,7.4-22.47,2.38c-16.79-8.41-25.88-43.58-25.88-43.58-15.57,15.61-24.51,18.69-29.63,17.39.06,2.2.17,4.46.35,6.78,1.84,25.14,26.89,2.73,26.89,2.73s-10.73,55.59,42.91,99.08c12.51,10.15,16.62-4.73,15.32-14,28.6,35.47,61.86,90.91,241.41,90.91,0-13.6,0-28,0-43.06Z"/></g><g id="Forma_5713" data-name="Forma 5713" class="cls-9"><path class="cls-7" d="M377,767.34c-53.77,11.8-83.08-21.45-83.08-21.45-38.61,11.7-54.14-17-54.14-17-17.23,10.59-28.14.4-40.18-16-10,5.5-20.69-.12-27.62-5.43,26.45,32.59,68,72.67,205.94,76.9Z"/></g><g id="Forma_5708_copia" data-name="Forma 5708 copia" class="cls-6"><path class="cls-7" d="M736.73,537.2c-5.11,3.73-16.81,1.43-43.41-32.72,0,0,8.63,42-4.43,49.37s-31.66,1-31.66,1,20.39,39.44-2.39,49.71c-13.6,6.14-22.47-10.55-22.47-10.55s3.08,51.74-16.68,56.86-29.29-13.28-29.29-13.28S568,675.15,550.31,678.13s-36.09-17.37-36.09-17.37L403.56,681.87l-.69,47c0,19.68,0,38.41,0,55.81,179.55,0,212.81-55.44,241.41-90.91-1.3,9.23,2.81,24.11,15.32,14,53.64-43.49,42.9-99.08,42.9-99.08s25,22.41,26.9-2.73c3.51-47.74-17-68.78-17-68.78S733.4,549.27,736.73,537.2Z"/></g><g id="Forma_5709_copia" data-name="Forma 5709 copia" class="cls-8"><path class="cls-7" d="M700.47,581.77s-9.09,35.17-25.88,43.58c-10,5-22.47-2.38-22.47-2.38s9,36-15.66,46.65c-9.59,4.15-20.43-6.47-20.43-6.47s-5,27.43-21.79,25.19-22.82-7.15-22.82-7.15,2.08,28.48-18.72,28.95c-18.78.41-20.09-9.88-20.09-9.88s-3.45,29-28.6,39.16c-15.51,6.26-56.87,19.07-56.87,19.07l-43.93-16.85c0,15,0,29.46,0,43.06,179.55,0,212.81-55.44,241.41-90.91-1.3,9.23,2.81,24.11,15.32,14,53.64-43.49,42.9-99.08,42.9-99.08s25,22.41,26.9-2.73q.25-3.48.35-6.78C725,600.46,716,597.38,700.47,581.77Z"/></g><g id="Forma_5713_copia" data-name="Forma 5713 copia" class="cls-9"><path class="cls-7" d="M605.81,712.86c-12,16.4-22.94,26.59-40.18,16,0,0-15.53,28.73-54.13,17,0,0-29.31,33.25-83.08,21.45l-.92,17c138-4.23,179.49-44.31,205.93-76.9C626.51,712.74,615.79,718.36,605.81,712.86Z"/></g><g id="Forma_5703" data-name="Forma 5703"><path class="cls-1" d="M350.21,376.36c-27.68-23.69-137.55-46.06-178.72,52.32C130,527.79,204.62,551.7,229.29,560c26.76,9,78.83-8,106.07-38.85C363.21,489.64,388.82,409.4,350.21,376.36Z"/></g><g id="Forma_5703_copia" data-name="Forma 5703 copia"><path class="cls-1" d="M625.41,428.68c-41.17-98.38-151-76-178.71-52.32-38.61,33-13,113.28,14.85,144.81C488.79,552,540.86,569.05,567.62,560,592.28,551.7,666.89,527.79,625.41,428.68Z"/></g><g id="Forma_5701_copia_3" data-name="Forma 5701 copia 3"><path class="cls-10" d="M532.12,581.36c-11.47-31.94-36.8-40.71-56-54.15-13.71-11-21.14-48.62-34-59.27-16.23-13.44-38.85-12.32-43-12-4.15-.34-26.77-1.46-43,12-12.85,10.65-20.29,48.27-34,59.27-19.18,13.44-44.52,22.21-56,54.15-26.63,74.16,18.75,111.17,23.67,118.53s2.34,91.25,108.32,92.29h2c106-1,103.44-85,108.32-92.29S558.76,655.52,532.12,581.36Z"/></g><g id="Forma_5701_copia_4" data-name="Forma 5701 copia 4"><path class="cls-11" d="M509.79,581c-17.54-28.22-40-37.49-54.47-50.53-10.4-10.66-16.11-47-25.59-57.28-14.27-15.5-47.59-15.5-61.86,0-9.47,10.28-15.18,46.62-25.58,57.28-14.52,13-36.93,22.31-54.47,50.53-32.6,52,7,95.08,20.66,120.57,3.73,7,12.86,82.63,89,84.44v0h2.67v0c76.13-1.81,85.26-77.43,89-84.44C502.8,676.1,542.39,633,509.79,581Z"/></g><g id="Forma_5701_copia_5" data-name="Forma 5701 copia 5"><path class="cls-3" d="M492,584.06c-14.08-26.59-30.9-36.83-43.52-49.17-9-10.1-13.91-44.65-22.37-54.42-9.86-11.4-23.3-11.39-27.45-11.08-4.16-.31-17.6-.32-27.45,11.08-8.46,9.77-13.35,44.32-22.37,54.42-12.63,12.34-29.44,22.58-43.53,49.17-25.91,48.92,6.43,84.43,18,108.81,3.17,6.67,5.69,83.13,73.84,85.31v.05h3v-.05C468.29,776,470.8,699.54,474,692.87,485.55,668.49,517.89,633,492,584.06Z"/></g><g id="Forma_5705_copia" data-name="Forma 5705 copia" class="cls-12"><path class="cls-13" d="M322.14,527.21c-19.18,13.44-44.52,22.21-56,54.15-26.63,74.16,18.75,111.17,23.67,118.53,3.42,5.13,3.19,48,39.34,73.45-19.6-27.66-24-49.11-31.68-74.81C226.15,592.83,301,553,321.15,537.08c14.94-11.81,22.31-27.06,29.66-46.32,5.08-13.32,17.81-30.84,32-34.07-8.33,1.3-18.32,4.36-26.64,11.25C343.29,478.59,335.85,516.21,322.14,527.21Zm210.32,54.15c-11.48-31.94-36.81-40.71-56-54.15-13.7-11-21.14-48.62-34-59.27-8.32-6.89-18.31-9.95-26.64-11.25,14.16,3.23,26.89,20.75,32,34.07,7.34,19.26,14.72,34.51,29.66,46.32,20.15,15.92,95,55.75,23.67,161.45-7.65,25.7-12.08,47.15-31.69,74.81,36.15-25.48,35.93-68.32,39.35-73.45C513.7,692.53,559.09,655.52,532.46,581.36Z"/></g><g id="Forma_5715_copia" data-name="Forma 5715 copia"><path class="cls-14" d="M416.14,509.49c-13.59,1.21-13.59,2.72-34,0-9.43-1.25-28.39,7.31-34.33,17H450.46C444.53,516.8,425.61,508.65,416.14,509.49Zm33.66,49.73H348.48s-62.21,30.83-39.67,75.28c22.47,44.3,21.46,88.6,90,88.89h.67c68.53-.29,67.52-44.59,90-88.89C512,590.05,449.8,559.22,449.8,559.22Z"/></g><g id="Elipse_5709" data-name="Elipse 5709"><path class="cls-15" d="M367.92,558.17c-7.75-5-16.27-5.33-19-.57-2.83,4.92,1.59,13.25,9.87,18.41s16.62,4.93,18.93-.16C380,570.92,375.58,563.09,367.92,558.17Z"/></g><g id="Elipse_5709_copia" data-name="Elipse 5709 copia"><path class="cls-15" d="M456.17,557.6c-2.75-4.76-11.26-4.42-19,.57s-12,12.75-9.79,17.68c2.31,5.09,10.78,5.25,18.94.16S459,562.52,456.17,557.6Z"/></g><g id="Forma_5704_copia" data-name="Forma 5704 copia"><path class="cls-13" d="M402.88,582.45h-.34l-5.79,1a120.86,120.86,0,0,0,1,15.32c1,5.79,2.74,13.14,4.77,13.9v.06h.34v-.06c2-.76,3.82-8.11,4.77-13.9a120.86,120.86,0,0,0,1-15.32Z"/></g><g id="Forma_5700_copia" data-name="Forma 5700 copia"><path class="cls-16" d="M467.23,536.14c-4.83-18.32-30.52-24-42.22-17.7-12.24,6.6-25.91,8.15-45.28,0-12.26-5.16-37.39-.62-42.23,17.7s5,29.63,15.33,34.73c0,0-9.14-11.9,1-12.59s18.18,17.55,13.62,20.77c0,0,10.67,9.58,34.39,9.86h1c23.72-.28,34.39-9.86,34.39-9.86-4.56-3.22,3.46-21.47,13.62-20.77s1,12.59,1,12.59C462.26,565.77,472.06,554.47,467.23,536.14Z"/></g><g id="Forma_5728" data-name="Forma 5728"><path class="cls-1" d="M456.68,539.55c-23.8-18.6-36.17-.68-53.8-.68s-37.89-14.13-53.12,1.7c-7.24,7.53-8.29,16.38-4.87,24.83a32.66,32.66,0,0,0,7.94,5.47s-9.14-11.9,1-12.59,18.18,17.55,13.62,20.77c0,0,10.67,9.58,34.39,9.86h1c23.72-.28,34.39-9.86,34.39-9.86-4.56-3.22,3.46-21.47,13.62-20.77s1,12.59,1,12.59a32.18,32.18,0,0,0,9.85-7.43C465.48,555.31,465.68,546.58,456.68,539.55Z"/></g><g id="Forma_5711_copia" data-name="Forma 5711 copia"><path class="cls-15" d="M431.14,521.5s-15.76,6.81-28.6,6.81-28.6-6.81-28.6-6.81c-10.23-2.08-20.77,3.75-20.77,3.75S366,522.17,376.32,528c14.1,7.95,38.25,7.72,53.8-.34,10.49-5.44,21.79-2.38,21.79-2.38S441.37,519.42,431.14,521.5Z"/></g><g id="Forma_5712" data-name="Forma 5712"><path class="cls-17" d="M370.87,526.27s-7.06.19-4.42,6.13c2.06,4.65,7.49,3.47,9.87,1.36C378.5,531.82,380.59,527.72,370.87,526.27Z"/></g></svg>