<svg id="Assets" xmlns="http://www.w3.org/2000/svg" viewBox="0 0 800 800"><defs><style>.cls-1{fill:#d8d8d8;}.cls-2{fill:#ccc;}.cls-3{fill:#e2e2e2;}</style></defs><path class="cls-1" d="M643,410.85s42.3-3.23,70.44,22.66,10.28,76.56-3.22,91-43.08,14-76.56-17.92Z"/><path class="cls-2" d="M633.68,506.69c33.45,31.87,63,32.32,76.5,17.86,9.39-10.07,20.88-37.64,17.55-62.21-6.07-8.45-14.94-15.29-27.7-19-21.54-6.23-41.47-7.57-58.84-5.61Z"/><path class="cls-3" d="M157,410.85s-42.3-3.23-70.44,22.66-10.28,76.56,3.22,91,43.08,14,76.56-17.92Z"/><path class="cls-1" d="M166.32,506.69c-33.45,31.87-63,32.32-76.5,17.86-9.39-10.07-20.88-37.64-17.55-62.21,6.07-8.45,14.94-15.29,27.7-19,21.54-6.23,41.47-7.57,58.84-5.61Z"/><path class="cls-1" d="M682.85,581.53c-4.36-58.85-41-42.8-22.87-141.82S633.82,185.1,400,185.1,121.87,340.69,140,439.71s-18.51,83-22.87,141.82C109.74,681.39,233.86,759.31,400,759.31S690.26,681.39,682.85,581.53Z"/><g id="NOSE"><path class="cls-2" d="M358.54,567.46s3.66,37.12,42.13,37.12,40.79-37.12,40.79-37.12C391,583.9,358.54,567.46,358.54,567.46Z"/></g><path class="cls-2" d="M623.68,311c39.68,99-5.15,140,9,188.41s36.78,75.47,25.69,116.23c-16.51,60.68-42.38,85.8-59.4,96.73,55.49-32.22,87.75-78.52,83.87-130.86h0c-4.36-58.85-41-42.8-22.87-141.82l.06-.32c.12-.64.23-1.28.34-1.92l.15-.87c.07-.47.15-.94.23-1.41s.1-.66.16-1,.13-.87.2-1.3l.15-1.06.18-1.25.15-1.09c0-.41.11-.83.16-1.24s.1-.74.14-1.1l.15-1.25c.05-.37.09-.75.13-1.12s.09-.83.14-1.24l.12-1.13.12-1.26c0-.38.07-.76.11-1.13s.07-.84.11-1.26l.09-1.15c0-.42.07-.84.1-1.25l.09-1.17c0-.42.05-.84.08-1.26s.05-.78.07-1.17,0-.85.07-1.28.05-.77.06-1.16l.06-1.29c0-.39,0-.78.05-1.17s0-.9,0-1.35,0-1.1,0-1.65,0-1.24,0-1.86c0-.43,0-.85,0-1.28s0-.8,0-1.21V398c0-.44,0-.89,0-1.33s0-.77,0-1.16,0-.9,0-1.35l0-1.17c0-.45,0-.9,0-1.35s0-.77,0-1.16l-.06-1.38c0-.37,0-.75,0-1.13s-.05-.94-.07-1.41,0-.74-.07-1.11-.05-1-.09-1.43-.05-.74-.07-1.1-.07-1-.11-1.45l-.09-1.08-.12-1.48c0-.34-.06-.69-.1-1,0-.51-.09-1-.14-1.53,0-.32-.07-.64-.1-.95-.06-.54-.11-1.08-.17-1.62,0-.27-.07-.54-.1-.82-.07-.58-.13-1.16-.21-1.75l-.06-.5q-.57-4.53-1.33-9.08c0-.16,0-.33-.08-.49l-.33-1.87-.12-.7c-.11-.6-.23-1.2-.34-1.8l-.15-.77c-.11-.58-.23-1.17-.35-1.76,0-.27-.11-.54-.16-.81-.12-.58-.25-1.16-.37-1.74l-.18-.81-.39-1.75c-.06-.27-.12-.54-.19-.8q-.2-.89-.42-1.77l-.18-.77-.45-1.8c-.06-.24-.13-.48-.19-.73l-.48-1.84-.18-.66-.53-1.91-.15-.53c-.19-.68-.39-1.36-.59-2l-.09-.3q-2.19-7.35-5-14.61h0c-.29-.76-.58-1.52-.88-2.27l-.1-.24c-.28-.72-.57-1.43-.86-2.14l-.15-.37c-.28-.69-.57-1.37-.87-2.06l-.18-.43c-.29-.68-.59-1.36-.89-2l-.19-.43c-.3-.68-.6-1.35-.91-2l-.2-.42c-.31-.69-.63-1.37-1-2l-.18-.38c-.33-.69-.67-1.39-1-2.08l-.15-.3c-.36-.72-.72-1.45-1.09-2.17l-.06-.13q-2.6-5.07-5.54-10-3.95-6.69-8.52-13.18l-.06-.08c-.51-.73-1-1.44-1.55-2.16l-.09-.13c-.52-.71-1.05-1.42-1.58-2.12l-.11-.14c-.53-.71-1.07-1.41-1.61-2.11l-.09-.12-1.69-2.13,0,0c-20.9-26-50.4-48.47-90.68-63.68q-12.27-4.63-25.89-8.34-2.61-.71-5.26-1.37h0l-3.87-.95h0a365.68,365.68,0,0,0-51-8.22h0C476.26,194.67,589.89,226.69,623.68,311Z"/><path class="cls-3" d="M140,439.71c14.39,78.55-5.69,84.69-16.79,113.25C151,536.31,172,505.34,166.92,472.21s-33.67-99.51,12.24-175c28-46,122.69-101,122.69-101h0C153.61,233.43,124.77,356.53,140,439.71Z"/><g id="LEYEBROW"><path class="cls-2" d="M466.46,321.12l4.19,30.46c46.32-21.3,93.3,4.93,93.3,4.93l9.12-25.46C520.61,296.7,466.46,321.12,466.46,321.12Z"/></g><g id="LEYEBROW-2" data-name="LEYEBROW"><path class="cls-2" d="M231.19,331.05l9.12,25.46s47-26.23,93.29-4.93l4.2-30.46S283.65,296.7,231.19,331.05Z"/></g><path class="cls-1" d="M366.64,240.87s-48.78-18.61-24.2-67.56A64.53,64.53,0,0,0,372,195.84s-8.76-30.15,15.7-41.5c0,0,1.17,45.62,76.78,71.78C464.48,226.12,428.26,265.3,366.64,240.87Z"/><path class="cls-2" d="M387.7,154.34s-3.48,33.8,20.88,54.58,55.9,17.2,55.9,17.2C388.87,200,387.7,154.34,387.7,154.34Z"/><path class="cls-2" d="M380,207.33s-6-5.13-8-11.49a64.53,64.53,0,0,1-29.56-22.53S348.82,200.67,380,207.33Z"/><path class="cls-2" d="M482,652.73c.7-.29,1.2.85.62,1.41-7,6.75-29.55,23.08-82.65,23.08s-75.61-16.33-82.65-23.08c-.58-.56-.08-1.7.62-1.41,9.18,3.85,37.66,14,82,14S472.85,656.58,482,652.73Z"/><path class="cls-2" d="M400,710.15c-33.42,0-55.54-9.67-55.54-9.67,18,31.71,50.93,31,55.54,31s37.59.75,55.54-31C455.54,700.48,433.42,710.15,400,710.15Z"/></svg>