<svg id="Assets" xmlns="http://www.w3.org/2000/svg" viewBox="0 0 48 48"><defs><style>.cls-1{fill:#8bd2f1;}.cls-2{fill:#a6dff8;}.cls-3{fill:#00a6e5;}.cls-4{fill:#00be3b;}.cls-5{fill:#00aa2d;}.cls-6{fill:#00901b;}.cls-7{fill:#a0de9c;}.cls-8{fill:#043f56;}.cls-9{fill:#d70041;}.cls-10{fill:#fff;}.cls-11{fill:#005f8d;}.cls-12{fill:#494949;}.cls-13{fill:#9d9b9b;}.cls-14{opacity:0.79;}.cls-15{fill:#c4c4c4;}.cls-16{opacity:0.52;}.cls-17{fill:#262626;}.cls-18{fill:#3b3b3b;}.cls-19{fill:#545454;}.cls-20{fill:#dfa24a;}.cls-21{fill:#edc578;}.cls-22{fill:#f9d99c;}.cls-23{fill:#a68030;}.cls-24{fill:#725006;}.cls-25{fill:#352200;}</style></defs><g id="Elipse_1080" data-name="Elipse 1080"><path class="cls-1" d="M23.85.52A23.42,23.42,0,1,0,47.31,23.94,23.44,23.44,0,0,0,23.85.52Z"/></g><g id="Elipse_1080_copia_2" data-name="Elipse 1080 copia 2"><path class="cls-2" d="M25.94,3.08A22.83,22.83,0,0,1,37.79,6.37,22.89,22.89,0,1,0,12.43,44.43,22.87,22.87,0,0,1,25.94,3.08Z"/></g><g id="Elipse_1480" data-name="Elipse 1480"><path class="cls-3" d="M25.81,31c-.69-.07-1.64.36-2.53.32S21.62,30.88,21,31a1.11,1.11,0,0,0-1,1.24,3.36,3.36,0,0,0,3.23,2.86c1.85.09,3.64-1.59,3.61-2.86A1.09,1.09,0,0,0,25.81,31Z"/></g><g id="Forma_1478" data-name="Forma 1478"><path class="cls-4" d="M41.36,7.56C33.23-.87,21.47-.24,21.14.25c-.85,1.25,0,1.37.88,1.83s1.14.23,1.38,1.53S23.83,5.4,25.29,5s3,0,1.76,1.82-1.33,2.33.61,3.26c2.53,1.21,3.25-1,5.18-.7,1.18.21,2.5,1.51,3.72,2s2-.48,1.55-1.23.31-2.05,1-1.77a1.78,1.78,0,0,0,2-.13C41.6,7.88,41.36,7.56,41.36,7.56Z"/></g><g id="Forma_1478_copia_2" data-name="Forma 1478 copia 2"><path class="cls-5" d="M39.92,7.87a.76.76,0,0,0-.88.41l.1,0a1.78,1.78,0,0,0,2-.13.69.69,0,0,0,.13-.11A2.23,2.23,0,0,1,39.92,7.87Zm-6.3,1c-1.93-.34-2.65,1.91-5.17.7-1.95-.92-1.82-1.46-.62-3.26s-.29-2.23-1.75-1.81-1.66-.07-1.9-1.37-.51-1.07-1.38-1.53-1.6-.57-1-1.57a1.3,1.3,0,0,0-.62.17c-.85,1.25,0,1.37.88,1.83s1.14.23,1.38,1.53S23.83,5.4,25.29,5s3,0,1.76,1.82-1.33,2.33.61,3.26c2.53,1.21,3.25-1,5.18-.7,1.18.21,2.5,1.51,3.72,2A1.24,1.24,0,0,0,38.08,11a1.69,1.69,0,0,1-.74-.11C36.13,10.43,34.81,9.13,33.62,8.92Z"/></g><g id="Forma_1082" data-name="Forma 1082"><path class="cls-3" d="M41.18,10.66c-1.13-1.37-2.86-2.09-1.65,1.21,0,0,6.47,16.93-6.68,29.92-3.84,3.79-.81,2.27.59,1.6,4-1.92,9.08-5,11.94-14.59C47.32,22.3,42.31,12,41.18,10.66Z"/></g><g id="Forma_1474" data-name="Forma 1474"><path class="cls-4" d="M45.51,13.87s-.13-.12-.47.05c-.79.4-.12,2.48-3.2,2s-4.27-.37-4.29,1,1.71.62,3.89,1,2.22,1.78,1.79,2.59-2.84.06-3.47.05c-1.18,0-2.7,1.67-4.24.94-2.11-1-3.73-1.68-3.8.32-.06,1.84,1.75,2,2.59,3s.32,2.54-1.11,4.68,1.13,3.84,2.88,2.31S38.3,29,39.7,31.14,38.56,34.3,34.31,35c0,0-3.93-.23-5,4.6s-2.65,3.48-3.72,5.11-1.1,2.78,0,3.17,7.14.26,12.43-4,6.33-6.19,6.73-7.27-1.94-2.27-1.46-4c.32-1.19.79-1.12,1.2-1.43s.64-.93.22-2-2.35-1.75-2-3.24,2.46-2.18,3.49-2.66S47.9,22.7,48,22.24A18.06,18.06,0,0,0,45.51,13.87Z"/></g><g id="Forma_1474_copia_4" data-name="Forma 1474 copia 4"><path class="cls-5" d="M38.91,30.23a3.44,3.44,0,0,1,.79.91c1.41,2.1-1.14,3.16-5.39,3.84,0,0-3.93-.23-5,4.6s-2.65,3.48-3.72,5.11-1.1,2.78,0,3.17a3.6,3.6,0,0,0,.61.11c-.95-.43-.89-1.54.14-3.12s2.69-.28,3.73-5.11,5-4.6,5-4.6c4.26-.68,6.8-1.74,5.4-3.84C39.8,30.36,39.36,30.1,38.91,30.23Zm-4.6-5.37c.85,1,.32,2.54-1.11,4.68a1.74,1.74,0,0,0,1.33,2.9,1.73,1.73,0,0,1-.61-2.74c1.44-2.14,2-3.65,1.12-4.68s-2.66-1.19-2.59-3c0-1,.47-1.34,1.18-1.28-1.12-.36-1.87-.22-1.91,1.12C31.66,23.67,33.47,23.82,34.31,24.86Zm7.85-6.77-.19,0c1.65.51,1.65,1.72,1.26,2.46s-2.84.06-3.47.05c-1,0-2.2,1.15-3.46,1.12,1.52.67,3-1,4.19-1,.63,0,3,.76,3.47-.05S44.34,18.48,42.16,18.09Zm3.35-4.22s-.13-.12-.47.05c-.79.4-.12,2.48-3.2,2s-4.27-.37-4.29,1c0,.65.4.81,1.07.85a.68.68,0,0,1-.34-.69c0-1.33,1.21-1.39,4.29-1s2.46-1.48,3.11-2C45.63,14.05,45.57,14,45.51,13.87Z"/></g><g id="Forma_1474_copia" data-name="Forma 1474 copia"><path class="cls-6" d="M42.68,26c.28-1.28,1.93-2,3-2.46a31.87,31.87,0,0,0-2-7.73,3.14,3.14,0,0,1-1.88.16l-1.28-.16c.12.63.23,1.31.32,2.05l.56.08c2.18.39,2.22,1.78,1.79,2.59-.26.49-1.25.41-2.12.27a29.4,29.4,0,0,1-1.46,10.27l.05.08c.84,1.25.28,2.13-1.21,2.78a27.8,27.8,0,0,1-5.64,7.87c-3.84,3.79-.81,2.27.59,1.6a19.78,19.78,0,0,0,10-9.51,1.86,1.86,0,0,1-.1-1.26c.32-1.19.79-1.12,1.2-1.43a1.36,1.36,0,0,0,.12-.12c.11-.28.22-.58.32-.88a2.61,2.61,0,0,0-.22-1C44.29,28.2,42.36,27.48,42.68,26Z"/></g><g id="Forma_1471" data-name="Forma 1471"><path class="cls-4" d="M20.71,42.64c1.07-.74,4.44-1.63,3.7-3.22s-2.91,1.24-6.19-1.1-1.37-4.35-2-5.54-2-3-5.83-1.82-4.79-4.51-.65-3,3.46-1.44,2.28-1.56-2.24.13-3.53-.87-3.27,1-4.65-.09-1.46-2.19.05-2,1.45-.47,1.93-1.13,1.62.38,2.3-.11.51-.9,0-1.3-2.75-2-3.5-.27c-.92,2.09-2.21-.35-1.73-1.47S1.3,15.84,1.23,17c0,0-3.92,7.44,2.23,20.26a.72.72,0,0,0,.61.17,2,2,0,0,0,1.57-.87c.58-.77,2.58-.53,3.42,2.06s9.65,9.69,11.64,6.61C21.7,43.67,19.63,43.39,20.71,42.64Z"/></g><g id="Forma_1471_copia_2" data-name="Forma 1471 copia 2"><path class="cls-5" d="M7.63,21.2c.41.33.6.67.29,1a.76.76,0,0,0,.18-.09c.68-.48.51-.9,0-1.3s-2.41-1.75-3.3-.62C5.79,19.86,7.23,20.89,7.63,21.2ZM2.4,19.47C2,20.49,3,22.6,3.87,21.39c-.72.13-1.35-1.44-1-2.28C3.36,18,1.3,15.84,1.23,17a.46.46,0,0,1,0,.08C1.79,17.33,2.75,18.66,2.4,19.47ZM5.71,22.4a.54.54,0,0,0-.39.22c-.19.26-.29.51-.44.72C5.34,23.18,5.45,22.8,5.71,22.4ZM8,25.86c1.3,1,2.36.74,3.54.86a1.09,1.09,0,0,1,.77,1.53c1.09-.38.51-1.8-.3-1.88-1.17-.12-2.24.13-3.53-.87s-3.27,1-4.65-.09c-.8-.63-1.16-1.26-1-1.65-.85.17-.61,1.09.55,2C4.72,26.85,6.7,24.87,8,25.86ZM4.91,37.18a2.16,2.16,0,0,0,.69-.6.93.93,0,0,0-.44.31A2.49,2.49,0,0,1,4.91,37.18Zm19.5,2.24c-.73-1.6-2.91,1.24-6.19-1.1s-1.37-4.35-2-5.54-2-3-5.83-1.82c-2.63.8-3.92-1.71-3.06-2.8-1.67.7-.41,4.06,2.58,3.16,3.78-1.14,5.18.63,5.83,1.82s-1.26,3.2,2,5.54,5.46-.5,6.2,1.09a1.16,1.16,0,0,1-.44,1.42C24.25,40.7,24.75,40.13,24.41,39.42Zm-3.14,2.9a2.46,2.46,0,0,0-.84.14c-1.83.44.79,1.57-.2,3.1l-.17.22a1.52,1.52,0,0,0,.64-.57c.91-1.41-.72-1.73-.21-2.37A3.8,3.8,0,0,1,21.27,42.32Z"/></g><g id="Forma_1083" data-name="Forma 1083"><path class="cls-4" d="M13.52,3.08c-.59-.35-.91-.09-.91-.09S8.27,4.59,4.2,10.66A.89.89,0,0,0,4.27,12c.75.6,2.08.82,3.58-.91s4.52-1.36,5.29-2.38-1.28-1.08-1-2,1.52-1.28,1.72-2S14.46,3.65,13.52,3.08Z"/></g><g id="Forma_1083_copia_2" data-name="Forma 1083 copia 2"><path class="cls-5" d="M12.88,2.9h0Zm.64.18a1.09,1.09,0,0,0-.63-.18c.64.5.37,1,.09,1.53s-1.46,1-1.71,2,1.81,1,1,2S8.5,9,7,10.76a3,3,0,0,1-2.6,1.33c.77.53,2,.63,3.45-1s4.52-1.36,5.29-2.38-1.28-1.08-1-2,1.34-1.15,1.72-2C14.13,4.12,14.3,3.57,13.52,3.08Z"/></g><g id="Elipse_1479" data-name="Elipse 1479"><path class="cls-7" d="M36.34,23.71c-.22.26-.08,1,0,1.55a3.72,3.72,0,0,1,0,.69c0,.16,0,.28.14.33S37,26,37,25.07,36.62,23.35,36.34,23.71Z"/></g><g id="Rectángulo_1468_copia_4" data-name="Rectángulo 1468 copia 4"><path class="cls-7" d="M31.66,39.18a.29.29,0,0,0-.43.14c-.48.91-.65,2-1.05,2.83a5.23,5.23,0,0,1-1.69,2.15c-.13.12-.07.32.12.43a.46.46,0,0,0,.54,0,6.16,6.16,0,0,0,1.7-2.12c.43-.86.57-1.91,1-2.85A.48.48,0,0,0,31.66,39.18Z"/></g><g id="Rectángulo_1468_copia_2" data-name="Rectángulo 1468 copia 2"><path class="cls-7" d="M9.24,5.8A18.15,18.15,0,0,0,7,8a18.27,18.27,0,0,0-1.68,2.22.42.42,0,0,0,.08.52.32.32,0,0,0,.48,0A24.12,24.12,0,0,1,9.74,6.35a.36.36,0,0,0,0-.51A.39.39,0,0,0,9.24,5.8Zm2-1a.41.41,0,0,0-.53-.09c-.22.17-.46.33-.69.5a.32.32,0,0,0-.06.48.42.42,0,0,0,.54,0l.7-.48A.28.28,0,0,0,11.28,4.77Z"/></g><g id="Rectángulo_1468_copia_5" data-name="Rectángulo 1468 copia 5"><path class="cls-7" d="M36,4.49a24.11,24.11,0,0,0-2.8-1.55A21.67,21.67,0,0,0,29.85,1.7a.45.45,0,0,0-.54.29.4.4,0,0,0,.27.52,28.46,28.46,0,0,1,3.31,1.3,30.61,30.61,0,0,1,2.76,1.48.37.37,0,0,0,.51-.21A.5.5,0,0,0,36,4.49Z"/></g><g id="Rectángulo_1468_copia_3" data-name="Rectángulo 1468 copia 3"><path class="cls-7" d="M4.29,34A28.42,28.42,0,0,1,3.12,31.1a28.76,28.76,0,0,1-.92-3.43.42.42,0,0,0-.5-.33.46.46,0,0,0-.34.51,22.35,22.35,0,0,0,2.09,6.41.5.5,0,0,0,.56.23A.37.37,0,0,0,4.29,34ZM1.66,27A.49.49,0,0,0,2,26.49c0-.33-.06-.65-.07-1a.33.33,0,0,0-.43-.3.46.46,0,0,0-.4.47l.09,1A.36.36,0,0,0,1.66,27Z"/></g><path class="cls-8" d="M15.79,36.77a24.42,24.42,0,0,0,16.42-.11,8,8,0,0,1-7.95,6.27C16.14,42.93,15.79,36.77,15.79,36.77Z"/><path class="cls-9" d="M28.09,42.08A11.66,11.66,0,0,0,24,41.43a11.3,11.3,0,0,0-4.17.7,10.89,10.89,0,0,0,4.39.8A8.31,8.31,0,0,0,28.09,42.08Z"/><path class="cls-10" d="M24,39.75a17,17,0,0,0,3.87-.41l.55-1.21v1a6.75,6.75,0,0,0,1.38-.68,3.87,3.87,0,0,0,.32-1.17,24.59,24.59,0,0,1-12.16.1,5.32,5.32,0,0,0,.24.82C18.33,38.46,20.12,39.75,24,39.75Z"/><ellipse class="cls-10" cx="32.95" cy="24.27" rx="5.27" ry="5.26"/><ellipse class="cls-8" cx="32.09" cy="24.27" rx="2.53" ry="2.52"/><g id="LEYEBROW"><path class="cls-11" d="M29,13.64,29.36,16a8.55,8.55,0,0,1,7.08.37l.7-1.93A9,9,0,0,0,29,13.64Z"/></g><g id="LEYEBROW-2" data-name="LEYEBROW"><path class="cls-11" d="M11.19,14.39l.69,1.93A8.55,8.55,0,0,1,19,16l.32-2.31A9,9,0,0,0,11.19,14.39Z"/></g><ellipse class="cls-10" cx="15.05" cy="24.27" rx="5.27" ry="5.26"/><ellipse class="cls-8" cx="15.91" cy="24.27" rx="2.53" ry="2.52"/><g id="Forma_561" data-name="Forma 561"><path class="cls-12" d="M43.1,18.5A34.27,34.27,0,0,0,30.69,18c-1.85.32-6.48.52-6.7.53s-4.83-.21-6.68-.53a34.27,34.27,0,0,0-12.41.5,2.36,2.36,0,0,0-.12,2.12s.79-.05.86,1.72S6.3,28,8.42,29.56a10.35,10.35,0,0,0,10,.62c3.78-1.75,3.67-6.82,3.69-7.67a4.93,4.93,0,0,1,1.9-.45,5.15,5.15,0,0,1,1.92.45c0,.85-.09,5.92,3.69,7.67a10.35,10.35,0,0,0,10-.62C41.7,28,42.3,24.1,42.36,22.34s.86-1.72.86-1.72A2.36,2.36,0,0,0,43.1,18.5ZM18.7,28.37S17.19,30,12.61,29.76c-5.38-.29-6.11-7.27-5.29-8.89s3.79-1.75,7-1.64,6.43.41,6.38,3.05C20.55,26.89,18.7,28.37,18.7,28.37Zm16.69,1.39c-4.58.24-6.09-1.39-6.09-1.39s-1.85-1.48-1.95-6.09c-.05-2.64,3.23-3,6.38-3.05s6.12,0,7,1.64S40.77,29.47,35.39,29.76Z"/></g><g id="Forma_561_copia_4" data-name="Forma 561 copia 4"><path class="cls-13" d="M19.73,20.34a2.21,2.21,0,0,1,.92,1.94c-.1,4.61-1.95,6.09-1.95,6.09S17.19,30,12.61,29.76a5.38,5.38,0,0,1-2.17-.57,5.19,5.19,0,0,0,2.73.9c4.57.24,6.08-1.39,6.08-1.39s1.86-1.47,1.95-6.08A2.32,2.32,0,0,0,19.73,20.34Zm23.49-1.62c-.07-.14-.12-.22-.12-.22A34.27,34.27,0,0,0,30.69,18c-1.85.32-6.48.52-6.7.53s-4.83-.21-6.68-.53a34.27,34.27,0,0,0-12.41.5,2.36,2.36,0,0,0-.12,2.12s.79-.05.86,1.72S6.3,28,8.42,29.56a4.94,4.94,0,0,0,.78.49L9,29.9c-2.12-1.56-2.71-5.46-2.78-7.23S5.34,21,5.34,21a2.34,2.34,0,0,1,.12-2.11,34.22,34.22,0,0,1,12.4-.5c1.86.32,6.46.51,6.68.52s4.85-.2,6.71-.52A35,35,0,0,1,43.22,18.72ZM26.46,22.84s-.22-.1-.55-.21c0,1.11.06,5.67,3.45,7.43C26.39,28,26.48,23.63,26.46,22.84Zm13.62-2.68a2.15,2.15,0,0,1,.6.71c.82,1.62.09,8.6-5.29,8.89a10.29,10.29,0,0,1-5.25-.83c.61.44,2.32,1.35,5.81,1.16,5.38-.28,6.11-7.27,5.28-8.89A2.35,2.35,0,0,0,40.08,20.16Z"/></g><g id="Forma_563" data-name="Forma 563"><path class="cls-10" d="M9.61,20.51c-1-.16-1.35.45-1.72,1.42s.12,1.75.88,1.64S10.33,22,10.33,22,10.88,20.7,9.61,20.51Z"/></g><g id="Forma_561_copia" data-name="Forma 561 copia" class="cls-14"><path class="cls-15" d="M14.27,19.23c-3.16-.11-6.12,0-6.95,1.64s-.09,8.6,5.29,8.89c4.58.24,6.09-1.39,6.09-1.39s1.85-1.48,1.95-6.09C20.7,19.64,17.42,19.33,14.27,19.23Zm26.41,1.64c-.83-1.63-3.79-1.75-7-1.64s-6.43.41-6.38,3.05c.1,4.61,1.95,6.09,1.95,6.09s1.51,1.63,6.09,1.39C40.77,29.47,41.5,22.49,40.68,20.87Z"/></g><g id="Forma_562" data-name="Forma 562" class="cls-16"><path class="cls-10" d="M8,23.12c.57,4.5,2.27,5.62,3.93,5.94,0,0-1.74-4.19.33-6.47s3.54-2.5,3.54-2.5S7.4,18.62,8,23.12Zm20.42,0c.56,4.5,2.27,5.62,3.93,5.94,0,0-1.75-4.19.32-6.47s3.55-2.5,3.55-2.5S27.82,18.62,28.39,23.12Z"/></g><g id="Forma_563-2" data-name="Forma 563"><path class="cls-10" d="M30.23,20.51c-1-.16-1.35.45-1.72,1.42s.12,1.75.88,1.64S31,22,31,22,31.5,20.7,30.23,20.51Z"/></g><g id="Forma_2127" data-name="Forma 2127"><path class="cls-17" d="M34.3,34.38s-.77.9-2.66-.34c-2.85-1.88-4.73-1.44-4.73-1.44L23.81,34,20.7,32.6S18.83,32.16,16,34c-1.89,1.24-2.65.34-2.65.34s.42,1.53,1.79,1.47c0,0-.09.46-.34.55a4,4,0,0,0,2.74.69,3.13,3.13,0,0,0,2.35.07c1.71-.61,3.4,0,3.94-1.44.55,1.4,2.24.83,3.95,1.44a3.13,3.13,0,0,0,2.35-.07,4,4,0,0,0,2.74-.69c-.25-.09-.34-.55-.34-.55C33.87,35.91,34.3,34.38,34.3,34.38ZM23.8,35Z"/></g><g id="Forma_2129" data-name="Forma 2129"><path class="cls-18" d="M33.6,35c-.61.09-1.3-.25-2.69-1a8.56,8.56,0,0,0-2.53-1c-2-1.11-4.32.77-4.32.77l.06.12-.29.15a1.48,1.48,0,0,0,.38.72c.32.61.72.53,1.77,1.26a4.64,4.64,0,0,0,2.45.8A3.16,3.16,0,0,1,27,36.09a3.69,3.69,0,0,0,.62.07,3,3,0,0,1-1.36-.65l-.23-.21a2.29,2.29,0,0,0,.88.32l0,0a6,6,0,0,0,2,.6,8.3,8.3,0,0,1,.75.46l-.27-.43a5.92,5.92,0,0,0,.85,0,2.62,2.62,0,0,1-1-.15l-.27-.42h0A1.76,1.76,0,0,0,31,36.1c-.46,0-.92-.31-1.83-1h.45a9.48,9.48,0,0,1,2.47.86c-.68-.82-1.1-1.27-1.1-1.27A2.38,2.38,0,0,0,33.6,35Zm-10-1.28s-2.35-1.88-4.32-.77a8.56,8.56,0,0,0-2.53,1c-1.39.79-2.08,1.13-2.69,1a2.38,2.38,0,0,0,2.61-.26s-.41.45-1.1,1.27A9.46,9.46,0,0,1,18,35.11l.83,0a2.12,2.12,0,0,1-1.13.53,1.57,1.57,0,0,0,1.66-.4l-.38.57a3.79,3.79,0,0,1-1.71.46,6.25,6.25,0,0,0,3.37-.61,9.23,9.23,0,0,1,1.05-.47,3.84,3.84,0,0,1-1.78,1A4,4,0,0,0,22,35.47c1.1-.77,1.38-.5,1.7-1.52l-.25-.13S23.52,33.73,23.55,33.68Z"/></g><g id="Forma_2130_copia_3" data-name="Forma 2130 copia 3"><path class="cls-19" d="M17.69,34.56a11.27,11.27,0,0,1,1.78-1.31,3.23,3.23,0,0,0,.65-.47h0a5.26,5.26,0,0,0,.69-1.1,12.26,12.26,0,0,1-1.34,1.13,2.63,2.63,0,0,0-1.66.56,12.8,12.8,0,0,1-2.25,1.16,5.58,5.58,0,0,0,2.25-.68c.28-.16.57-.31.84-.45A5.22,5.22,0,0,0,17.69,34.56Zm3.87-1.25s-1,.35-2.15.9a2.84,2.84,0,0,1-1.35.34,4.51,4.51,0,0,0,2-.09l.43-.14a11.81,11.81,0,0,1-1.76,1.11,4.83,4.83,0,0,0,1.89-.77,12.54,12.54,0,0,1,1.93-1.13l-.29,0Zm-3.5,1.24a1.43,1.43,0,0,1-.24,0A.68.68,0,0,0,18.06,34.55Zm11.4,0a1.43,1.43,0,0,1-.24,0A.68.68,0,0,0,29.46,34.5Zm-.85-1.11c.28.14.57.29.85.45a5.52,5.52,0,0,0,2.24.68,12.8,12.8,0,0,1-2.25-1.16,2.59,2.59,0,0,0-1.65-.56,11.83,11.83,0,0,1-1.35-1.13,5.3,5.3,0,0,0,.7,1.1h0a3.34,3.34,0,0,0,.66.47,11.48,11.48,0,0,1,1.77,1.31A4.91,4.91,0,0,0,28.61,33.39Zm-2.89-.08-.74.27-.28,0a12.18,12.18,0,0,1,1.92,1.13,4.83,4.83,0,0,0,1.89.77,11.44,11.44,0,0,1-1.75-1.11l.42.14a4.55,4.55,0,0,0,2,.09,2.84,2.84,0,0,1-1.35-.34C26.68,33.66,25.72,33.31,25.72,33.31Z"/></g><g id="Elipse_1572_copia_2" data-name="Elipse 1572 copia 2"><path class="cls-20" d="M28.39,29.33a2.61,2.61,0,0,0-.9-.91,6.28,6.28,0,0,0-.7-2.34,3.39,3.39,0,0,0-2.91-2,3.38,3.38,0,0,0-2.91,2,6,6,0,0,0-.68,2.33,2.57,2.57,0,0,0-.93.95c-1.07,1.82-.2,4.38,1.64,4.37a2,2,0,0,0,1-.3,2.83,2.83,0,0,0,3.77,0,2,2,0,0,0,1,.3C28.66,33.71,29.49,31.13,28.39,29.33Z"/></g><g id="Elipse_1574" data-name="Elipse 1574"><path class="cls-21" d="M21.17,29.29c-.19.83-.06,2.1.48,2.12s.55-.59.75-1.45a3,3,0,0,0-.06-1.91C21.93,27.72,21.27,28.55,21.17,29.29Zm-.47-.81a3.13,3.13,0,0,0-1.32,2.37c.08-.23,1.13-1.78,1.76-1.73.34-1,.42-3.06,2.06-4.43C23.2,24.69,21.29,25.46,20.7,28.48Z"/></g><g id="Elipse_2127" data-name="Elipse 2127"><path class="cls-22" d="M22.28,29.92c-.32-.05-.65.29-.73.78s.1.92.41,1,.65-.28.74-.77S22.6,30,22.28,29.92Z"/></g><g id="Forma_1574" data-name="Forma 1574"><path class="cls-23" d="M25.63,32.55v0h0c-1.34,1.54-3.23.41-3.51.23h0s-1.34-1.22-2.14-.28a1.85,1.85,0,0,1,1.9.58,2.07,2.07,0,0,0,.29.52,3.25,3.25,0,0,0,3.59,0,.79.79,0,0,0,.19-.36,1.5,1.5,0,0,1,2.15-.63S27.37,31.32,25.63,32.55Z"/></g><g id="Forma_2123_copia" data-name="Forma 2123 copia"><path class="cls-24" d="M20.82,32.65c-1-.17-1,.46-.46.71a1.68,1.68,0,0,0,1.52,0l.26.21A1.75,1.75,0,0,0,20.82,32.65Zm6.27,0a1.74,1.74,0,0,0-1.31.94l.25-.21a1.68,1.68,0,0,0,1.52,0C28.11,33.11,28.07,32.48,27.09,32.65Z"/></g><g id="Elipse_2124_copia" data-name="Elipse 2124 copia"><path class="cls-25" d="M21,32.68c-.37-.09-.69,0-.73.13s.23.35.6.43.69,0,.73-.13S21.41,32.76,21,32.68Zm5.84,0c-.37.08-.64.28-.6.43s.36.22.73.13.63-.28.6-.43S27.24,32.59,26.88,32.68Z"/></g></svg>