<svg width="37" height="36" fill="none" xmlns="http://www.w3.org/2000/svg"><path d="M34.84 20.448H21.675c-.52 0-.942.409-.942.913v12.754c0 .504.422.913.942.913H34.84c.52 0 .942-.409.942-.913V21.36c0-.504-.422-.913-.942-.913Z" stroke="#6E6E6E" stroke-width="1.5" stroke-miterlimit="10" stroke-linecap="square" stroke-dasharray="2.11 4.92"/><path d="M25.926.035H2.004C1.06.035.294.778.294 1.693v23.175c0 .916.765 1.658 1.71 1.658h23.922c.945 0 1.71-.742 1.71-1.658V1.693c0-.915-.765-1.658-1.71-1.658Z" fill="#46178F"/><path fill-rule="evenodd" clip-rule="evenodd" d="m13.962 7.206 5.967 5.775-5.967 5.78-6.147-5.78 6.147-5.775Z" fill="#fff"/></svg>