<svg xmlns="http://www.w3.org/2000/svg" width="65" height="65" viewBox="0 0 65 65" fill="none">
<path fill-rule="evenodd" clip-rule="evenodd" d="M44.0954 51.4595L45.0254 56.3295C45.0925 56.723 45.0022 57.1271 44.774 57.4545C44.5457 57.7819 44.1978 58.0064 43.8054 58.0795L12.3154 64.0795C12.1183 64.1187 11.9154 64.1183 11.7185 64.0786C11.5215 64.0388 11.3344 63.9604 11.168 63.8479C11.0015 63.7354 10.859 63.591 10.7487 63.423C10.6384 63.2551 10.5625 63.067 10.5254 62.8695L0.025388 8.05951C-0.0479445 7.66061 0.0390437 7.24889 0.267465 6.91375C0.495886 6.57861 0.847297 6.3471 1.24539 6.26951L32.7354 0.269511C32.9331 0.230274 33.1366 0.230478 33.3342 0.270112C33.5318 0.309746 33.7196 0.388028 33.8868 0.500463C34.0541 0.612897 34.1975 0.757268 34.3088 0.925283C34.4201 1.0933 34.4971 1.28165 34.5354 1.47951L35.1154 4.47951L33.2409 5.04483L32.8954 3.23911C32.8541 3.01512 32.7256 2.81667 32.5381 2.68731C32.3506 2.55795 32.1195 2.50825 31.8954 2.54911L2.89542 8.03911C2.67143 8.08044 2.47298 8.20894 2.34362 8.39642C2.21426 8.58389 2.16456 8.81503 2.20542 9.03911L11.8154 59.3291C11.8614 59.55 11.9914 59.7444 12.178 59.8713C12.3645 59.9981 12.5931 60.0476 12.8154 60.0091L41.8154 54.5191C41.9272 54.4998 42.0341 54.4585 42.1299 54.3977C42.2257 54.3369 42.3085 54.2578 42.3736 54.1648C42.4387 54.0719 42.4847 53.967 42.509 53.8561C42.5334 53.7453 42.5355 53.6308 42.5154 53.5191L42.1934 51.8359L44.0954 51.4595Z" fill="#6E6E6E"/>
<path d="M35.1449 36.1994L33.3849 27.2994C33.3585 27.138 33.2999 26.9836 33.2126 26.8452C33.1253 26.7069 33.0111 26.5876 32.8768 26.4943C32.7425 26.401 32.5907 26.3357 32.4306 26.3022C32.2706 26.2687 32.1054 26.2678 31.9449 26.2994L10.0249 30.6094C9.86288 30.6345 9.70764 30.6922 9.56861 30.7792C9.42958 30.8661 9.30966 30.9803 9.21614 31.115C9.12262 31.2497 9.05744 31.4019 9.02457 31.5626C8.9917 31.7232 8.99181 31.8888 9.02491 32.0494L10.7749 40.9494C10.8 41.1114 10.8577 41.2667 10.9446 41.4057C11.0316 41.5447 11.1458 41.6647 11.2805 41.7582C11.4152 41.8517 11.5674 41.9169 11.7281 41.9497C11.8887 41.9826 12.0543 41.9825 12.2149 41.9494L34.2149 37.6494C34.5289 37.5776 34.8022 37.3855 34.9761 37.1144C35.15 36.8433 35.2106 36.5147 35.1449 36.1994Z" fill="#E21B3C"/>
<path fill-rule="evenodd" clip-rule="evenodd" d="M13.8249 37.4994L15.0549 33.6694L17.7549 36.7394L13.8249 37.4994Z" fill="white"/>
<path d="M31.1049 31.4194L20.4749 33.4894L20.8349 35.3294L31.4649 33.2594L31.1049 31.4194Z" fill="white" fill-opacity="0.5"/>
<path d="M37.7549 49.1994L36.0049 40.3094C35.9772 40.1486 35.9178 39.9949 35.8301 39.8573C35.7425 39.7197 35.6283 39.6009 35.4943 39.5078C35.3603 39.4147 35.2091 39.3493 35.0495 39.3152C34.89 39.2811 34.7252 39.2791 34.5649 39.3094L12.5949 43.6094C12.4326 43.6318 12.2768 43.6876 12.137 43.773C11.9973 43.8585 11.8767 43.9719 11.7828 44.1062C11.689 44.2404 11.6238 44.3926 11.5915 44.5532C11.5591 44.7137 11.5603 44.8793 11.5949 45.0394L13.3449 53.9394C13.3725 54.1012 13.4322 54.2558 13.5205 54.3942C13.6088 54.5326 13.7239 54.6519 13.8591 54.7451C13.9942 54.8383 14.1466 54.9035 14.3073 54.9368C14.468 54.9702 14.6338 54.9711 14.7949 54.9394L36.7949 50.6494C37.1131 50.5819 37.3921 50.3921 37.5717 50.1209C37.7512 49.8496 37.817 49.5187 37.7549 49.1994Z" fill="#FFA602"/>
<path fill-rule="evenodd" clip-rule="evenodd" d="M17.5649 46.3894C17.9522 46.3188 18.3517 46.3639 18.7134 46.5193C19.0751 46.6747 19.3829 46.9334 19.5982 47.263C19.8136 47.5926 19.9269 47.9783 19.9239 48.372C19.9209 48.7657 19.8018 49.1497 19.5816 49.476C19.3613 49.8023 19.0496 50.0563 18.6856 50.2062C18.3216 50.3561 17.9214 50.3953 17.5353 50.3188C17.1491 50.2423 16.7941 50.0535 16.5147 49.7761C16.2354 49.4987 16.0441 49.1451 15.9649 48.7594C15.9113 48.4985 15.9103 48.2295 15.9621 47.9682C16.0139 47.7069 16.1173 47.4586 16.2663 47.2379C16.4154 47.0171 16.607 46.8283 16.83 46.6826C17.053 46.5369 17.3028 46.4373 17.5649 46.3894Z" fill="white"/>
<path d="M30.5449 45.0195L23.0449 46.4895L23.4049 48.3295L30.9049 46.8695L30.5449 45.0195Z" fill="white" fill-opacity="0.5"/>
<path d="M64.0049 44.0594L62.2549 35.1594C62.2272 34.9976 62.1675 34.8429 62.0792 34.7045C61.9909 34.5662 61.8758 34.4469 61.7407 34.3537C61.6056 34.2605 61.4531 34.1953 61.2924 34.1619C61.1317 34.1285 60.9659 34.1277 60.8049 34.1594L38.8049 38.4494C38.6441 38.4771 38.4904 38.5365 38.3528 38.6241C38.2152 38.7118 38.0963 38.8259 38.0033 38.96C37.9102 39.094 37.8447 39.2452 37.8107 39.4047C37.7766 39.5643 37.7746 39.729 37.8049 39.8894L39.5649 48.7894C39.5899 48.9514 39.6477 49.1067 39.7346 49.2457C39.8215 49.3847 39.9358 49.5046 40.0704 49.5981C40.2051 49.6917 40.3574 49.7568 40.518 49.7897C40.6786 49.8226 40.8443 49.8225 41.0049 49.7894L63.0049 45.4894C63.3215 45.4217 63.6007 45.2365 63.7863 44.9712C63.9718 44.7058 64.0499 44.38 64.0049 44.0594Z" fill="#26890C"/>
<path d="M45.7549 40.9692L41.8849 41.6692L42.6349 45.4892L46.4649 44.7392L45.7549 40.9692Z" fill="white"/>
<path d="M57.1749 39.8296L49.3349 41.3596L49.6949 43.1996L57.5349 41.6696L57.1749 39.8296Z" fill="white" fill-opacity="0.5"/>
<path d="M61.4449 31.0694L59.6849 22.1694C59.6598 22.0074 59.6021 21.8522 59.5152 21.7131C59.4283 21.5741 59.314 21.4542 59.1793 21.3607C59.0447 21.2672 58.8924 21.202 58.7318 21.1691C58.5711 21.1362 58.4055 21.1363 58.2449 21.1694L36.2449 25.4594C36.0835 25.4858 35.929 25.5444 35.7907 25.6317C35.6524 25.719 35.5331 25.8332 35.4398 25.9676C35.3465 26.1019 35.2812 26.2536 35.2477 26.4137C35.2142 26.5738 35.2133 26.739 35.2449 26.8994L36.9949 35.7894C37.0212 35.9519 37.0801 36.1073 37.168 36.2464C37.256 36.3855 37.3711 36.5053 37.5066 36.5988C37.642 36.6922 37.795 36.7572 37.9563 36.79C38.1175 36.8228 38.2837 36.8226 38.4449 36.7894L60.4449 32.4994C60.7581 32.4255 61.0332 32.2389 61.2177 31.9752C61.4021 31.7114 61.483 31.389 61.4449 31.0694Z" fill="#1368CE"/>
<path fill-rule="evenodd" clip-rule="evenodd" d="M41.2449 27.9595L43.9649 29.7695L42.1349 32.4895L39.3349 30.6695L41.2449 27.9595Z" fill="white"/>
<path d="M56.7549 26.3994L46.7549 28.3994L47.1149 30.2394L57.1149 28.2394L56.7549 26.3994Z" fill="white" fill-opacity="0.5"/>
<path d="M60.0469 13.1097L10.7669 28.0297C10.4831 28.1171 10.1762 28.0883 9.91369 27.9495C9.65115 27.8107 9.45448 27.5734 9.36689 27.2897L6.04689 16.3597C5.96249 16.0772 5.99284 15.7729 6.13137 15.5127C6.2699 15.2524 6.50544 15.0573 6.78689 14.9697L56.0469 0.0496667C56.3307 -0.0377805 56.6376 -0.00895135 56.9001 0.129815C57.1626 0.268582 57.3593 0.505927 57.4469 0.789666L60.7569 11.6697C60.807 11.8107 60.8282 11.9604 60.8195 12.1098C60.8107 12.2592 60.7721 12.4053 60.7059 12.5396C60.6397 12.6738 60.5473 12.7934 60.4341 12.8913C60.3209 12.9893 60.1893 13.0635 60.0469 13.1097Z" fill="#E2E2E2"/>
<path d="M47.9569 9.23948C48.0698 8.89066 48.2207 8.55531 48.4069 8.23948C48.5202 8.05145 48.6172 7.85406 48.6969 7.64948C48.7418 7.51652 48.7418 7.37245 48.6969 7.23948C48.6687 7.16077 48.6223 7.08984 48.5615 7.03249C48.5006 6.97514 48.4271 6.93299 48.3469 6.90948C48.1506 6.85492 47.9432 6.85492 47.7469 6.90948C47.5004 6.99546 47.2824 7.1477 47.1169 7.34948C46.9399 7.55272 46.8253 7.80272 46.7869 8.06948L44.4269 7.66948C44.5756 6.98408 44.9235 6.35788 45.4269 5.86949C46.0139 5.30761 46.7325 4.9019 47.5169 4.68949C48.3161 4.40236 49.1821 4.35714 50.0069 4.55948C50.4787 4.70946 50.8835 5.01911 51.1518 5.4352C51.4201 5.85129 51.535 6.34783 51.4769 6.83948C51.4463 7.09567 51.3754 7.34541 51.2669 7.57948C51.1421 7.83124 51.0018 8.07504 50.8469 8.30948C50.7036 8.52648 50.5766 8.75377 50.4669 8.98948C50.4176 9.1491 50.4176 9.31987 50.4669 9.47948L48.0669 10.2095C47.9332 9.90465 47.8949 9.56651 47.9569 9.23948ZM48.9569 13.0195C48.7829 12.9362 48.6281 12.8176 48.5024 12.6713C48.3768 12.525 48.2829 12.3541 48.2269 12.1695C48.1632 11.9867 48.1418 11.7918 48.1643 11.5995C48.1869 11.4073 48.2527 11.2226 48.3569 11.0595C48.5887 10.7011 48.9449 10.4411 49.3569 10.3295C49.7562 10.1927 50.1929 10.2142 50.5769 10.3895C50.7523 10.4706 50.9083 10.5885 51.0342 10.7352C51.1602 10.8818 51.2531 11.0538 51.3069 11.2395C51.3685 11.4248 51.3879 11.6216 51.3637 11.8153C51.3395 12.0091 51.2722 12.195 51.1669 12.3595C50.9372 12.7116 50.5902 12.971 50.1876 13.0918C49.7849 13.2126 49.3525 13.187 48.9669 13.0195H48.9569Z" fill="#333333"/>
<path d="M42.4069 9.81934L13.8269 18.4793L14.6569 21.2193L43.2469 12.5493L42.4069 9.81934Z" fill="#333333"/>
</svg>