<svg xmlns="http://www.w3.org/2000/svg" xmlns:xlink="http://www.w3.org/1999/xlink" width="16" height="16" viewBox="0 0 16 16">
  <defs>
    <rect id="live-game-a" width="16" height="16" x="0" y="0" rx="2"/>
  </defs>
  <g fill="none" fill-rule="evenodd">
    <mask id="live-game-b" fill="#fff">
      <use xlink:href="#live-game-a"/>
    </mask>
    <use fill="#FFF" xlink:href="#live-game-a"/>
    <path fill="#26890C" d="M8.25,8.25 L15.75,8.25 L15.75,13.75 C15.75,14.8545695 14.8545695,15.75 13.75,15.75 L8.25,15.75 L8.25,8.25 Z" mask="url(#live-game-b)"/>
    <path fill="#FFA602" d="M0.25,8.25 L7.75,8.25 L7.75,15.75 L2.25,15.75 C1.1454305,15.75 0.25,14.8545695 0.25,13.75 L0.25,8.25 Z" mask="url(#live-game-b)"/>
    <path fill="#1368CE" d="M8.25,0.25 L13.75,0.25 C14.8545695,0.25 15.75,1.1454305 15.75,2.25 L15.75,7.75 L8.25,7.75 L8.25,0.25 Z" mask="url(#live-game-b)"/>
    <path fill="#E21B3C" d="M2.25,0.25 L7.75,0.25 L7.75,7.75 L0.25,7.75 L0.25,2.25 C0.25,1.1454305 1.1454305,0.25 2.25,0.25 Z" mask="url(#live-game-b)"/>
    <polygon fill="#FFF" fill-rule="nonzero" points="10.35 10.35 13.364 10.35 13.364 13.364 10.35 13.364" mask="url(#live-game-b)"/>
    <path fill="#FFF" fill-rule="nonzero" d="M4.14285714,13.6986607 C3.12581491,13.6986607 2.30133929,12.8741851 2.30133929,11.8571429 C2.30133929,10.8401006 3.12581491,10.015625 4.14285714,10.015625 C5.15989937,10.015625 5.984375,10.8401006 5.984375,11.8571429 C5.984375,12.8741851 5.15989937,13.6986607 4.14285714,13.6986607 Z" mask="url(#live-game-b)"/>
    <polygon fill="#FFF" fill-rule="nonzero" points="9.848 4.143 11.857 2.134 13.866 4.143 11.857 6.152" mask="url(#live-game-b)"/>
    <polygon fill="#FFF" fill-rule="nonzero" points="5.984 5.576 2.301 5.576 4.143 2.636" mask="url(#live-game-b)"/>
    <rect width="15.5" height="15.5" x=".25" y=".25" stroke="#FFF" stroke-width=".5" mask="url(#live-game-b)" rx="2"/>
  </g>
</svg>
