<svg xmlns="http://www.w3.org/2000/svg" xmlns:xlink="http://www.w3.org/1999/xlink" width="105" height="104" viewBox="0 0 105 104">
  <defs>
    <path id="podium-a" d="M13.910754,0.114762 C6.368268,0.149544 0.257796,0.99045 0.262446,1.993176 L0.262446,1.993176 C0.262446,1.993176 -1.735008,23.212614 14.044302,29.166102 L14.044302,29.166102 C14.044302,29.166102 27.679776,24.499734 27.575802,1.867626 L27.575802,1.867626 C27.571338,0.886476 21.710478,0.113646 14.391006,0.113646 L14.391006,0.113646 C14.231232,0.113646 14.072016,0.114018 13.910754,0.114762"/>
  </defs>
  <g fill="none" fill-rule="evenodd" transform="translate(10)">
    <path fill="#46178E" d="M25.481 104L59.659 104 59.659 72.232 25.481 72.232z"/>
    <path fill="#864CBF" d="M24.614 72.256L60.526 72.256 60.526 62.664 24.614 62.664z"/>
    <path fill="#46178E" d="M0.867 104L21.376 104 21.376 81.644 0.867 81.644z"/>
    <path fill="#864CBF" d="M0 81.849L22.243 81.849 22.243 72.256 0 72.256z"/>
    <path fill="#46178E" d="M63.787 104L84.296 104 84.296 91.246 63.787 91.246z"/>
    <path fill="#864CBF" d="M62.92 91.451L85.163 91.451 85.163 81.859 62.92 81.859z"/>
    <path fill="#25076B" d="M24.614 72.232L60.526 72.232 60.526 70.775 24.614 70.775zM0 81.849L22.243 81.849 22.243 80.391 0 80.391zM62.92 91.6L85.163 91.6 85.163 90.143 62.92 90.143z"/>
    <g transform="translate(1.302 25.309)">
      <path fill="#B2B2B2" d="M18.7707666,38.620482 C18.7707666,43.564176 14.7632106,47.571732 9.8195166,47.571732 C4.8758226,47.571732 0.8682666,43.564176 0.8682666,38.620482 C0.8682666,33.676788 4.8758226,29.669232 9.8195166,29.669232 C14.7632106,29.669232 18.7707666,33.676788 18.7707666,38.620482"/>
      <path fill="#CCC" d="M9.8194236,30.378171 C5.2745136,30.378171 1.5772056,34.075665 1.5772056,38.620389 C1.5772056,43.165485 5.2745136,46.862793 9.8194236,46.862793 C14.3643336,46.862793 18.0616416,43.165485 18.0616416,38.620389 C18.0616416,34.075665 14.3643336,30.378171 9.8194236,30.378171 M9.8194236,48.280857 C4.4927556,48.280857 0.1591416,43.947243 0.1591416,38.620389 C0.1591416,33.293907 4.4927556,28.960293 9.8194236,28.960293 C15.1462776,28.960293 19.4797056,33.293907 19.4797056,38.620389 C19.4797056,43.947243 15.1462776,48.280857 9.8194236,48.280857"/>
      <path fill="#CCC" fill-rule="nonzero" d="M13.555,43.69098 L13.555,41.49298 L9.775,41.49298 L11.623,39.78498 C12.2763333,39.1876467 12.7173333,38.6533133 12.946,38.18198 C13.1746667,37.7106467 13.289,37.20898 13.289,36.67698 C13.289,36.0796467 13.128,35.5546467 12.806,35.10198 C12.484,34.6493133 12.036,34.3016467 11.462,34.05898 C10.888,33.8163133 10.2276667,33.69498 9.481,33.69498 C8.53833333,33.69498 7.72166667,33.87698 7.031,34.24098 C6.34033333,34.60498 5.80366667,35.1043133 5.421,35.73898 L5.421,35.73898 L7.479,36.88698 C7.675,36.57898 7.92466667,36.3433133 8.228,36.17998 C8.53133333,36.0166467 8.865,35.93498 9.229,35.93498 C9.63966667,35.93498 9.95233333,36.0236467 10.167,36.20098 C10.3816667,36.3783133 10.489,36.6256467 10.489,36.94298 C10.489,37.1856467 10.4283333,37.42598 10.307,37.66398 C10.1856667,37.90198 9.94766667,38.18898 9.593,38.52498 L9.593,38.52498 L5.925,41.95498 L5.925,43.69098 L13.555,43.69098 Z"/>
      <path fill="#DB3C00" d="M82.0242144,48.2340036 C82.0242144,53.1776976 78.0166584,57.1852536 73.0729644,57.1852536 C68.1292704,57.1852536 64.1217144,53.1776976 64.1217144,48.2340036 C64.1217144,43.2903096 68.1292704,39.2827536 73.0729644,39.2827536 C78.0166584,39.2827536 82.0242144,43.2903096 82.0242144,48.2340036"/>
      <path fill="#EB670F" d="M73.0729644,39.9916926 C68.5280544,39.9916926 64.8307464,43.6891866 64.8307464,48.2339106 C64.8307464,52.7788206 68.5280544,56.4763146 73.0729644,56.4763146 C77.6178744,56.4763146 81.3151824,52.7788206 81.3151824,48.2339106 C81.3151824,43.6891866 77.6178744,39.9916926 73.0729644,39.9916926 M73.0729644,57.8941926 C67.7462964,57.8941926 63.4126824,53.5607646 63.4126824,48.2339106 C63.4126824,42.9072426 67.7462964,38.5736286 73.0729644,38.5736286 C78.3998184,38.5736286 82.7334324,42.9072426 82.7334324,48.2339106 C82.7334324,53.5607646 78.3998184,57.8941926 73.0729644,57.8941926"/>
      <path fill="#EB670F" fill-rule="nonzero" d="M72.729,53.38698 C73.6716667,53.38698 74.4626667,53.2353133 75.102,52.93198 C75.7413333,52.6286467 76.2173333,52.2296467 76.53,51.73498 C76.8426667,51.2403133 76.999,50.7036467 76.999,50.12498 C76.999,49.4156467 76.782,48.8113133 76.348,48.31198 C75.914,47.8126467 75.291,47.47898 74.479,47.31098 L74.479,47.31098 L76.509,45.12698 L76.509,43.39098 L69.425,43.39098 L69.425,45.53298 L73.289,45.53298 L71.539,47.42298 L71.539,49.17298 L72.701,49.17298 C73.6996667,49.17298 74.199,49.4903133 74.199,50.12498 C74.199,50.4516467 74.059,50.7036467 73.779,50.88098 C73.499,51.0583133 73.121,51.14698 72.645,51.14698 C72.1783333,51.14698 71.7046667,51.07698 71.224,50.93698 C70.7433333,50.79698 70.3116667,50.5963133 69.929,50.33498 L69.929,50.33498 L68.921,52.42098 C69.4156667,52.72898 70.0013333,52.96698 70.678,53.13498 C71.3546667,53.30298 72.0383333,53.38698 72.729,53.38698 Z"/>
      <path fill="#D89E00" d="M58.138 8.519L54.507 8.536 54.752 9.012 56.659 8.994z"/>
      <path fill="#FFC00A" d="M58.137927,8.5190046 L56.659041,8.9944206 C56.659041,8.9944206 56.846529,16.1689986 51.912135,18.9422586 L51.916227,19.7906046 L54.553149,18.5890446 L58.283751,13.4785086 L58.137927,8.5190046 Z"/>
      <path fill="#FD3" d="M50.875743,8.5524102 L50.927265,19.7949942 C58.216047,17.9459682 58.1379445,8.5189302 58.1379445,8.5189302 L50.875743,8.5524102 Z M60.605403,5.9783562 C60.605403,5.9783562 61.092165,18.5300082 50.094915,21.0054822 L50.026095,6.0270882 L60.605403,5.9783562 Z"/>
      <path fill="#FFC00A" d="M42.1827912,0.114855 C34.6403052,0.149637 28.5298332,0.990543 28.5344832,1.993269 C28.5344832,1.993269 26.5370292,23.212707 42.3163392,29.166009 C42.3163392,29.166009 55.9518132,24.499641 55.8478392,1.867719 C55.8431892,0.864993 49.7252772,0.080073 42.1827912,0.114855"/>
      <path fill="#FFC00A" d="M44.016 35.455L40.088 35.473 40.04 25.059 43.968 25.041zM49.999 38.165L36.313 38.228 36.3 35.491 49.987 35.428z"/>
      <path fill="#D89E00" d="M36.313 38.228L33.38 38.241 33.37 36.071 36.3 35.491zM41.469 28.323L40.048 26.828 40.088 35.473 41.502 35.467z"/>
    </g>
    <g transform="translate(29.574 25.309)">
      <mask id="podium-b" fill="#fff">
        <use xlink:href="#podium-a"/>
      </mask>
      <path fill="#D89E00" d="M8.0697774,-0.9826194 C8.0697774,-0.9826194 2.9718894,14.1592686 13.1974254,28.3231686 L6.4627374,29.2009026 L-11.4499926,6.1951206 C-11.4499926,6.1951206 -4.1898546,-1.9038774 -4.0851366,-1.9392174 C-3.9806046,-1.9745574 8.0697774,-0.9826194 8.0697774,-0.9826194" mask="url(#podium-b)"/>
    </g>
    <g transform="translate(12.648 .013)">
      <path fill="#B58100" d="M12.1822932,30.0277842 L10.6416552,31.0833342 C10.6416552,31.0833342 11.2175112,42.3932502 21.6699672,45.1733922 L22.8304212,44.9576322 L21.7004712,44.2303722 L17.3596032,41.7714522 L14.9704332,38.5004562 L13.0525872,31.4410122 L12.1822932,30.0277842 Z"/>
      <path fill="#B58100" d="M20.192 32.52L18.765 33.257 13.552 33.281 13.996 31.533z"/>
      <path fill="#D89E00" d="M20.1919182,32.5200726 C19.0173282,37.2362886 21.9868182,43.7546586 21.9868182,43.7546586 C14.6816682,41.9725926 14.6729262,32.5455546 14.6729262,32.5455546 L20.1919182,32.5200726 Z M12.1822002,30.0278586 C12.1822002,30.0278586 11.8109442,42.5832306 22.8305142,44.9575206 L22.7615082,29.9791266 L12.1822002,30.0278586 Z"/>
      <path fill="#FD3" fill-rule="nonzero" d="M33.956 42.987L33.956 31.787 28.708 31.787 28.708 34.235 30.788 34.235 30.788 42.987z"/>
      <path fill="#66BF39" d="M26.85 11.863L23.979 12.835 23.007 9.965 25.877 8.992zM42.87 14.533L39.999 15.506 39.027 12.635 41.898 11.662zM22.123 21.282L20.781 23.999 18.064 22.657 19.406 19.94z"/>
      <path fill="#1368CE" d="M31.405 17.541L29.01 16.358 30.193 13.962 32.588 15.146zM14.251 25.342L12.886 23.045 15.182 21.68 16.548 23.977zM18.352 14.444L16.356 12.668 18.132 10.672 20.128 12.449z"/>
      <path fill="#E21B3C" d="M35.364 22.91L32.466 22.023 33.354 19.125 36.252 20.012zM36.281 7.806L33.41 8.778 32.438 5.907 35.308 4.935zM4.399 13.815L2.038 15.715.138 13.353 2.499 11.453z"/>
      <path fill="#FFC00A" d="M9.42 19.996L6.97 18.929 8.037 16.479 10.486 17.546zM28.291 21.905L25.628 21.696 25.836 19.033 28.5 19.241zM26.488 2.762L23.899 3.424 23.237.836 25.825.173z"/>
    </g>
  </g>
</svg>
